<svg xmlns="http://www.w3.org/2000/svg">
<defs>
<font id="Pilowlava-Regular" horiz-adv-x="1697" >
  <font-face 
    font-family="Pilowlava"
    font-weight="400"
    font-stretch="normal"
    units-per-em="2048"
    panose-1="0 0 5 0 0 0 0 0 0 0"
    ascent="1638"
    descent="-410"
    cap-height="1556"
    bbox="-1105.66 -511.818 2982 2010.82"
    underline-thickness="102"
    underline-position="-307"
    unicode-range="U+0020-2116"
  />
<missing-glyph horiz-adv-x="2293" 
d="M225 1659h21v-205h-21v205zM410 1546h-82v-92h-21v205h144v-21h-123v-71h82v-21zM604 1454h-20v92h-72v113h20v-92h123v92h21v-113h-72v-92zM737 1454v205h154v-205h-154zM952 1454v205h21v-184h123v184h20v-205h-164zM1178 1454v205h911v-205h-911zM870 1475v163h-112
v-163h112zM225 1147v205h21v-185h61v113h21v-113h61v185h21v-205h-185zM481 1208v-61h-20v82h31v61h30v62h72v-62h31v-61h30v-82h-20v61h-154zM748 1331h-21v-184h-20v205h61v-62h31v-61h30v-62h21v185h20v-205h-61v61h-31v62h-30v61zM1004 1147h-21v184h-72v21h164v-21h-71
v-184zM1198 1331h-20v-184h-21v205h62v-62h30v-61h41v61h31v62h61v-205h-20v184h-21v-61h-30v-62h-31v-61h-20v61h-31v62h-31v61zM1444 1147v205h153v-205h-153zM1761 1352v-103h62v-102h-21v82h-133v-82h-20v205h112zM2007 1352v-21h-123v-71h82v-21h-82v-72h123v-20h-143
v205h143zM512 1270v-41h92v41h-31v61h-30v-61h-31zM1577 1167v164h-113v-164h113zM1669 1331v-82h72v82h-72zM2079 1116h-21v31h-10v31h31v-62zM328 932h-82v-92h-21v204h144v-20h-123v-72h82v-20zM563 1044v-204h-153v204h153zM737 1044v-102h62v-102h-21v82h-133v-82h-20
v204h112zM870 1044v-92h31v31h51v61h52v-20h-31v-61h-51v-41h51v-62h31v-20h-52v61h-51v31h-31v-92h-20v204h20zM1178 1024h-21v-184h-20v204h61v-61h31v-61h41v61h30v61h62v-204h-21v184h-20v-61h-31v-62h-30v-61h-21v61h-31v62h-30v61zM1434 840v204h143v-20h-123v-72h82
v-20h-82v-72h123v-20h-143zM1700 1044h153v-204h-153v204zM2028 942h61v-102h-21v82h-133v-82h-20v204h113v-102zM430 1024v-164h113v164h-113zM645 1024v-82h72v82h-72zM1833 860v164h-113v-164h113zM1935 1024v-82h72v82h-72zM358 532h-133v205h133v-20h-112v-164h112v-21

<glyph glyph-name=".notdef" horiz-adv-x="2293" 
d="M225 1659h21v-205h-21v205zM410 1546h-82v-92h-21v205h144v-21h-123v-71h82v-21zM604 1454h-20v92h-72v113h20v-92h123v92h21v-113h-72v-92zM737 1454v205h154v-205h-154zM952 1454v205h21v-184h123v184h20v-205h-164zM1178 1454v205h911v-205h-911zM870 1475v163h-112
v-163h112zM225 1147v205h21v-185h61v113h21v-113h61v185h21v-205h-185zM481 1208v-61h-20v82h31v61h30v62h72v-62h31v-61h30v-82h-20v61h-154zM748 1331h-21v-184h-20v205h61v-62h31v-61h30v-62h21v185h20v-205h-61v61h-31v62h-30v61zM1004 1147h-21v184h-72v21h164v-21h-71
v-184zM1198 1331h-20v-184h-21v205h62v-62h30v-61h41v61h31v62h61v-205h-20v184h-21v-61h-30v-62h-31v-61h-20v61h-31v62h-31v61zM1444 1147v205h153v-205h-153zM1761 1352v-103h62v-102h-21v82h-133v-82h-20v205h112zM2007 1352v-21h-123v-71h82v-21h-82v-72h123v-20h-143
v205h143zM512 1270v-41h92v41h-31v61h-30v-61h-31zM1577 1167v164h-113v-164h113zM1669 1331v-82h72v82h-72zM2079 1116h-21v31h-10v31h31v-62zM328 932h-82v-92h-21v204h144v-20h-123v-72h82v-20zM563 1044v-204h-153v204h153zM737 1044v-102h62v-102h-21v82h-133v-82h-20
v204h112zM870 1044v-92h31v31h51v61h52v-20h-31v-61h-51v-41h51v-62h31v-20h-52v61h-51v31h-31v-92h-20v204h20zM1178 1024h-21v-184h-20v204h61v-61h31v-61h41v61h30v61h62v-204h-21v184h-20v-61h-31v-62h-30v-61h-21v61h-31v62h-30v61zM1434 840v204h143v-20h-123v-72h82
v-20h-82v-72h123v-20h-143zM1700 1044h153v-204h-153v204zM2028 942h61v-102h-21v82h-133v-82h-20v204h113v-102zM430 1024v-164h113v164h-113zM645 1024v-82h72v82h-72zM1833 860v164h-113v-164h113zM1935 1024v-82h72v82h-72zM358 532h-133v205h133v-20h-112v-164h112v-21
zM563 532h-153v205h153v-205zM727 532v62h-31v61h-30v62h-21v-185h-20v205h61v-61h31v-62h31v-61h20v184h20v-205h-61zM983 737v-20h-72v-185h-20v185h-72v20h164zM1116 737v-61h31v-62h31v-82h-21v62h-153v-62h-21v82h31v62h30v61h72zM1352 737v-20h-113v-164h113v-21h-133
v205h133zM1464 717h-71v20h163v-20h-71v-185h-21v185zM2089 532h-492v205h492v-205zM430 717v-164h113v164h-113zM1126 614v41h-30v62h-31v-62h-31v-41h92zM276 287v61h-30v62h-31v20h51v-61h31v-62h41v62h31v61h51v-20h-31v-62h-31v-61h-30v-62h-21v62h-31zM604 246v-21
h-143v205h143v-20h-123v-72h82v-21h-82v-71h123zM686 246h123v-21h-143v205h20v-184zM891 287v-62h-21v62h-30v61h-31v62h-31v20h51v-61h31v-62h41v62h31v61h51v-20h-31v-62h-30v-61h-31zM1167 430v-20h-123v-72h82v-21h-82v-71h123v-21h-143v205h143zM1300 410v-185h-20
v185h-72v20h164v-20h-72zM1505 317v-92h-20v92h-72v113h21v-92h122v92h21v-113h-72zM1679 430v-61h31v-62h31v-61h20v184h21v-205h-62v62h-30v61h-31v62h-21v-185h-20v205h61zM1976 430v-20h-123v-72h82v-21h-82v-71h123v-21h-143v205h143zM287 123h143v-21h-123v-71h82v-21
h-82v-92h-20v205zM594 20h61v-102h-20v82h-133v-82h-21v205h113v-103zM2089 -82h-1362v205h1362v-205zM502 102v-82h71v82h-71zM236 -82h-31v31h31v-31z" />
    <glyph glyph-name=".null" horiz-adv-x="0" 
 />
    <glyph glyph-name="nonmarkingreturn" horiz-adv-x="682" 
 />
    <glyph glyph-name="space" unicode=" " horiz-adv-x="819" 
 />
    <glyph glyph-name="exclam" unicode="!" horiz-adv-x="739" 
d="M653 1184l-297 -604q-27 -58 -63 -54q-42 3 -45 66l-23 620q-2 64 3.5 115.5t23.5 101.5t48.5 83.5t83 54t122.5 20.5q77 0 124.5 -40t60 -101t3 -130.5t-40.5 -131.5zM487 217q26 -75 1 -127.5t-85 -79.5q-51 -22 -101.5 -32.5t-102 -8.5t-91.5 29.5t-57 79.5
q-12 43 -13 79.5t29 72.5t91 63q265 112 329 -76z" />
    <glyph glyph-name="quotedbl" unicode="&#x22;" horiz-adv-x="1132" 
d="M41 1065l74 391q10 51 39 82.5t69.5 41t84.5 5.5t89 -20q57 -20 89.5 -57t36 -76t-4.5 -78q-13 -50 -57 -82l-348 -258q-25 -20 -52 -3.5t-20 54.5zM584 1065l73 391q10 51 39 82.5t70 41t85 5.5t89 -20q57 -20 89.5 -57t36 -76t-4.5 -78q-13 -50 -57 -82l-349 -258
q-25 -20 -51.5 -3.5t-19.5 54.5z" />
    <glyph glyph-name="numbersign" unicode="#" horiz-adv-x="1763" 
d="M1386 1421l-233 -391q-23 -38 -52 -31t-20 48l97 419q23 99 92 118q54 15 98 -24q48 -41 33 -102q-4 -19 -15 -37zM1024 1421l-100 -436q-33 -142 -189 -96l-174 49q-117 33 -137 112q-16 60 31 111q46 51 112 41q61 -8 109 -72l123 -163q10 -14 26.5 -19t28 9.5
t6.5 52.5l-61 401q-15 97 49 147q50 39 107 24q58 -15 72 -78q8 -36 -3 -83zM1530 729l-518 19q-30 1 -42 13t-3 28.5t34 29.5l478 234q115 57 196 -4q60 -46 67 -128q8 -88 -53 -143q-58 -52 -159 -49zM846 635l-576 -17q-104 -3 -148 18t-56 83q-15 76 30 135t131 35
l629 -182q22 -6 29.5 -23t-3.5 -32.5t-36 -16.5zM879 154l84 368q34 145 190 99l260 -78q118 -35 138 -114q15 -61 -32 -110q-47 -51 -113 -40q-59 9 -106 71l-122 162q-19 26 -44 38t-43.5 10.5t-31.5 -9.5q-14 -9 -20.5 -17.5t-11 -30t6.5 -54.5l72 -269q30 -111 -59 -164
q-28 -16 -62 -16t-62 15.5t-42 52t-2 86.5zM518 209l223 303q15 20 34.5 25.5t31 -9t4.5 -47.5l-88 -364q-23 -95 -59 -127.5t-95 -18.5q-31 7 -54 28t-34.5 52t-2.5 73t40 85z" />
    <glyph glyph-name="dollar" unicode="$" horiz-adv-x="1816" 
d="M745 1036l672 -293q69 -30 117 -67t72.5 -70t37.5 -76t14.5 -73t0.5 -72q-6 -145 -84.5 -241.5t-218.5 -96.5q-123 0 -242 133l-115 127q-15 17 -36 17.5t-32.5 -15.5t-2.5 -41l133 -344q36 -93 15.5 -154.5t-69 -92t-112.5 -31.5q-52 -1 -98 18.5t-76.5 59t-31 98.5
t37.5 137l104 205q26 48 12 73q-12 19 -48 -4l-215 -137q-60 -39 -123 -44t-116 21t-95.5 73t-67 115.5t-24.5 144.5q0 108 57 191t174 112q87 20 155.5 -3t80.5 -75q10 -47 -35 -117l-185 -276q-24 -36 -21.5 -60t19.5 -36.5t46 -10t57 20.5l151 98q127 83 169 160t22 186
l-21 109q-8 43 -27 63.5t-67 32.5l-315 78q-250 61 -250 297q0 62 22.5 115.5t60 89t88 56t104 22.5t110.5 -18t106 -61l113 -96q26 -23 55.5 -9t20.5 44l-78 242q-40 127 3 198.5t151 71.5q68 0 119 -38.5t63 -101.5t-35 -145l-135 -219q-14 -22 -9.5 -43.5t27.5 -30
t68 6.5l344 126q74 27 134 32t99 -9t65.5 -42t37.5 -63t10 -77q-1 -36 -9.5 -68t-34.5 -64t-67.5 -48.5t-114 -13.5t-167.5 32l-416 129q-95 30 -152 0t-55 -82q0 -50 53 -76zM1141 430l248 96q38 14 59.5 34t21.5 36q3 17 -14.5 33t-42.5 22l-340 92q-66 16 -91.5 1.5
t-31.5 -64.5l-14 -98q-18 -123 37 -160.5t168 8.5z" />
    <glyph glyph-name="percent" unicode="%" horiz-adv-x="1599" 
d="M1470 1309l-1120 -1315q-14 -18 -33 -23.5t-32 2.5q-34 19 -13 58l897 1407q22 45 3.5 71t-48.5 19l-807 -150q-26 -5 -45 -22.5t-24 -45.5t18 -65l156 -252q19 -30 45 -37.5t43 11t12 53.5l-20 162q-11 82 48 119.5t122 5t63 -118.5q0 -36 -21.5 -88t-56.5 -101.5
t-87.5 -84.5t-106.5 -35q-175 0 -277 120q-87 101 -84 237q2 143 103 239q115 110 317 110l801 2q65 0 121 -41t69 -103t-43 -134zM1204 547q145 0 219 -71.5t74 -211.5q0 -280 -293 -280q-145 0 -220 70.5t-75 209.5t75 211t220 72zM1161 418l-104 -113q-29 -31 -21 -60.5
t47 -47.5l148 -66q52 -23 84.5 1t13.5 83l-57 174q-12 37 -47.5 47.5t-63.5 -18.5z" />
    <glyph glyph-name="ampersand" unicode="&#x26;" horiz-adv-x="1906" 
d="M1235 684l424 -405q47 -45 57 -101.5t-11 -101.5t-64 -76t-95 -31q-68 0 -117 28.5t-104 100.5l-55 72q-2 3 -8 10.5t-8.5 10.5t-7.5 8.5t-8.5 8t-8.5 6t-10 4.5t-11 1q-17 0 -34.5 -11t-24 -18.5t-31.5 -37.5q-156 -183 -467 -183q-82 0 -154.5 10t-147 39t-127.5 74.5
t-86.5 122.5t-33.5 178q0 161 68.5 251.5t237.5 103.5l225 18q63 5 63 53q0 20 -14 36t-39 22q-257 65 -361 146.5t-104 217.5q0 44 16 88.5t58 92.5t105.5 84t167 59t233.5 22q168 -1 291 -33t186.5 -84t86.5 -113.5t5 -127.5q-11 -41 -42 -74.5t-71 -50t-88.5 -5.5
t-89.5 54l-313 326q-29 29 -61.5 39t-58 0t-45 -30.5t-21.5 -51.5t12 -64l278 -502q58 -103 80 -126q33 -35 82 -35q53 0 86 22.5t107 99.5l360 379q89 93 182 93q76 0 129.5 -58t53.5 -131q0 -63 -43.5 -114.5t-132.5 -77.5l-461 -134q-109 -32 -35 -104zM1126 381
l-239 274q-28 32 -48.5 47.5t-39 22.5t-41.5 -2t-45 -23t-62 -45l-346 -270q-29 -23 -37 -51.5t11 -49t61 -20.5l756 6q39 0 54.5 16t8 41t-32.5 54z" />
    <glyph glyph-name="quotesingle" unicode="'" horiz-adv-x="589" 
d="M41 1065l74 391q10 51 39 82.5t69.5 41t84.5 5.5t89 -20q57 -20 89.5 -57t36 -76t-4.5 -78q-13 -50 -57 -82l-348 -258q-25 -20 -52 -3.5t-20 54.5z" />
    <glyph glyph-name="parenleft" unicode="(" horiz-adv-x="772" 
d="M461 311l215 -248q65 -83 52.5 -157.5t-83.5 -106.5q-136 -62 -266 156q-236 391 -236 811t236 811q130 218 266 156q71 -32 83.5 -107t-52.5 -158l-215 -247q-119 -141 -180 -248t-60 -207q-1 -100 60 -207t180 -248z" />
    <glyph glyph-name="parenright" unicode=")" horiz-adv-x="772" 
d="M393 1577q236 -391 236 -811t-236 -811q-130 -218 -266 -156q-71 32 -83.5 106.5t52.5 157.5l215 248q119 141 180 248t60 207q1 100 -60 207t-180 248l-215 247q-65 83 -52.5 158t83.5 107q136 62 266 -156z" />
    <glyph glyph-name="asterisk" unicode="*" horiz-adv-x="1159" 
d="M301 1206l219 -53q13 -4 20 7.5t-1 19.5l-183 182q-43 46 -43 96q0 45 37 75t88 30q54 0 80 -30t37 -89l37 -227q3 -13 16 -13q10 0 15 10l174 285q44 69 96 72q37 2 71.5 -26.5t34.5 -67.5q0 -38 -57 -86l-291 -222q-6 -6 -6 -12q0 -14 14 -14l338 -62q51 -10 76 -40
t25 -70q0 -53 -35 -87t-88 -34q-15 0 -31 7t-27 14.5t-35.5 26.5t-37.5 28l-203 159q-7 7 -17.5 4.5t-11.5 -16.5l-6 -315q-11 -144 -106 -144q-56 0 -83.5 44.5t-4.5 101.5l143 330q4 12 -2.5 18.5t-17.5 3.5l-283 -96q-59 -18 -94 7t-35 83q0 69 47.5 96t130.5 4z" />
    <glyph glyph-name="comma" unicode="," horiz-adv-x="589" 
d="M41 -203l74 391q10 51 39 82.5t69.5 41t84.5 5.5t89 -20q57 -20 89.5 -57t36 -76t-4.5 -78q-13 -50 -57 -82l-348 -258q-25 -20 -52 -3.5t-20 54.5z" />
    <glyph glyph-name="hyphen" unicode="-" horiz-adv-x="913" 
d="M682 688l-551 14q-26 1 -38.5 16.5t-2 35t44.5 30.5l467 150q190 60 223 -78q17 -68 -19 -119.5t-124 -48.5z" />
    <glyph glyph-name="period" unicode="." horiz-adv-x="577" 
d="M516 125q-6 -80 -50 -117t-110 -37q-43 0 -84 6t-82 21t-70.5 37t-46 58t-12.5 81q7 73 47 113.5t138 40.5q56 0 102 -9t88 -30.5t63.5 -63t16.5 -100.5z" />
    <glyph glyph-name="slash" unicode="/" horiz-adv-x="868" 
d="M821 1364l-719 -1358q-17 -31 -41.5 -37t-34.5 13.5t1 54.5l542 1395q38 99 84 132t105 19q75 -18 91 -78t-28 -141z" />
    <glyph glyph-name="zero" unicode="0" 
d="M848 -31q-357 0 -541 205.5t-184 607.5q0 401 183.5 603t541.5 202q359 0 543 -202t184 -603q0 -402 -184.5 -607.5t-542.5 -205.5zM883 147l540 654q52 63 38.5 124.5t-87.5 90.5l-776 311q-81 33 -146.5 12t-89 -84t2.5 -161l276 -883q16 -52 59 -84t94.5 -28t88.5 48z
" />
    <glyph glyph-name="one" unicode="1" horiz-adv-x="927" 
d="M760 1352l6 -1047q1 -179 -61.5 -257.5t-204.5 -78.5q-78 0 -131 34.5t-74.5 91.5t-18.5 128.5t31 147.5l348 944q14 41 12.5 72t-16.5 48.5t-35 24t-44 -2.5t-42 -32l-147 -178q-37 -45 -86 -68t-95.5 -19.5t-87 23.5t-66.5 61t-28 93q-5 93 52 156t166 63h344
q178 0 178 -204z" />
    <glyph glyph-name="two" unicode="2" horiz-adv-x="1705" 
d="M1507 1055q0 -95 -28 -175t-79 -135t-128.5 -76.5t-169.5 -0.5l-221 51q-85 22 -163 14t-142 -37t-138 -84q-64 -48 -80.5 -99.5t13.5 -88.5t94 -49l829 -154q49 -9 86.5 2.5t52.5 35t18 52.5t-17 56l-72 106q-26 38 -33 71t1 55t25.5 38t38 23.5t40.5 7.5
q70 0 104.5 -52.5t34.5 -142.5q0 -99 -36 -180t-94 -134.5t-134.5 -90t-154.5 -52.5t-157 -16h-446q-180 0 -293 84.5t-113 224.5q0 69 15.5 123t48.5 98t70.5 76.5t95.5 71.5l887 600q46 31 48 63t-31.5 60.5t-96.5 52.5q-76 33 -174 25t-156 -60l-412 -375
q-56 -51 -113.5 -68t-99 -2t-68 54t-26.5 92q0 73 72.5 156.5t185 151t261.5 112.5t290 45q120 0 209.5 -14.5t151.5 -46.5t102.5 -73.5t62.5 -105t30.5 -131t8.5 -159.5z" />
    <glyph glyph-name="three" unicode="3" horiz-adv-x="1677" 
d="M791 586l409 168q103 38 186.5 25.5t136 -74.5t52.5 -154q0 -136 -78 -248t-211.5 -184.5t-308.5 -112t-373 -39.5q-263 0 -377 55t-114 158q0 130 188 113l901 -80q83 -7 127.5 24t44.5 78q0 95 -172 117l-733 90q-109 13 -159 71t-50 140q0 164 209 230l799 254
q67 22 89.5 50.5t22.5 71.5q-1 31 -19 48.5t-43 18.5t-52 -5l-715 -211q-6 -2 -18 -5q-159 -48 -238 -46q-169 5 -180 190q-7 116 74 171.5t219 55.5h759q158 0 242 -65t84 -170q0 -113 -145 -217l-611 -424q-29 -20 -39 -44t0 -39t33 -21t60 10z" />
    <glyph glyph-name="four" unicode="4" horiz-adv-x="1652" 
d="M1335 -31q-56 0 -95.5 18t-60 49.5t-29.5 66t-9 75.5q0 86 24 148l99 243q37 91 41 112q7 40 -23 56q-21 11 -45 -2.5t-74 -56.5q-3 -3 -5 -4.5t-5.5 -4.5t-6 -5.5t-5.5 -4.5l-686 -585q-56 -47 -126.5 -76t-117.5 -29q-68 0 -109 40t-41 108q0 77 58 184l579 1036
q63 113 157 181.5t189 68.5q101 0 171.5 -67.5t70.5 -171.5q0 -116 -104 -189l-754 -526q-63 -43 -63 -94q0 -25 16.5 -40.5t42.5 -15.5q20 0 49 13l692 321q91 40 169 2.5t114 -135.5l104 -281q39 -103 39 -194q0 -108 -62 -174t-194 -66z" />
    <glyph glyph-name="five" unicode="5" horiz-adv-x="1632" 
d="M651 1554h578q235 0 235 -225q0 -61 -36.5 -112.5t-94 -77.5t-136.5 -9.5t-155 84.5l-184 164q-33 29 -58 45t-47 17.5t-37 -3.5t-33.5 -27t-31.5 -42.5t-35 -60.5l-301 -547q-24 -45 6 -77t72 -11l608 301q111 55 198 58.5t140.5 -34t88 -110t48 -158t13.5 -190.5
q0 -145 -57 -255t-164 -178.5t-253 -102.5t-331 -34q-176 0 -306 46t-186 133.5t-12 199.5q29 75 85.5 103.5t114.5 11t97 -69.5l207 -270q82 -109 203 -4l454 397q28 25 32.5 56.5t-20 53t-71.5 17.5l-846 -70q-78 -6 -128.5 11.5t-77 60t-35.5 98.5t-7 140l11 411
q1 58 13 97.5t41 72.5t80 51.5t129 28.5t189 10z" />
    <glyph glyph-name="six" unicode="6" horiz-adv-x="1753" 
d="M297 819l477 647q45 62 101 92.5t112 30.5q89 0 152 -49.5t63 -124.5q0 -37 -23.5 -85t-60.5 -89l-166 -192q-34 -38 -16 -70.5t76 -32.5h250q85 0 152.5 -22.5t111 -61t72.5 -92t41 -112.5t12 -126q0 -119 -46 -216t-121.5 -160.5t-176.5 -106.5t-207 -61.5t-217 -18.5
q-359 0 -559.5 113.5t-200.5 331.5q0 93 42 188t132 217zM344 305l1069 8q65 0 93 21t28 53q0 16 -11.5 29.5t-39.5 34.5l-475 356q-86 65 -145.5 65.5t-125.5 -59.5l-440 -379q-33 -30 -33 -65q0 -28 21 -46t59 -18z" />
    <glyph glyph-name="seven" unicode="7" horiz-adv-x="1472" 
d="M627 799l342 422q62 75 72.5 131.5t-25.5 81.5q-21 16 -46.5 22t-64.5 -4.5t-80 -42.5l-282 -215q-154 -117 -279 -117q-217 0 -233 226q-7 88 37 146t120 82.5t181 24.5h710q55 0 104 -4.5t104 -19.5t94.5 -38.5t65.5 -66t26 -98.5q0 -97 -71 -185t-214 -155l-397 -186
q-78 -37 -100 -86t5 -129l103 -295q27 -82 20.5 -143t-39.5 -101t-78 -60t-96 -20q-112 0 -176.5 70.5t-75.5 187.5q-6 70 15 146.5t67.5 155.5t88 137t102.5 133z" />
    <glyph glyph-name="eight" unicode="8" 
d="M178 1241q0 44 16 88t58 91.5t105.5 83.5t167 59.5t233.5 23.5q225 -1 384.5 -25t254 -69.5t137.5 -106.5t43 -143q0 -86 -38 -129t-153 -96l-339 -156q-41 -18 -33 -53q8 -34 65 -37l168 -6q179 -6 263.5 -101.5t84.5 -302.5q0 -126 -83.5 -215.5t-229.5 -133.5
t-342 -44q-105 1 -191.5 6.5t-174.5 18.5t-157 33.5t-129.5 53t-100 76t-62.5 103t-23 133.5q0 161 68.5 251.5t237.5 103.5l225 18q63 5 63 53q0 20 -14 36t-39 22q-257 65 -361 146.5t-104 217.5zM549 1372l196 -424q21 -45 56.5 -63.5t75.5 -10.5t81 37l273 193
q31 22 42 45.5t-1 46.5t-49 41l-500 242q-62 30 -113.5 24.5t-67.5 -40t7 -91.5zM1434 381l-424 295q-87 60 -146.5 61t-150.5 -61l-408 -291q-29 -21 -37 -50t11 -50t61 -21l1063 6q60 0 69 39.5t-38 71.5z" />
    <glyph glyph-name="nine" unicode="9" horiz-adv-x="1753" 
d="M1456 737l-477 -647q-45 -62 -101 -92.5t-112 -30.5q-89 0 -152 49.5t-63 124.5q0 37 23.5 85t60.5 89l166 193q34 38 16 70t-76 32h-249q-106 0 -184 34t-121.5 93.5t-64 130.5t-20.5 156q0 119 46 216t121.5 160.5t176.5 106.5t207 61.5t217 18.5q360 0 560 -113
t200 -331q0 -93 -42 -188.5t-132 -217.5zM1409 1251l-1069 -8q-65 0 -93 -21t-28 -53q0 -16 11.5 -29t39.5 -34l475 -356q86 -65 145.5 -65.5t125.5 58.5l440 379q33 30 33 66q0 28 -21 45.5t-59 17.5z" />
    <glyph glyph-name="colon" unicode=":" horiz-adv-x="618" 
d="M557 1092q-6 -80 -50 -117t-110 -37q-43 0 -84 6t-82 21t-70.5 37t-46 58t-12.5 81q7 73 47 113t138 40q56 0 102 -9t88 -30t63.5 -62.5t16.5 -100.5zM170 248q-126 89 -51 217q22 37 48 69t60 59.5t68 41.5t73 9.5t76 -30.5q39 -28 58 -57.5t16 -75.5t-37 -104
q-28 -48 -59.5 -83.5t-71 -60.5t-86 -22t-94.5 37z" />
    <glyph glyph-name="semicolon" unicode=";" horiz-adv-x="589" 
d="M143 801q-44 30 -62 68.5t-13.5 74.5t26.5 72q22 37 48.5 69.5t60.5 59.5t68.5 40.5t73.5 9t75 -31.5q39 -28 58 -56.5t16.5 -74.5t-37.5 -104q-29 -48 -61 -83.5t-72 -60.5t-86.5 -21.5t-94.5 38.5zM41 -203l74 391q10 51 39 82.5t69.5 41t84.5 5.5t89 -20
q57 -20 89.5 -57t36 -76t-4.5 -78q-13 -50 -57 -82l-348 -258q-25 -20 -52 -3.5t-20 54.5z" />
    <glyph glyph-name="equal" unicode="=" horiz-adv-x="1316" 
d="M223 981l928 43q26 1 40.5 -16.5t5.5 -39t-42 -28.5l-831 -197q-111 -25 -161 -11.5t-69 69.5q-22 66 9.5 121t119.5 59zM1098 434l-928 -43q-26 -1 -40.5 16.5t-5.5 39t42 28.5l831 197q111 25 161 11.5t69 -69.5q22 -66 -9.5 -121t-119.5 -59z" />
    <glyph glyph-name="question" unicode="?" horiz-adv-x="1380" 
d="M440 557l561 674q76 79 76 143q0 36 -25.5 56t-66.5 20q-51 0 -123 -45l-440 -279q-103 -65 -199 -65q-69 0 -112 36.5t-50 129.5q-6 75 26 136.5t92.5 103.5t147 70t187.5 41t217 13q122 0 227.5 -23t193 -70t137.5 -128.5t50 -189.5q0 -63 -17.5 -116.5t-44.5 -94
t-76.5 -83t-97 -74t-122.5 -75.5l-473 -280q-17 -11 -35 -11q-24 0 -38.5 17t-14.5 41q0 30 20 53zM846 111q-6 -80 -50 -117t-110 -37q-43 0 -84 6t-82 21t-70.5 37t-46 58t-12.5 81q7 73 46.5 113t137.5 40q44 0 82 -5t75.5 -19t63.5 -36t40 -58.5t10 -83.5z" />
    <glyph glyph-name="at" unicode="@" horiz-adv-x="1974" 
d="M952 1055l-211 -543q-6 -16 0.5 -25.5t18.5 -9t18 9.5l133 215q27 44 67 62.5t74.5 11.5t59.5 -37t25 -75q0 -54 -37.5 -90t-104.5 -62l-245 -96q-45 -16 -83.5 -12.5t-65 27.5t-40 56.5t-8.5 75t29 82.5l272 451q38 63 72 89.5t82 26.5q54 0 87 -26t74 -90l254 -394
q57 -88 105 -125.5t104 -37.5q29 0 55 21.5t39.5 54.5t1.5 77.5t-55 85.5l-614 576q-51 48 -118.5 72t-133.5 19t-122.5 -54t-80.5 -138l-248 -907q-27 -96 17.5 -138t140.5 -28l965 142q105 15 173 -28t68 -132q0 -68 -48 -115t-132 -47l-803 2q-323 2 -468.5 141.5
t-145.5 448.5q0 211 72 396t196.5 316t298 207t369.5 76q132 0 247.5 -35.5t200.5 -97t152 -142.5t108.5 -174t62.5 -188.5t21 -189.5q0 -79 -20.5 -145t-63 -119t-115 -83t-169.5 -30q-89 0 -154.5 45t-95.5 131l-174 508q-9 27 -20 38t-29 11q-21 0 -33.5 -13t-24.5 -48z
" />
    <glyph glyph-name="A" unicode="A" horiz-adv-x="1638" 
d="M389 465l529 12q97 2 147.5 29t58.5 100l88 725q10 84 -26 132t-101 36q-30 -6 -59.5 -31.5t-58 -72t-39.5 -67t-33 -64.5l-248 -508q-31 -63 -79.5 -101.5t-90 -49.5t-86.5 -11q-91 0 -155 66t-64 161q0 118 156 244l411 328q146 116 218.5 155t166.5 39q91 0 152 -60.5
t82 -166.5l186 -985q34 -180 -25.5 -293t-211.5 -113q-120 0 -184 66t-64 166v106q0 82 -38.5 98t-92.5 -32l-201 -172q-9 -7 -43 -37t-52 -45t-53.5 -42t-63 -42.5t-62.5 -32.5t-70 -25t-70 -8q-47 0 -90 14t-80.5 43t-59.5 81.5t-22 121.5q0 116 91 174.5t237 61.5z" />
    <glyph glyph-name="A" unicode="a" horiz-adv-x="1638" 
d="M389 465l529 12q97 2 147.5 29t58.5 100l88 725q10 84 -26 132t-101 36q-30 -6 -59.5 -31.5t-58 -72t-39.5 -67t-33 -64.5l-248 -508q-31 -63 -79.5 -101.5t-90 -49.5t-86.5 -11q-91 0 -155 66t-64 161q0 118 156 244l411 328q146 116 218.5 155t166.5 39q91 0 152 -60.5
t82 -166.5l186 -985q34 -180 -25.5 -293t-211.5 -113q-120 0 -184 66t-64 166v106q0 82 -38.5 98t-92.5 -32l-201 -172q-9 -7 -43 -37t-52 -45t-53.5 -42t-63 -42.5t-62.5 -32.5t-70 -25t-70 -8q-47 0 -90 14t-80.5 43t-59.5 81.5t-22 121.5q0 116 91 174.5t237 61.5z" />
    <glyph glyph-name="B" unicode="B" horiz-adv-x="1769" 
d="M1352 983l-172 8q-43 1 -69 -20t-26 -51q0 -24 15 -44t43 -24l223 -35q322 -51 322 -334q0 -151 -86.5 -268.5t-241 -181.5t-352.5 -64q-228 0 -405 60t-287.5 168t-167 253t-56.5 320q0 374 206.5 580t569.5 206h258q295 0 422 -63t127 -221q0 -133 -98 -214t-225 -75z
M518 334l811 6q107 1 168.5 48t61.5 112q0 94 -72 131.5t-201 11.5l-739 -147q-55 -10 -90.5 4t-44.5 45q-23 76 65 129l621 368q64 38 100.5 84.5t43 92.5t-6.5 89t-45 81q-37 44 -91 63.5t-116 12t-132 -54t-130 -128.5l-416 -565q-41 -58 -48.5 -123t15.5 -117
q27 -68 90 -105.5t156 -37.5z" />
    <glyph glyph-name="B" unicode="b" horiz-adv-x="1769" 
d="M1352 983l-172 8q-43 1 -69 -20t-26 -51q0 -24 15 -44t43 -24l223 -35q322 -51 322 -334q0 -151 -86.5 -268.5t-241 -181.5t-352.5 -64q-228 0 -405 60t-287.5 168t-167 253t-56.5 320q0 374 206.5 580t569.5 206h258q295 0 422 -63t127 -221q0 -133 -98 -214t-225 -75z
M518 334l811 6q107 1 168.5 48t61.5 112q0 94 -72 131.5t-201 11.5l-739 -147q-55 -10 -90.5 4t-44.5 45q-23 76 65 129l621 368q64 38 100.5 84.5t43 92.5t-6.5 89t-45 81q-37 44 -91 63.5t-116 12t-132 -54t-130 -128.5l-416 -565q-41 -58 -48.5 -123t15.5 -117
q27 -68 90 -105.5t156 -37.5z" />
    <glyph glyph-name="C" unicode="C" horiz-adv-x="1720" 
d="M829 -31q-176 0 -313 60t-222 167t-128 247t-43 307q0 241 101.5 432t284.5 298t415 107q143 0 262.5 -42t197.5 -113t121 -163t43 -192q0 -57 -13.5 -103.5t-43 -85t-84 -56t-129.5 -9.5q-49 5 -83.5 28.5t-50.5 55.5t-22.5 74.5t-4.5 79t9 76.5l35 194q13 73 -23 104
t-106 -8l-661 -401q-61 -37 -61.5 -82.5t63.5 -64.5l368 -103q54 -15 90 -53.5t46 -83.5t-15.5 -94t-87.5 -82l-112 -60q-113 -60 -107 -157q5 -76 76 -133q77 -63 166 -51q71 9 123 69l301 352q57 66 122.5 87.5t116 3.5t84 -62t33.5 -100q0 -67 -63 -145t-164 -144
t-241 -110t-280 -44z" />
    <glyph glyph-name="C" unicode="c" horiz-adv-x="1720" 
d="M829 -31q-176 0 -313 60t-222 167t-128 247t-43 307q0 241 101.5 432t284.5 298t415 107q143 0 262.5 -42t197.5 -113t121 -163t43 -192q0 -57 -13.5 -103.5t-43 -85t-84 -56t-129.5 -9.5q-49 5 -83.5 28.5t-50.5 55.5t-22.5 74.5t-4.5 79t9 76.5l35 194q13 73 -23 104
t-106 -8l-661 -401q-61 -37 -61.5 -82.5t63.5 -64.5l368 -103q54 -15 90 -53.5t46 -83.5t-15.5 -94t-87.5 -82l-112 -60q-113 -60 -107 -157q5 -76 76 -133q77 -63 166 -51q71 9 123 69l301 352q57 66 122.5 87.5t116 3.5t84 -62t33.5 -100q0 -67 -63 -145t-164 -144
t-241 -110t-280 -44z" />
    <glyph glyph-name="D" unicode="D" horiz-adv-x="1771" 
d="M319 1556h711q324 0 471.5 -199.5t147.5 -588.5q0 -800 -924 -797q-128 0 -229 39t-163 105t-97.5 155t-38.5 189.5t21 207.5t75 210l76 153q24 54 3.5 80.5t-91.5 38.5q-83 14 -125.5 66t-42.5 126q0 86 55 150.5t151 64.5zM1030 199l354 854q39 100 17.5 165t-84 93
t-141.5 12l-512 -98q-255 -48 -195 -264l211 -742q21 -75 70.5 -112.5t103 -34.5t103.5 37t73 90z" />
    <glyph glyph-name="D" unicode="d" horiz-adv-x="1771" 
d="M319 1556h711q324 0 471.5 -199.5t147.5 -588.5q0 -800 -924 -797q-128 0 -229 39t-163 105t-97.5 155t-38.5 189.5t21 207.5t75 210l76 153q24 54 3.5 80.5t-91.5 38.5q-83 14 -125.5 66t-42.5 126q0 86 55 150.5t151 64.5zM1030 199l354 854q39 100 17.5 165t-84 93
t-141.5 12l-512 -98q-255 -48 -195 -264l211 -742q21 -75 70.5 -112.5t103 -34.5t103.5 37t73 90z" />
    <glyph glyph-name="E" unicode="E" horiz-adv-x="1677" 
d="M475 213l901 80q189 17 189 -113q0 -103 -114.5 -158t-377.5 -55q-198 0 -373 39.5t-308.5 112t-211.5 184.5t-78 248q0 92 52.5 154t136 74.5t186.5 -25.5l410 -168q37 -16 59.5 -10t33 21t0 39t-39.5 44l-610 424q-144 103 -144 215q0 74 42 127.5t116.5 83t163.5 42.5
t197 13q202 1 405.5 -28.5t294.5 -71.5q85 -40 124.5 -94.5t35.5 -139.5q-5 -94 -74 -124t-201 14l-837 293q-50 17 -85 1t-53 -43.5t-18 -52.5q0 -43 23 -71.5t90 -50.5l798 -254q209 -66 209 -230q0 -82 -50 -140t-159 -71l-733 -90q-172 -22 -172 -117q0 -47 44.5 -78
t127.5 -24z" />
    <glyph glyph-name="E" unicode="e" horiz-adv-x="1677" 
d="M475 213l901 80q189 17 189 -113q0 -103 -114.5 -158t-377.5 -55q-198 0 -373 39.5t-308.5 112t-211.5 184.5t-78 248q0 92 52.5 154t136 74.5t186.5 -25.5l410 -168q37 -16 59.5 -10t33 21t0 39t-39.5 44l-610 424q-144 103 -144 215q0 74 42 127.5t116.5 83t163.5 42.5
t197 13q202 1 405.5 -28.5t294.5 -71.5q85 -40 124.5 -94.5t35.5 -139.5q-5 -94 -74 -124t-201 14l-837 293q-50 17 -85 1t-53 -43.5t-18 -52.5q0 -43 23 -71.5t90 -50.5l798 -254q209 -66 209 -230q0 -82 -50 -140t-159 -71l-733 -90q-172 -22 -172 -117q0 -47 44.5 -78
t127.5 -24z" />
    <glyph glyph-name="F" unicode="F" horiz-adv-x="1548" 
d="M477 1204l735 -475q45 -28 70 -54.5t33.5 -60t-12.5 -67.5q-23 -40 -70 -49t-103 6t-135 49l-561 242q-48 19 -82.5 7.5t-53.5 -37.5t-16 -66.5t29 -80.5l203 -313q58 -95 51 -169.5t-69.5 -120.5t-159.5 -46q-109 0 -166.5 67.5t-44.5 186.5l121 1016q19 153 103.5 235
t221.5 82h713q112 0 188 -55t76 -162q0 -233 -217 -233q-67 0 -303 109q-5 2 -8 3.5l-7 3.5t-7 3l-371 168q-60 27 -106.5 27t-71 -17t-39.5 -45q-42 -90 59 -154z" />
    <glyph glyph-name="F" unicode="f" horiz-adv-x="1548" 
d="M477 1204l735 -475q45 -28 70 -54.5t33.5 -60t-12.5 -67.5q-23 -40 -70 -49t-103 6t-135 49l-561 242q-48 19 -82.5 7.5t-53.5 -37.5t-16 -66.5t29 -80.5l203 -313q58 -95 51 -169.5t-69.5 -120.5t-159.5 -46q-109 0 -166.5 67.5t-44.5 186.5l121 1016q19 153 103.5 235
t221.5 82h713q112 0 188 -55t76 -162q0 -233 -217 -233q-67 0 -303 109q-5 2 -8 3.5l-7 3.5t-7 3l-371 168q-60 27 -106.5 27t-71 -17t-39.5 -45q-42 -90 59 -154z" />
    <glyph glyph-name="G" unicode="G" horiz-adv-x="1832" 
d="M657 1165l60 -75q61 -72 48.5 -151t-103.5 -140l-330 -226q-74 -50 -67 -137q5 -71 58 -115q63 -52 139 -13q4 2 9 5l866 516q72 43 137 54t111 -7t74 -61t31 -106l20 -430q7 -159 -57.5 -234.5t-184.5 -75.5q-78 0 -133 48.5t-62 129.5t58 187l219 338q27 50 6.5 81
t-59.5 31q-24 0 -39 -4.5t-42 -27.5t-62 -70l-336 -438q-84 -110 -142.5 -165.5t-126 -82.5t-159.5 -27t-175 50t-149 145t-104.5 246.5t-38.5 339.5q0 196 57.5 354.5t161 264t248.5 162t319 56.5q291 0 477.5 -90.5t233.5 -253.5q15 -50 2.5 -89.5t-39.5 -71t-69 -47
t-84.5 -17t-86.5 19.5t-75 62l-228 299q-53 68 -141 91.5t-182 -13.5q-51 -22 -80 -61t-32.5 -83t10 -88t42.5 -80z" />
    <glyph glyph-name="G" unicode="g" horiz-adv-x="1832" 
d="M657 1165l60 -75q61 -72 48.5 -151t-103.5 -140l-330 -226q-74 -50 -67 -137q5 -71 58 -115q63 -52 139 -13q4 2 9 5l866 516q72 43 137 54t111 -7t74 -61t31 -106l20 -430q7 -159 -57.5 -234.5t-184.5 -75.5q-78 0 -133 48.5t-62 129.5t58 187l219 338q27 50 6.5 81
t-59.5 31q-24 0 -39 -4.5t-42 -27.5t-62 -70l-336 -438q-84 -110 -142.5 -165.5t-126 -82.5t-159.5 -27t-175 50t-149 145t-104.5 246.5t-38.5 339.5q0 196 57.5 354.5t161 264t248.5 162t319 56.5q291 0 477.5 -90.5t233.5 -253.5q15 -50 2.5 -89.5t-39.5 -71t-69 -47
t-84.5 -17t-86.5 19.5t-75 62l-228 299q-53 68 -141 91.5t-182 -13.5q-51 -22 -80 -61t-32.5 -83t10 -88t42.5 -80z" />
    <glyph glyph-name="H" unicode="H" horiz-adv-x="1773" 
d="M1436 1587q93 0 158.5 -55t56.5 -143l-123 -1139q-5 -48 -14.5 -86t-30.5 -76t-51 -63t-78.5 -40.5t-112.5 -15.5q-97 0 -154 63.5t-57 147.5q0 126 113 232l190 180q62 56 62 121q0 40 -45.5 50t-98.5 -5l-778 -154q-63 -13 -84.5 -29.5t-21.5 -42.5q0 -17 10.5 -36
t22.5 -31.5t36 -36t37 -37.5q100 -109 100 -211q0 -87 -73.5 -149t-167.5 -62q-98 0 -159.5 65.5t-47.5 201.5l108 1009q5 50 15 93t32 90.5t52.5 81t80.5 55.5t113 22q103 0 161 -51.5t58 -136.5q0 -67 -33.5 -123t-88.5 -88l-234 -133q-43 -25 -57.5 -49t-14.5 -56
q0 -40 32.5 -62t86.5 -22h871q65 0 98.5 18.5t42.5 61.5q6 14 2.5 31t-4.5 25t-11 21t-15.5 19t-18 19t-19.5 20l-88 101q-100 117 -100 202q0 90 61.5 146.5t180.5 56.5z" />
    <glyph glyph-name="H" unicode="h" horiz-adv-x="1773" 
d="M1436 1587q93 0 158.5 -55t56.5 -143l-123 -1139q-5 -48 -14.5 -86t-30.5 -76t-51 -63t-78.5 -40.5t-112.5 -15.5q-97 0 -154 63.5t-57 147.5q0 126 113 232l190 180q62 56 62 121q0 40 -45.5 50t-98.5 -5l-778 -154q-63 -13 -84.5 -29.5t-21.5 -42.5q0 -17 10.5 -36
t22.5 -31.5t36 -36t37 -37.5q100 -109 100 -211q0 -87 -73.5 -149t-167.5 -62q-98 0 -159.5 65.5t-47.5 201.5l108 1009q5 50 15 93t32 90.5t52.5 81t80.5 55.5t113 22q103 0 161 -51.5t58 -136.5q0 -67 -33.5 -123t-88.5 -88l-234 -133q-43 -25 -57.5 -49t-14.5 -56
q0 -40 32.5 -62t86.5 -22h871q65 0 98.5 18.5t42.5 61.5q6 14 2.5 31t-4.5 25t-11 21t-15.5 19t-18 19t-19.5 20l-88 101q-100 117 -100 202q0 90 61.5 146.5t180.5 56.5z" />
    <glyph glyph-name="I" unicode="I" horiz-adv-x="878" 
d="M82 1102q0 36 96 147l232 267q62 71 161 71q83 0 144 -53t61 -141q0 -81 -43.5 -127.5t-124.5 -75.5l-225 -78q-39 -12 -39 -47q0 -39 53 -33l140 17q100 12 157.5 -32.5t53.5 -121t-70 -152.5l-391 -446q-43 -48 -43 -74q0 -32 22.5 -51.5t50.5 -7.5l246 106
q33 14 65.5 17.5t61.5 -5.5t48.5 -36t23.5 -70q7 -65 -38 -113.5t-116 -71t-153 -22.5q-172 0 -250.5 102.5t-36.5 258.5l166 606q6 21 6 37q0 34 -25 48.5t-77 14.5h-88q-68 0 -68 66z" />
    <glyph glyph-name="I" unicode="i" horiz-adv-x="878" 
d="M82 1102q0 36 96 147l232 267q62 71 161 71q83 0 144 -53t61 -141q0 -81 -43.5 -127.5t-124.5 -75.5l-225 -78q-39 -12 -39 -47q0 -39 53 -33l140 17q100 12 157.5 -32.5t53.5 -121t-70 -152.5l-391 -446q-43 -48 -43 -74q0 -32 22.5 -51.5t50.5 -7.5l246 106
q33 14 65.5 17.5t61.5 -5.5t48.5 -36t23.5 -70q7 -65 -38 -113.5t-116 -71t-153 -22.5q-172 0 -250.5 102.5t-36.5 258.5l166 606q6 21 6 37q0 34 -25 48.5t-77 14.5h-88q-68 0 -68 66z" />
    <glyph glyph-name="J" unicode="J" horiz-adv-x="1077" 
d="M260 256l547 109q65 12 80 70t-33 143l-279 477q-38 64 -66 149t-28 148q0 42 11.5 81.5t36.5 75.5t71 58t107 22q46 0 87.5 -15.5t78.5 -49t59 -95.5t22 -145v-774q0 -116 -8.5 -196t-32 -149.5t-64.5 -110t-107 -63t-160 -22.5q-114 0 -213 37t-165.5 98t-104.5 138
t-38 157q0 130 47 250.5t118.5 191t142.5 70.5q47 0 83 -21t52 -53t9 -72t-40 -75l-272 -284q-28 -30 -34.5 -61t4.5 -52t35.5 -32t53.5 -5z" />
    <glyph glyph-name="J" unicode="j" horiz-adv-x="1077" 
d="M260 256l547 109q65 12 80 70t-33 143l-279 477q-38 64 -66 149t-28 148q0 42 11.5 81.5t36.5 75.5t71 58t107 22q46 0 87.5 -15.5t78.5 -49t59 -95.5t22 -145v-774q0 -116 -8.5 -196t-32 -149.5t-64.5 -110t-107 -63t-160 -22.5q-114 0 -213 37t-165.5 98t-104.5 138
t-38 157q0 130 47 250.5t118.5 191t142.5 70.5q47 0 83 -21t52 -53t9 -72t-40 -75l-272 -284q-28 -30 -34.5 -61t4.5 -52t35.5 -32t53.5 -5z" />
    <glyph glyph-name="K" unicode="K" horiz-adv-x="1765" 
d="M442 1587q75 0 117 -36t46.5 -91t-19.5 -121t-74 -125l-33 -38q-97 -120 -57 -183q19 -31 42.5 -41.5t53.5 -1t59 27t72 50.5l535 406q110 83 184.5 118t163.5 35q85 0 139 -80t39 -174q-18 -104 -85.5 -156.5t-211.5 -84.5l-641 -140q-9 -2 -31 -6t-33 -6.5t-31 -7
t-31 -8.5t-26 -11t-23.5 -14t-15 -16.5t-8.5 -20.5q-14 -81 78 -125l713 -342q43 -21 77.5 14t20.5 80l-76 248q-20 66 10.5 106.5t82.5 43.5q59 2 100.5 -41t30.5 -123l-74 -512q-18 -123 -90 -182.5t-172 -59.5q-25 0 -47.5 4.5t-40 10.5t-37.5 20t-33 24.5t-34.5 34
t-33 37t-38 46t-41.5 49.5l-561 667q-29 34 -62.5 41t-53.5 -10.5t-26 -46.5t19 -68l256 -391q71 -105 51 -227q-14 -80 -84 -135.5t-174 -55.5q-109 0 -164 74.5t-47 208.5l72 1071q10 136 79.5 200t167.5 64z" />
    <glyph glyph-name="K" unicode="k" horiz-adv-x="1765" 
d="M442 1587q75 0 117 -36t46.5 -91t-19.5 -121t-74 -125l-33 -38q-97 -120 -57 -183q19 -31 42.5 -41.5t53.5 -1t59 27t72 50.5l535 406q110 83 184.5 118t163.5 35q85 0 139 -80t39 -174q-18 -104 -85.5 -156.5t-211.5 -84.5l-641 -140q-9 -2 -31 -6t-33 -6.5t-31 -7
t-31 -8.5t-26 -11t-23.5 -14t-15 -16.5t-8.5 -20.5q-14 -81 78 -125l713 -342q43 -21 77.5 14t20.5 80l-76 248q-20 66 10.5 106.5t82.5 43.5q59 2 100.5 -41t30.5 -123l-74 -512q-18 -123 -90 -182.5t-172 -59.5q-25 0 -47.5 4.5t-40 10.5t-37.5 20t-33 24.5t-34.5 34
t-33 37t-38 46t-41.5 49.5l-561 667q-29 34 -62.5 41t-53.5 -10.5t-26 -46.5t19 -68l256 -391q71 -105 51 -227q-14 -80 -84 -135.5t-174 -55.5q-109 0 -164 74.5t-47 208.5l72 1071q10 136 79.5 200t167.5 64z" />
    <glyph glyph-name="L" unicode="L" horiz-adv-x="1208" 
d="M131 397l121 867q23 164 85.5 243.5t166.5 79.5q97 0 172.5 -62t75.5 -171q0 -85 -56 -191l-432 -803q-59 -106 -59 -159q0 -37 25.5 -62.5t54.5 -25.5q30 0 73 27.5t134 97.5l188 145q111 84 211 84q97 0 161 -71t64 -163q0 -97 -76 -165t-227 -68h-407
q-164 0 -223.5 63t-59.5 224q0 55 8 110z" />
    <glyph glyph-name="L" unicode="l" horiz-adv-x="1208" 
d="M131 397l121 867q23 164 85.5 243.5t166.5 79.5q97 0 172.5 -62t75.5 -171q0 -85 -56 -191l-432 -803q-59 -106 -59 -159q0 -37 25.5 -62.5t54.5 -25.5q30 0 73 27.5t134 97.5l188 145q111 84 211 84q97 0 161 -71t64 -163q0 -97 -76 -165t-227 -68h-407
q-164 0 -223.5 63t-59.5 224q0 55 8 110z" />
    <glyph glyph-name="M" unicode="M" horiz-adv-x="2326" 
d="M1409 604l-53 365q-20 140 5 256.5t87.5 195.5t159 122.5t217.5 43.5q100 0 166 -28.5t111.5 -101t65.5 -193.5t21 -308l4 -682q1 -83 -21 -145t-59 -95.5t-79 -49t-88 -15.5q-61 0 -107 22t-71 58.5t-36.5 76t-11.5 81.5q0 31 8.5 75.5t16 72.5t24.5 84.5t19 64.5
l231 817q22 81 -23.5 128t-110.5 26t-91 -107l-324 -1069q-50 -168 -108.5 -249t-155.5 -81q-72 0 -135.5 63.5t-144.5 225.5l-238 471q-50 100 -73.5 228.5t-4.5 248.5l19 117q11 74 -37.5 116t-124.5 42q-84 0 -133 -56.5t-49 -146.5q0 -39 14.5 -97t30.5 -98l282 -694
q33 -80 39.5 -155t-13 -134t-72 -95t-132.5 -36q-65 0 -115 20.5t-82.5 61.5t-53.5 90t-31.5 118t-14.5 132t-4 146v432q0 226 45 365t126 197t204 58q263 0 385 -295l332 -805q41 -100 110 -100q107 0 74 215z" />
    <glyph glyph-name="M" unicode="m" horiz-adv-x="2326" 
d="M1409 604l-53 365q-20 140 5 256.5t87.5 195.5t159 122.5t217.5 43.5q100 0 166 -28.5t111.5 -101t65.5 -193.5t21 -308l4 -682q1 -83 -21 -145t-59 -95.5t-79 -49t-88 -15.5q-61 0 -107 22t-71 58.5t-36.5 76t-11.5 81.5q0 31 8.5 75.5t16 72.5t24.5 84.5t19 64.5
l231 817q22 81 -23.5 128t-110.5 26t-91 -107l-324 -1069q-50 -168 -108.5 -249t-155.5 -81q-72 0 -135.5 63.5t-144.5 225.5l-238 471q-50 100 -73.5 228.5t-4.5 248.5l19 117q11 74 -37.5 116t-124.5 42q-84 0 -133 -56.5t-49 -146.5q0 -39 14.5 -97t30.5 -98l282 -694
q33 -80 39.5 -155t-13 -134t-72 -95t-132.5 -36q-65 0 -115 20.5t-82.5 61.5t-53.5 90t-31.5 118t-14.5 132t-4 146v432q0 226 45 365t126 197t204 58q263 0 385 -295l332 -805q41 -100 110 -100q107 0 74 215z" />
    <glyph glyph-name="N" unicode="N" horiz-adv-x="1806" 
d="M397 -31q-44 0 -80 8t-63 20.5t-47.5 36.5t-34 46t-23 60t-15 68t-8 80.5t-3 86.5t-0.5 96v553q0 138 12 235.5t35 161.5t62.5 100.5t88 51t117.5 14.5q48 0 90.5 -16t75.5 -39.5t71 -69t66.5 -86t71.5 -108.5l485 -760q37 -59 62.5 -83t52.5 -24q76 0 76 68
q0 44 -43 152l-189 485q-23 60 -34.5 114.5t-12 72t-0.5 59.5t11.5 81.5t36.5 75.5t71 58t107 22q73 0 126 -33t79.5 -89.5t36 -123t1.5 -139.5l-104 -948q-17 -149 -70.5 -218t-152.5 -69q-31 0 -57 6t-54 25.5t-47.5 36.5t-53 58t-55 70.5t-67.5 92.5l-340 471
q-72 100 -116 224t-25 241l18 117q11 74 -25 115.5t-96 41.5q-85 0 -133.5 -56t-48.5 -146q0 -42 11.5 -101t25.5 -94l278 -682q35 -86 43 -161.5t-10.5 -133.5t-70 -91.5t-132.5 -33.5z" />
    <glyph glyph-name="N" unicode="n" horiz-adv-x="1806" 
d="M397 -31q-44 0 -80 8t-63 20.5t-47.5 36.5t-34 46t-23 60t-15 68t-8 80.5t-3 86.5t-0.5 96v553q0 138 12 235.5t35 161.5t62.5 100.5t88 51t117.5 14.5q48 0 90.5 -16t75.5 -39.5t71 -69t66.5 -86t71.5 -108.5l485 -760q37 -59 62.5 -83t52.5 -24q76 0 76 68
q0 44 -43 152l-189 485q-23 60 -34.5 114.5t-12 72t-0.5 59.5t11.5 81.5t36.5 75.5t71 58t107 22q73 0 126 -33t79.5 -89.5t36 -123t1.5 -139.5l-104 -948q-17 -149 -70.5 -218t-152.5 -69q-31 0 -57 6t-54 25.5t-47.5 36.5t-53 58t-55 70.5t-67.5 92.5l-340 471
q-72 100 -116 224t-25 241l18 117q11 74 -25 115.5t-96 41.5q-85 0 -133.5 -56t-48.5 -146q0 -42 11.5 -101t25.5 -94l278 -682q35 -86 43 -161.5t-10.5 -133.5t-70 -91.5t-132.5 -33.5z" />
    <glyph glyph-name="O" unicode="O" 
d="M848 -31q-357 0 -541 205.5t-184 607.5q0 401 183.5 603t541.5 202q359 0 543 -202t184 -603q0 -402 -184.5 -607.5t-542.5 -205.5zM883 147l540 654q52 63 38.5 124.5t-87.5 90.5l-776 311q-81 33 -146.5 12t-89 -84t2.5 -161l276 -883q16 -52 59 -84t94.5 -28t88.5 48z
" />
    <glyph glyph-name="O" unicode="o" 
d="M848 -31q-357 0 -541 205.5t-184 607.5q0 401 183.5 603t541.5 202q359 0 543 -202t184 -603q0 -402 -184.5 -607.5t-542.5 -205.5zM883 147l540 654q52 63 38.5 124.5t-87.5 90.5l-776 311q-81 33 -146.5 12t-89 -84t2.5 -161l276 -883q16 -52 59 -84t94.5 -28t88.5 48z
" />
    <glyph glyph-name="P" unicode="P" horiz-adv-x="1650" 
d="M524 1556h418q332 0 489.5 -159.5t157.5 -476.5q0 -94 -15.5 -174t-49.5 -148t-85 -116t-124 -74.5t-164 -26.5q-131 0 -231 58t-203 194l-236 309q-39 50 -101 51t-110 -51q-40 -47 -36 -106t45 -105l251 -282q63 -72 91 -136t28 -139q0 -205 -246 -205q-59 0 -103 12
t-84 43t-61.5 94t-21.5 156v883q0 180 99.5 289.5t291.5 109.5zM434 1133q0 -55 72 -93l711 -360q74 -37 135 -36.5t90.5 29t29 79.5t-39.5 106l-312 447q-55 78 -96.5 90.5t-124.5 -21.5l-379 -155q-45 -19 -65.5 -37.5t-20.5 -48.5z" />
    <glyph glyph-name="P" unicode="p" horiz-adv-x="1650" 
d="M524 1556h418q332 0 489.5 -159.5t157.5 -476.5q0 -94 -15.5 -174t-49.5 -148t-85 -116t-124 -74.5t-164 -26.5q-131 0 -231 58t-203 194l-236 309q-39 50 -101 51t-110 -51q-40 -47 -36 -106t45 -105l251 -282q63 -72 91 -136t28 -139q0 -205 -246 -205q-59 0 -103 12
t-84 43t-61.5 94t-21.5 156v883q0 180 99.5 289.5t291.5 109.5zM434 1133q0 -55 72 -93l711 -360q74 -37 135 -36.5t90.5 29t29 79.5t-39.5 106l-312 447q-55 78 -96.5 90.5t-124.5 -21.5l-379 -155q-45 -19 -65.5 -37.5t-20.5 -48.5z" />
    <glyph glyph-name="Q" unicode="Q" horiz-adv-x="1933" 
d="M1081 135l531 -106q98 -20 141 -84t43 -154q0 -81 -59.5 -141t-165.5 -60q-61 0 -127 33t-123 84l-447 410q-20 20 -57 20q-26 0 -63 -26.5t-71 -57.5t-90 -57.5t-116 -26.5q-126 0 -212 79t-119.5 207.5t-16.5 285.5q10 91 32 186t61.5 198.5t91.5 198t125 179.5
t159 147.5t197 99.5t235 37q140 0 262.5 -51t214 -142.5t158 -215t100 -271.5t33.5 -309q0 -211 -100 -287.5t-318 -52.5l-284 31q-104 11 -111 -64q-3 -37 19 -58.5t77 -31.5zM502 1034l39 -694q3 -64 35.5 -104.5t82.5 -45.5q42 -4 82 12t105 64l633 467q59 44 93 95.5
t34 95.5q0 61 -34 103.5t-91 57.5l-688 185q-161 43 -230 -20.5t-61 -215.5z" />
    <glyph glyph-name="Q" unicode="q" horiz-adv-x="1933" 
d="M1081 135l531 -106q98 -20 141 -84t43 -154q0 -81 -59.5 -141t-165.5 -60q-61 0 -127 33t-123 84l-447 410q-20 20 -57 20q-26 0 -63 -26.5t-71 -57.5t-90 -57.5t-116 -26.5q-126 0 -212 79t-119.5 207.5t-16.5 285.5q10 91 32 186t61.5 198.5t91.5 198t125 179.5
t159 147.5t197 99.5t235 37q140 0 262.5 -51t214 -142.5t158 -215t100 -271.5t33.5 -309q0 -211 -100 -287.5t-318 -52.5l-284 31q-104 11 -111 -64q-3 -37 19 -58.5t77 -31.5zM502 1034l39 -694q3 -64 35.5 -104.5t82.5 -45.5q42 -4 82 12t105 64l633 467q59 44 93 95.5
t34 95.5q0 61 -34 103.5t-91 57.5l-688 185q-161 43 -230 -20.5t-61 -215.5z" />
    <glyph glyph-name="R" unicode="R" horiz-adv-x="1767" 
d="M1653 227q0 -51 -15 -95t-46.5 -82t-88 -59.5t-133.5 -21.5q-158 0 -303 176l-506 613q-65 82 -65 129q1 39 30 52t88 5l623 -80q79 -10 137.5 0.5t91 37.5t47.5 61.5t15 76.5q0 78 -59.5 128.5t-168.5 50.5h-641q-152 0 -238.5 -78.5t-86.5 -192.5q0 -56 26 -119
l209 -491q31 -73 38.5 -137.5t-9.5 -117t-70 -83.5t-137 -31q-51 0 -96 20.5t-85 64t-63.5 122.5t-23.5 184q0 211 35 395t108 337.5t180 263t258 170.5t334 61q105 0 194 -18.5t152 -49t113 -73t81 -87.5t51 -95.5t28 -94.5t8 -86q0 -57 -13 -102.5t-48 -93.5t-104.5 -90.5
t-174.5 -79.5l-336 -119q-88 -29 -88 -90q0 -35 26 -49.5t85 -14.5l403 -4q103 -2 170.5 -60.5t67.5 -152.5z" />
    <glyph glyph-name="R" unicode="r" horiz-adv-x="1767" 
d="M1653 227q0 -51 -15 -95t-46.5 -82t-88 -59.5t-133.5 -21.5q-158 0 -303 176l-506 613q-65 82 -65 129q1 39 30 52t88 5l623 -80q79 -10 137.5 0.5t91 37.5t47.5 61.5t15 76.5q0 78 -59.5 128.5t-168.5 50.5h-641q-152 0 -238.5 -78.5t-86.5 -192.5q0 -56 26 -119
l209 -491q31 -73 38.5 -137.5t-9.5 -117t-70 -83.5t-137 -31q-51 0 -96 20.5t-85 64t-63.5 122.5t-23.5 184q0 211 35 395t108 337.5t180 263t258 170.5t334 61q105 0 194 -18.5t152 -49t113 -73t81 -87.5t51 -95.5t28 -94.5t8 -86q0 -57 -13 -102.5t-48 -93.5t-104.5 -90.5
t-174.5 -79.5l-336 -119q-88 -29 -88 -90q0 -35 26 -49.5t85 -14.5l403 -4q103 -2 170.5 -60.5t67.5 -152.5z" />
    <glyph glyph-name="S" unicode="S" horiz-adv-x="1708" 
d="M745 -29q-142 0 -256.5 29t-188.5 77.5t-123.5 114t-70 134t-20.5 143.5q0 61 15.5 114t55 91.5t97.5 38.5q71 0 115.5 -51t44.5 -119v-348q0 -78 46 -104.5t138 13.5l717 347q89 43 114 66q38 35 25 83q-14 55 -58 67.5t-96 -14.5l-434 -200q-99 -43 -172 -23.5
t-115 77.5t-44 134l-3 78q-1 53 -24.5 71t-91.5 33l-129 31q-62 15 -101 68.5t-39 117.5q0 129 62.5 235.5t165.5 174t231.5 104.5t265.5 37q109 0 209.5 -18.5t191.5 -59t158 -100t106.5 -147.5t39.5 -195q0 -113 -44 -179.5t-132 -66.5q-25 0 -51 9t-47 29t-31.5 48
t-1.5 69.5t41 88.5l90 135q18 29 16 53t-18 35q-39 28 -144 6l-882 -190q-114 -23 -103 -100q4 -33 26.5 -50t72.5 -26l1042 -189q85 -14 129.5 -68.5t44.5 -131.5q0 -106 -66 -209.5t-177 -183.5t-268.5 -129.5t-328.5 -49.5z" />
    <glyph glyph-name="S" unicode="s" horiz-adv-x="1708" 
d="M745 -29q-142 0 -256.5 29t-188.5 77.5t-123.5 114t-70 134t-20.5 143.5q0 61 15.5 114t55 91.5t97.5 38.5q71 0 115.5 -51t44.5 -119v-348q0 -78 46 -104.5t138 13.5l717 347q89 43 114 66q38 35 25 83q-14 55 -58 67.5t-96 -14.5l-434 -200q-99 -43 -172 -23.5
t-115 77.5t-44 134l-3 78q-1 53 -24.5 71t-91.5 33l-129 31q-62 15 -101 68.5t-39 117.5q0 129 62.5 235.5t165.5 174t231.5 104.5t265.5 37q109 0 209.5 -18.5t191.5 -59t158 -100t106.5 -147.5t39.5 -195q0 -113 -44 -179.5t-132 -66.5q-25 0 -51 9t-47 29t-31.5 48
t-1.5 69.5t41 88.5l90 135q18 29 16 53t-18 35q-39 28 -144 6l-882 -190q-114 -23 -103 -100q4 -33 26.5 -50t72.5 -26l1042 -189q85 -14 129.5 -68.5t44.5 -131.5q0 -106 -66 -209.5t-177 -183.5t-268.5 -129.5t-328.5 -49.5z" />
    <glyph glyph-name="T" unicode="T" horiz-adv-x="1566" 
d="M780 1309l330 -959q40 -113 39.5 -198t-56.5 -134t-163 -49q-59 0 -100.5 14t-68.5 39t-43 67.5t-22.5 91.5t-7.5 118l-22 1001q-2 97 -20.5 140t-59.5 43q-90 0 -90 -158v-90q0 -219 -55 -317.5t-191 -94.5q-97 3 -163.5 75t-66.5 169q0 217 161 353t435 136h701
q76 0 133 -20.5t87.5 -54.5t45 -72t14.5 -80q0 -57 -23.5 -106.5t-62 -82.5t-90 -50t-104.5 -14t-109.5 30t-101.5 78l-229 256q-29 33 -62 33q-92 0 -35 -164z" />
    <glyph glyph-name="T" unicode="t" horiz-adv-x="1566" 
d="M780 1309l330 -959q40 -113 39.5 -198t-56.5 -134t-163 -49q-59 0 -100.5 14t-68.5 39t-43 67.5t-22.5 91.5t-7.5 118l-22 1001q-2 97 -20.5 140t-59.5 43q-90 0 -90 -158v-90q0 -219 -55 -317.5t-191 -94.5q-97 3 -163.5 75t-66.5 169q0 217 161 353t435 136h701
q76 0 133 -20.5t87.5 -54.5t45 -72t14.5 -80q0 -57 -23.5 -106.5t-62 -82.5t-90 -50t-104.5 -14t-109.5 30t-101.5 78l-229 256q-29 33 -62 33q-92 0 -35 -164z" />
    <glyph glyph-name="U" unicode="U" horiz-adv-x="1622" 
d="M1243 475l-418 453q-39 43 -55 88.5t-9.5 81.5t31 62.5t60 35.5t83.5 -5.5t97 -53.5l238 -193q20 -16 40.5 -19.5t33.5 1.5t22 14q46 46 -4 104l-119 138q-78 90 -106.5 135.5t-28.5 97.5q0 75 50 123.5t136 48.5q108 0 156.5 -66.5t48.5 -203.5v-768q0 -580 -680 -580
q-206 0 -363.5 77t-245 221.5t-87.5 336.5v664q0 167 59.5 243t179.5 76q78 0 132.5 -39t74.5 -97t12 -124.5t-44 -120.5l-252 -372q-62 -94 -44.5 -172.5t109.5 -124.5l582 -299q250 -128 346 8q28 40 27.5 86.5t-18 80.5t-44.5 62z" />
    <glyph glyph-name="U" unicode="u" horiz-adv-x="1622" 
d="M1243 475l-418 453q-39 43 -55 88.5t-9.5 81.5t31 62.5t60 35.5t83.5 -5.5t97 -53.5l238 -193q20 -16 40.5 -19.5t33.5 1.5t22 14q46 46 -4 104l-119 138q-78 90 -106.5 135.5t-28.5 97.5q0 75 50 123.5t136 48.5q108 0 156.5 -66.5t48.5 -203.5v-768q0 -580 -680 -580
q-206 0 -363.5 77t-245 221.5t-87.5 336.5v664q0 167 59.5 243t179.5 76q78 0 132.5 -39t74.5 -97t12 -124.5t-44 -120.5l-252 -372q-62 -94 -44.5 -172.5t109.5 -124.5l582 -299q250 -128 346 8q28 40 27.5 86.5t-18 80.5t-44.5 62z" />
    <glyph glyph-name="V" unicode="V" horiz-adv-x="1560" 
d="M768 928l-221 -514q-2 -5 -13.5 -31t-15 -35t-12 -31t-12 -34t-6.5 -28t-3 -28q0 -64 31 -97.5t86 -33.5q30 0 56 15t44 38.5t33.5 54.5t26.5 60.5t21 59.5q3 11 5 16l355 1063q61 184 237 184q81 0 141 -59.5t60 -165.5q0 -25 -6 -49.5t-21.5 -54.5t-25 -46t-34 -53.5
t-30.5 -46.5l-594 -948q-74 -119 -132.5 -157t-143.5 -38q-80 0 -145 48t-91 147l-264 1016q-33 122 -33 170q0 104 71 170.5t167 66.5q85 0 139.5 -52t53.5 -138q-2 -82 -147 -256q-5 -6 -7 -8q-82 -99 -39 -142q6 -6 12 -10.5t13 -5.5t12 -2t12.5 2t12 5t13.5 8.5t13.5 10
t16 12.5t16.5 13l141 113q5 4 21 17t21 17t18.5 14.5t19 14t17.5 11.5t18 11t16 7.5t17.5 6.5t16.5 3.5t17 1.5q49 0 80 -30.5t31 -73.5q0 -24 -10.5 -50.5t-35 -74.5t-40.5 -84z" />
    <glyph glyph-name="V" unicode="v" horiz-adv-x="1560" 
d="M768 928l-221 -514q-2 -5 -13.5 -31t-15 -35t-12 -31t-12 -34t-6.5 -28t-3 -28q0 -64 31 -97.5t86 -33.5q30 0 56 15t44 38.5t33.5 54.5t26.5 60.5t21 59.5q3 11 5 16l355 1063q61 184 237 184q81 0 141 -59.5t60 -165.5q0 -25 -6 -49.5t-21.5 -54.5t-25 -46t-34 -53.5
t-30.5 -46.5l-594 -948q-74 -119 -132.5 -157t-143.5 -38q-80 0 -145 48t-91 147l-264 1016q-33 122 -33 170q0 104 71 170.5t167 66.5q85 0 139.5 -52t53.5 -138q-2 -82 -147 -256q-5 -6 -7 -8q-82 -99 -39 -142q6 -6 12 -10.5t13 -5.5t12 -2t12.5 2t12 5t13.5 8.5t13.5 10
t16 12.5t16.5 13l141 113q5 4 21 17t21 17t18.5 14.5t19 14t17.5 11.5t18 11t16 7.5t17.5 6.5t16.5 3.5t17 1.5q49 0 80 -30.5t31 -73.5q0 -24 -10.5 -50.5t-35 -74.5t-40.5 -84z" />
    <glyph glyph-name="W" unicode="W" horiz-adv-x="2347" 
d="M2095 813l-293 404q-73 100 -73 163q0 88 72 147.5t188 59.5q83 0 138 -56.5t86.5 -197t31.5 -370.5q0 -101 -21 -212.5t-60 -222.5t-100 -211.5t-135 -178t-171.5 -123.5t-203.5 -46q-226 0 -277 154.5t77 419.5l153 325q11 22 11 52q0 45 -43 45q-35 0 -74 -56
l-572 -800q-49 -68 -117 -104t-134 -36q-130 0 -210.5 81t-80.5 229q0 64 10 118l182 914q10 59 -8 92t-57 33t-68.5 -27t-36.5 -82l-49 -373q-14 -125 -115 -125q-30 0 -57 24.5t-27 61.5q0 108 37.5 224.5t103.5 217t169 165.5t221 65q167 0 246.5 -54t79.5 -151
q0 -112 -127 -311l-297 -471q-30 -47 -43 -69.5t-24 -51.5t-11 -55q0 -48 28 -76.5t82 -28.5q38 0 70 29.5t84 106.5l467 698q113 168 237 168q61 0 99.5 -38.5t60.5 -133.5l148 -649q41 -172 153 -172q48 0 85 25.5t77 99.5l80 147q43 75 43 123q0 43 -35 90z" />
    <glyph glyph-name="W" unicode="w" horiz-adv-x="2347" 
d="M2095 813l-293 404q-73 100 -73 163q0 88 72 147.5t188 59.5q83 0 138 -56.5t86.5 -197t31.5 -370.5q0 -101 -21 -212.5t-60 -222.5t-100 -211.5t-135 -178t-171.5 -123.5t-203.5 -46q-226 0 -277 154.5t77 419.5l153 325q11 22 11 52q0 45 -43 45q-35 0 -74 -56
l-572 -800q-49 -68 -117 -104t-134 -36q-130 0 -210.5 81t-80.5 229q0 64 10 118l182 914q10 59 -8 92t-57 33t-68.5 -27t-36.5 -82l-49 -373q-14 -125 -115 -125q-30 0 -57 24.5t-27 61.5q0 108 37.5 224.5t103.5 217t169 165.5t221 65q167 0 246.5 -54t79.5 -151
q0 -112 -127 -311l-297 -471q-30 -47 -43 -69.5t-24 -51.5t-11 -55q0 -48 28 -76.5t82 -28.5q38 0 70 29.5t84 106.5l467 698q113 168 237 168q61 0 99.5 -38.5t60.5 -133.5l148 -649q41 -172 153 -172q48 0 85 25.5t77 99.5l80 147q43 75 43 123q0 43 -35 90z" />
    <glyph glyph-name="X" unicode="X" horiz-adv-x="1634" 
d="M1114 842l19 471q6 145 66.5 206.5t172.5 61.5q99 0 158 -52t59 -124q0 -81 -23.5 -147t-109.5 -164l-448 -510q-52 -57 -52 -103q4 -75 88 -75l324 -3q125 -1 185.5 -63.5t60.5 -165.5q0 -55 -21.5 -97.5t-56.5 -66t-72 -34.5t-73 -11q-65 0 -117.5 16t-110.5 59
t-119.5 121.5t-134.5 200.5l-182 304q-9 15 -26.5 17t-34 -11t-21.5 -37l-82 -430q-21 -114 -79 -173t-167 -59q-88 0 -142 41.5t-65 101.5t16 130t89 123l330 284q47 42 64.5 73t10 70.5t-46.5 94.5l-311 442q-25 36 -53 41t-41 -18t-2 -60l86 -254q21 -71 8 -109t-61 -61
q-26 -10 -59.5 5t-49.5 53q-20 48 -28.5 114t-5 139t25.5 144t58 128.5t98 92.5t141 35q91 0 148 -43t124 -145l381 -584q10 -15 29.5 -17.5t35.5 11t17 37.5z" />
    <glyph glyph-name="X" unicode="x" horiz-adv-x="1634" 
d="M1114 842l19 471q6 145 66.5 206.5t172.5 61.5q99 0 158 -52t59 -124q0 -81 -23.5 -147t-109.5 -164l-448 -510q-52 -57 -52 -103q4 -75 88 -75l324 -3q125 -1 185.5 -63.5t60.5 -165.5q0 -55 -21.5 -97.5t-56.5 -66t-72 -34.5t-73 -11q-65 0 -117.5 16t-110.5 59
t-119.5 121.5t-134.5 200.5l-182 304q-9 15 -26.5 17t-34 -11t-21.5 -37l-82 -430q-21 -114 -79 -173t-167 -59q-88 0 -142 41.5t-65 101.5t16 130t89 123l330 284q47 42 64.5 73t10 70.5t-46.5 94.5l-311 442q-25 36 -53 41t-41 -18t-2 -60l86 -254q21 -71 8 -109t-61 -61
q-26 -10 -59.5 5t-49.5 53q-20 48 -28.5 114t-5 139t25.5 144t58 128.5t98 92.5t141 35q91 0 148 -43t124 -145l381 -584q10 -15 29.5 -17.5t35.5 11t17 37.5z" />
    <glyph glyph-name="Y" unicode="Y" horiz-adv-x="1579" 
d="M1133 834l-17 548q-3 118 93 174q82 48 186 25t150 -104q27 -47 26 -107q-1 -39 -22.5 -93.5t-43 -92.5t-59.5 -99l-502 -823q-178 -293 -348 -293q-86 0 -148 45t-79.5 109.5t-6.5 129.5t71 110t153 45h192q49 0 77.5 10t34.5 26t1.5 32.5t-17.5 33.5l-630 844
q-27 36 -57.5 36.5t-45 -27.5t-0.5 -65l92 -239q55 -144 -55 -182q-24 -8 -56 11t-48 60q-16 42 -24.5 96.5t-7.5 115.5t11 121.5t33.5 115.5t57 97.5t84 67.5t112.5 25q83 0 136 -40.5t126 -145.5l412 -594q28 -39 51.5 -51.5t38 -1.5t22.5 32.5t7 47.5z" />
    <glyph glyph-name="Y" unicode="y" horiz-adv-x="1579" 
d="M1133 834l-17 548q-3 118 93 174q82 48 186 25t150 -104q27 -47 26 -107q-1 -39 -22.5 -93.5t-43 -92.5t-59.5 -99l-502 -823q-178 -293 -348 -293q-86 0 -148 45t-79.5 109.5t-6.5 129.5t71 110t153 45h192q49 0 77.5 10t34.5 26t1.5 32.5t-17.5 33.5l-630 844
q-27 36 -57.5 36.5t-45 -27.5t-0.5 -65l92 -239q55 -144 -55 -182q-24 -8 -56 11t-48 60q-16 42 -24.5 96.5t-7.5 115.5t11 121.5t33.5 115.5t57 97.5t84 67.5t112.5 25q83 0 136 -40.5t126 -145.5l412 -594q28 -39 51.5 -51.5t38 -1.5t22.5 32.5t7 47.5z" />
    <glyph glyph-name="Z" unicode="Z" horiz-adv-x="1695" 
d="M750 598l667 -203q85 -30 124.5 -85t39.5 -115q0 -88 -55 -158t-152 -70q-60 0 -132.5 31t-131.5 92l-397 414q-41 41 -74 41q-29 0 -44 -28t-15 -97v-139q0 -125 -58 -217.5t-162 -92.5q-109 0 -179 58t-70 145q0 103 94 197l993 989q22 22 23.5 49.5t-14.5 45.5t-41 25
t-56 -12l-528 -315q-149 -90 -267 -90q-93 0 -149.5 61t-63.5 183q-4 65 19 114.5t68 78t104 42.5t131 14h774q186 0 290.5 -70.5t104.5 -178.5q0 -98 -90.5 -195t-263.5 -170l-489 -207q-56 -24 -57 -71.5t57 -65.5z" />
    <glyph glyph-name="Z" unicode="z" horiz-adv-x="1695" 
d="M750 598l667 -203q85 -30 124.5 -85t39.5 -115q0 -88 -55 -158t-152 -70q-60 0 -132.5 31t-131.5 92l-397 414q-41 41 -74 41q-29 0 -44 -28t-15 -97v-139q0 -125 -58 -217.5t-162 -92.5q-109 0 -179 58t-70 145q0 103 94 197l993 989q22 22 23.5 49.5t-14.5 45.5t-41 25
t-56 -12l-528 -315q-149 -90 -267 -90q-93 0 -149.5 61t-63.5 183q-4 65 19 114.5t68 78t104 42.5t131 14h774q186 0 290.5 -70.5t104.5 -178.5q0 -98 -90.5 -195t-263.5 -170l-489 -207q-56 -24 -57 -71.5t57 -65.5z" />
    <glyph glyph-name="bracketleft" unicode="[" horiz-adv-x="921" 
d="M475 -10l215 92q77 33 134 -16t57 -134q0 -72 -41.5 -110t-107.5 -36.5t-148 28.5l-168 61q-126 50 -189 151.5t-63 284.5v908q0 183 63 284.5t189 151.5l168 61q82 26 148 27t107.5 -36.5t41.5 -109.5q0 -85 -57 -132.5t-134 -16.5l-215 92q-76 37 -115 5.5t-10 -113.5
q41 -122 57 -395t0.5 -546.5t-57.5 -392.5q-29 -81 9.5 -111.5t115.5 3.5z" />
    <glyph glyph-name="backslash" unicode="\" horiz-adv-x="868" 
d="M96 1550l719 -1357q44 -81 28 -141.5t-91 -78.5q-59 -14 -105 19.5t-84 132.5l-543 1395q-11 35 -1 54.5t35 13t42 -37.5z" />
    <glyph glyph-name="bracketright" unicode="]" horiz-adv-x="921" 
d="M231 82l215 -92q77 -34 115.5 -3.5t9.5 111.5q-42 119 -57.5 392.5t0.5 546.5t57 395q29 82 -10 113.5t-115 -5.5l-215 -92q-77 -31 -133.5 16.5t-56.5 132.5q0 72 41.5 109.5t107.5 36.5t148 -27l168 -61q126 -50 189 -151.5t63 -284.5v-908q0 -183 -63 -284.5
t-189 -151.5l-168 -61q-82 -27 -148 -28.5t-107.5 36.5t-41.5 110q0 85 56.5 134t133.5 16z" />
    <glyph glyph-name="asciicircum" unicode="^" horiz-adv-x="1228" 
d="M606 1524q-37 0 -63 -39l-140 -199q-36 -53 -66 -72.5t-65 -19.5q-73 0 -115 51t-42 144q0 77 37 126t120 56q185 17 334 14q149 3 334 -14q82 -7 120 -56.5t38 -125.5q0 -93 -42.5 -144t-115.5 -51q-36 0 -66.5 19.5t-66.5 72.5l-137 199q-29 39 -64 39z" />
    <glyph glyph-name="underscore" unicode="_" horiz-adv-x="1732" 
d="M1358 -276l-1227 14q-26 0 -39.5 18.5t-2 38.5t45.5 25l1143 149q111 15 160 -2.5t63 -75.5q17 -68 -19 -118t-124 -49z" />
    <glyph glyph-name="grave" unicode="`" horiz-adv-x="1228" 
d="M672 1647l-375 71q-83 16 -112 66t-9 114q22 72 97 91.5t137 -31.5l299 -246q21 -17 7.5 -44t-44.5 -21z" />
    <glyph glyph-name="braceleft" unicode="{" horiz-adv-x="862" 
d="M373 565l377 -495q86 -103 43 -193q-29 -61 -99 -83q-78 -23 -136 22q-62 50 -62 161v211q0 158 -125 224l-140 75q-104 61 -147 120.5t-43 158.5t42.5 158t147.5 120l140 76q125 66 125 223v211q0 132 85 175q64 33 136 -1q68 -32 85 -98q19 -81 -52 -168l-377 -495
q-46 -60 -64.5 -103t-17.5 -98q-1 -55 17.5 -98t64.5 -103z" />
    <glyph glyph-name="braceright" unicode="}" horiz-adv-x="862" 
d="M492 1120l139 -76q105 -61 147.5 -120t42.5 -158t-43 -158.5t-147 -120.5l-139 -75q-125 -66 -125 -224v-211q0 -132 -85 -175q-64 -32 -136 1q-68 32 -85 98q-21 81 52 169l376 495q46 60 64.5 103t17.5 98q1 55 -17.5 98t-64.5 103l-376 495q-86 103 -43 193
q29 61 99 82q78 23 136 -22q62 -51 62 -161v-211q0 -157 125 -223z" />
    <glyph glyph-name="exclamdown" unicode="&#xa1;" horiz-adv-x="739" 
d="M252 1339q-26 75 -1 127.5t85 79.5q51 22 101.5 32.5t102 9t91.5 -29t57 -79.5q12 -43 13 -79.5t-28.5 -72.5t-90.5 -63q-266 -113 -330 75zM86 373l297 604q26 57 63 53q43 -3 46 -65l22 -621q2 -64 -3.5 -115.5t-23.5 -101.5t-48.5 -83.5t-83 -54t-122.5 -20.5
q-77 0 -124.5 40t-60 101.5t-3 131t40.5 131.5z" />
    <glyph glyph-name="sterling" unicode="&#xa3;" horiz-adv-x="1734" 
d="M973 473l475 -111q35 -8 61 0.5t36.5 27.5t7.5 45.5t-21 53.5l-90 134q-51 82 -20 138t106 56q68 0 118 -48t33 -128l-86 -430q-26 -130 -74 -186t-133 -56q-155 0 -247 127l-131 185q-38 49 -69.5 45t-55.5 -52l-43 -88q-46 -94 -130 -156.5t-178 -62.5
q-229 0 -370.5 140.5t-141.5 388.5q0 63 20.5 111t55.5 75.5t77 41t89 13.5q110 0 219 -88l262 -209q79 -65 119 -30q36 31 -31 114l-409 500q-121 143 -121 264q0 52 13.5 93.5t52.5 81.5t103.5 66t171 42t249.5 16q255 0 404.5 -88.5t142.5 -247.5q-4 -63 -47.5 -106.5
t-113 -49t-159.5 45.5l-446 270q-50 30 -99.5 35t-87.5 -12.5t-62 -59.5t-24 -100q0 -87 56.5 -148.5t142.5 -81.5l479 -104q83 -18 120.5 -42t37.5 -64q0 -32 -43 -71t-102 -69l-132 -65q-39 -20 -50 -54t7.5 -63.5t57.5 -38.5zM688 385l-141 111q-101 81 -193 -31
l-129 -156q-23 -34 -23 -69.5t28 -60.5t71 -17l320 61q61 12 87.5 42t19 62.5t-39.5 57.5z" />
    <glyph glyph-name="dieresis" unicode="&#xa8;" horiz-adv-x="1228" 
d="M387 1710q-75 -12 -110.5 14t-49.5 80q-11 42 3.5 77.5t47 58t70.5 37t80 20.5q50 8 88.5 -15t52.5 -84q11 -44 -0.5 -78.5t-40.5 -56t-63.5 -34t-77.5 -19.5zM758 1745q-48 21 -71.5 49.5t-22.5 57t10 61.5q14 41 45 62.5t71 22.5t79.5 -8t78.5 -26q105 -50 66 -160
q-15 -43 -44 -66t-65.5 -25t-72 6t-74.5 26z" />
    <glyph glyph-name="guillemotleft" unicode="&#xab;" horiz-adv-x="1423" 
d="M281 782l544 -606q1 -1 4.5 -5t4.5 -5t3.5 -4.5t3 -5.5t1.5 -5t0 -5.5t-2 -6t-4 -6.5q-16 -23 -50 -2l-641 414q-77 51 -82.5 140.5t70.5 158.5l580 502q143 124 227 16q30 -38 38.5 -80t-14.5 -83.5t-79 -65.5l-574 -252q-34 -15 -43 -45.5t13 -53.5zM1305 1081
l-521 -419q-26 -22 -14.5 -56t47.5 -43l393 -96q59 -15 81 -56.5t12 -87t-39 -85.5q-85 -113 -228 16l-399 356q-44 39 -51.5 91t17 94.5t67.5 62.5l596 268q2 1 8 3.5t8 3t7 2t7.5 1t6 -1t6.5 -3.5t6 -7q16 -21 -10 -43z" />
    <glyph glyph-name="macron" unicode="&#xaf;" horiz-adv-x="1228" 
d="M891 1704l-551 14q-47 2 -68.5 17t-21.5 49q0 65 94 78l467 67q112 17 160.5 -1.5t62.5 -76.5q16 -66 -19 -108t-124 -39z" />
    <glyph glyph-name="degree" unicode="&#xb0;" horiz-adv-x="833" 
d="M418 1587q145 0 219 -71.5t74 -210.5t-74 -210t-219 -71t-220 71t-75 210t75 210.5t220 71.5zM375 1458l-105 -112q-28 -31 -20 -61t47 -48l147 -66q52 -23 86 1t13 83l-58 175q-12 37 -47 47t-63 -19z" />
    <glyph glyph-name="acute" unicode="&#xb4;" horiz-adv-x="1228" 
d="M905 1718l-375 -71q-31 -6 -44 21t8 44l299 246q62 51 136.5 31.5t96.5 -91.5q20 -64 -9 -114t-112 -66z" />
    <glyph glyph-name="periodcentered" unicode="&#xb7;" horiz-adv-x="577" 
d="M516 768q-6 -80 -50 -117t-110 -37q-43 0 -84 6t-82 21t-70.5 37t-46 58t-12.5 81q7 73 47 113.5t138 40.5q56 0 102 -9t88 -30.5t63.5 -63t16.5 -100.5z" />
    <glyph glyph-name="cedilla" unicode="&#xb8;" horiz-adv-x="1228" 
d="M242 -231q7 48 40.5 77t78 28t81.5 -32l47 -39l95 240h106q-34 -96 -33 -108.5t21 -12.5q13 0 49.5 9.5t65.5 9.5q66 0 122 -47t56 -111q0 -81 -71.5 -131t-184 -58.5t-250.5 13.5q-120 24 -176 62.5t-47 99.5zM696 -317q68 0 116 29.5t48 66.5q0 28 -18.5 43.5
t-50.5 15.5q-74 0 -144 -45q-25 -16 -28 -42.5t18.5 -47t58.5 -20.5z" />
    <glyph glyph-name="ordmasculine" unicode="&#xba;" horiz-adv-x="1064" 
d="M545 1587q192 0 290.5 -95.5t98.5 -281.5q0 -372 -389 -372q-196 0 -305 94.5t-109 277.5t109.5 280t304.5 97zM582 1020l139 151q36 41 26 81t-61 63l-197 88q-69 31 -112.5 -1.5t-18.5 -111.5l76 -231q10 -31 35.5 -50t57 -16.5t55.5 27.5zM754 436l-551 15
q-26 1 -38.5 16t-2 34.5t44.5 30.5l467 150q190 60 223 -78q17 -68 -19 -119.5t-124 -48.5z" />
    <glyph glyph-name="guillemotright" unicode="&#xbb;" horiz-adv-x="1423" 
d="M565 176l545 606q22 23 12.5 53.5t-43.5 45.5l-573 252q-56 24 -79 65.5t-14.5 83.5t38.5 80q84 108 227 -16l579 -502q76 -69 70.5 -158.5t-82.5 -140.5l-641 -414q-33 -21 -49 2q-5 6 -6.5 11.5t2.5 12.5t5 8.5t9 10.5zM606 662l-520 419q-26 22 -10 43q3 5 7.5 7.5
t7 4t8 0t7.5 -2t10 -3.5t9 -4l596 -268q43 -20 67.5 -62.5t17 -94.5t-51.5 -91l-400 -356q-143 -128 -227 -16q-21 29 -32 63t-9 67.5t25.5 60.5t68.5 38l393 96q36 9 47.5 43t-14.5 56z" />
    <glyph glyph-name="questiondown" unicode="&#xbf;" horiz-adv-x="1380" 
d="M555 1438q6 79 50 116t110 37q55 0 105.5 -10t97 -32t72 -63t20.5 -97q-7 -73 -47 -113.5t-138 -40.5q-56 0 -102 9t-88 30.5t-63.5 63t-16.5 100.5zM961 991l-562 -674q-75 -78 -75 -143q0 -36 25.5 -56t66.5 -20q51 0 123 45l440 279q103 65 199 65q69 0 111.5 -36
t49.5 -129q7 -94 -42.5 -165.5t-143.5 -114.5t-216 -64t-267 -21q-97 0 -184 14t-165.5 45.5t-135.5 78t-90.5 117t-33.5 157.5q0 63 17.5 116t44.5 93.5t77 83t97.5 74t122.5 75.5l473 281q15 10 35 10q24 0 38.5 -17t14.5 -41q0 -30 -20 -53z" />
    <glyph glyph-name="Agrave" unicode="&#xc0;" horiz-adv-x="1638" 
d="M1151 1647l-375 71q-83 16 -112 66t-9 114q22 72 97 91.5t137 -31.5l299 -246q21 -17 7.5 -44t-44.5 -21zM389 465l529 12q97 2 147.5 29t58.5 100l88 725q10 84 -26 132t-101 36q-30 -6 -59.5 -31.5t-58 -72t-39.5 -67t-33 -64.5l-248 -508q-31 -63 -79.5 -101.5
t-90 -49.5t-86.5 -11q-91 0 -155 66t-64 161q0 118 156 244l411 328q146 116 218.5 155t166.5 39q91 0 152 -60.5t82 -166.5l186 -985q34 -180 -25.5 -293t-211.5 -113q-120 0 -184 66t-64 166v106q0 82 -38.5 98t-92.5 -32l-201 -172q-9 -7 -43 -37t-52 -45t-53.5 -42
t-63 -42.5t-62.5 -32.5t-70 -25t-70 -8q-47 0 -90 14t-80.5 43t-59.5 81.5t-22 121.5q0 116 91 174.5t237 61.5z" />
    <glyph glyph-name="Agrave" unicode="&#xe0;" horiz-adv-x="1638" 
d="M1151 1647l-375 71q-83 16 -112 66t-9 114q22 72 97 91.5t137 -31.5l299 -246q21 -17 7.5 -44t-44.5 -21zM389 465l529 12q97 2 147.5 29t58.5 100l88 725q10 84 -26 132t-101 36q-30 -6 -59.5 -31.5t-58 -72t-39.5 -67t-33 -64.5l-248 -508q-31 -63 -79.5 -101.5
t-90 -49.5t-86.5 -11q-91 0 -155 66t-64 161q0 118 156 244l411 328q146 116 218.5 155t166.5 39q91 0 152 -60.5t82 -166.5l186 -985q34 -180 -25.5 -293t-211.5 -113q-120 0 -184 66t-64 166v106q0 82 -38.5 98t-92.5 -32l-201 -172q-9 -7 -43 -37t-52 -45t-53.5 -42
t-63 -42.5t-62.5 -32.5t-70 -25t-70 -8q-47 0 -90 14t-80.5 43t-59.5 81.5t-22 121.5q0 116 91 174.5t237 61.5z" />
    <glyph glyph-name="Aacute" unicode="&#xc1;" horiz-adv-x="1638" 
d="M1384 1718l-374 -71q-31 -6 -44.5 21t7.5 44l299 246q62 51 136.5 31.5t96.5 -91.5q20 -64 -9 -114t-112 -66zM389 465l529 12q97 2 147.5 29t58.5 100l88 725q10 84 -26 132t-101 36q-30 -6 -59.5 -31.5t-58 -72t-39.5 -67t-33 -64.5l-248 -508q-31 -63 -79.5 -101.5
t-90 -49.5t-86.5 -11q-91 0 -155 66t-64 161q0 118 156 244l411 328q146 116 218.5 155t166.5 39q91 0 152 -60.5t82 -166.5l186 -985q34 -180 -25.5 -293t-211.5 -113q-120 0 -184 66t-64 166v106q0 82 -38.5 98t-92.5 -32l-201 -172q-9 -7 -43 -37t-52 -45t-53.5 -42
t-63 -42.5t-62.5 -32.5t-70 -25t-70 -8q-47 0 -90 14t-80.5 43t-59.5 81.5t-22 121.5q0 116 91 174.5t237 61.5z" />
    <glyph glyph-name="Aacute" unicode="&#xe1;" horiz-adv-x="1638" 
d="M1384 1718l-374 -71q-31 -6 -44.5 21t7.5 44l299 246q62 51 136.5 31.5t96.5 -91.5q20 -64 -9 -114t-112 -66zM389 465l529 12q97 2 147.5 29t58.5 100l88 725q10 84 -26 132t-101 36q-30 -6 -59.5 -31.5t-58 -72t-39.5 -67t-33 -64.5l-248 -508q-31 -63 -79.5 -101.5
t-90 -49.5t-86.5 -11q-91 0 -155 66t-64 161q0 118 156 244l411 328q146 116 218.5 155t166.5 39q91 0 152 -60.5t82 -166.5l186 -985q34 -180 -25.5 -293t-211.5 -113q-120 0 -184 66t-64 166v106q0 82 -38.5 98t-92.5 -32l-201 -172q-9 -7 -43 -37t-52 -45t-53.5 -42
t-63 -42.5t-62.5 -32.5t-70 -25t-70 -8q-47 0 -90 14t-80.5 43t-59.5 81.5t-22 121.5q0 116 91 174.5t237 61.5z" />
    <glyph glyph-name="Acircumflex" unicode="&#xc2;" horiz-adv-x="1638" 
d="M1092 1937q-32 0 -54 -32l-114 -166q-31 -44 -56 -60t-55 -16q-61 0 -96 42.5t-35 119.5q0 63 31.5 104t99.5 47q175 15 279 13q103 2 278 -13q68 -6 99.5 -47t31.5 -104q0 -77 -35 -119.5t-96 -42.5q-29 0 -54 16t-56 60l-115 166q-22 32 -53 32zM389 465l529 12
q97 2 147.5 29t58.5 100l88 725q10 84 -26 132t-101 36q-30 -6 -59.5 -31.5t-58 -72t-39.5 -67t-33 -64.5l-248 -508q-31 -63 -79.5 -101.5t-90 -49.5t-86.5 -11q-91 0 -155 66t-64 161q0 118 156 244l411 328q146 116 218.5 155t166.5 39q91 0 152 -60.5t82 -166.5
l186 -985q34 -180 -25.5 -293t-211.5 -113q-120 0 -184 66t-64 166v106q0 82 -38.5 98t-92.5 -32l-201 -172q-9 -7 -43 -37t-52 -45t-53.5 -42t-63 -42.5t-62.5 -32.5t-70 -25t-70 -8q-47 0 -90 14t-80.5 43t-59.5 81.5t-22 121.5q0 116 91 174.5t237 61.5z" />
    <glyph glyph-name="Acircumflex" unicode="&#xe2;" horiz-adv-x="1638" 
d="M1092 1937q-32 0 -54 -32l-114 -166q-31 -44 -56 -60t-55 -16q-61 0 -96 42.5t-35 119.5q0 63 31.5 104t99.5 47q175 15 279 13q103 2 278 -13q68 -6 99.5 -47t31.5 -104q0 -77 -35 -119.5t-96 -42.5q-29 0 -54 16t-56 60l-115 166q-22 32 -53 32zM389 465l529 12
q97 2 147.5 29t58.5 100l88 725q10 84 -26 132t-101 36q-30 -6 -59.5 -31.5t-58 -72t-39.5 -67t-33 -64.5l-248 -508q-31 -63 -79.5 -101.5t-90 -49.5t-86.5 -11q-91 0 -155 66t-64 161q0 118 156 244l411 328q146 116 218.5 155t166.5 39q91 0 152 -60.5t82 -166.5
l186 -985q34 -180 -25.5 -293t-211.5 -113q-120 0 -184 66t-64 166v106q0 82 -38.5 98t-92.5 -32l-201 -172q-9 -7 -43 -37t-52 -45t-53.5 -42t-63 -42.5t-62.5 -32.5t-70 -25t-70 -8q-47 0 -90 14t-80.5 43t-59.5 81.5t-22 121.5q0 116 91 174.5t237 61.5z" />
    <glyph glyph-name="Atilde" unicode="&#xc3;" horiz-adv-x="1638" 
d="M1126 1835l35 -39q47 -50 80 0l78 113q34 48 85.5 58t92.5 -17.5t47 -79.5q9 -76 -27 -124t-102 -66.5t-166 -18.5q-57 0 -105 27.5t-102 93.5l-38 47q-44 53 -80 0l-78 -113q-28 -41 -77.5 -53.5t-95 9.5t-61.5 73q-16 47 -5.5 83.5t36.5 62t69 42t93.5 24t109.5 7.5
q54 0 101 -29t110 -100zM389 465l529 12q97 2 147.5 29t58.5 100l88 725q10 84 -26 132t-101 36q-30 -6 -59.5 -31.5t-58 -72t-39.5 -67t-33 -64.5l-248 -508q-31 -63 -79.5 -101.5t-90 -49.5t-86.5 -11q-91 0 -155 66t-64 161q0 118 156 244l411 328q146 116 218.5 155
t166.5 39q91 0 152 -60.5t82 -166.5l186 -985q34 -180 -25.5 -293t-211.5 -113q-120 0 -184 66t-64 166v106q0 82 -38.5 98t-92.5 -32l-201 -172q-9 -7 -43 -37t-52 -45t-53.5 -42t-63 -42.5t-62.5 -32.5t-70 -25t-70 -8q-47 0 -90 14t-80.5 43t-59.5 81.5t-22 121.5
q0 116 91 174.5t237 61.5z" />
    <glyph glyph-name="Atilde" unicode="&#xe3;" horiz-adv-x="1638" 
d="M1126 1835l35 -39q47 -50 80 0l78 113q34 48 85.5 58t92.5 -17.5t47 -79.5q9 -76 -27 -124t-102 -66.5t-166 -18.5q-57 0 -105 27.5t-102 93.5l-38 47q-44 53 -80 0l-78 -113q-28 -41 -77.5 -53.5t-95 9.5t-61.5 73q-16 47 -5.5 83.5t36.5 62t69 42t93.5 24t109.5 7.5
q54 0 101 -29t110 -100zM389 465l529 12q97 2 147.5 29t58.5 100l88 725q10 84 -26 132t-101 36q-30 -6 -59.5 -31.5t-58 -72t-39.5 -67t-33 -64.5l-248 -508q-31 -63 -79.5 -101.5t-90 -49.5t-86.5 -11q-91 0 -155 66t-64 161q0 118 156 244l411 328q146 116 218.5 155
t166.5 39q91 0 152 -60.5t82 -166.5l186 -985q34 -180 -25.5 -293t-211.5 -113q-120 0 -184 66t-64 166v106q0 82 -38.5 98t-92.5 -32l-201 -172q-9 -7 -43 -37t-52 -45t-53.5 -42t-63 -42.5t-62.5 -32.5t-70 -25t-70 -8q-47 0 -90 14t-80.5 43t-59.5 81.5t-22 121.5
q0 116 91 174.5t237 61.5z" />
    <glyph glyph-name="Adieresis" unicode="&#xc4;" horiz-adv-x="1638" 
d="M866 1710q-75 -12 -110 13.5t-49 80.5q-11 42 3 77.5t46.5 58t70.5 37t80 20.5q50 8 89 -15t53 -84q11 -44 -0.5 -78.5t-41 -56t-64 -34t-77.5 -19.5zM1237 1745q-48 21 -71.5 49.5t-22.5 57t10 61.5q14 41 45 62.5t71 22.5t79.5 -8t78.5 -26q105 -50 66 -160
q-15 -43 -44 -66t-65.5 -25t-72 6t-74.5 26zM389 465l529 12q97 2 147.5 29t58.5 100l88 725q10 84 -26 132t-101 36q-30 -6 -59.5 -31.5t-58 -72t-39.5 -67t-33 -64.5l-248 -508q-31 -63 -79.5 -101.5t-90 -49.5t-86.5 -11q-91 0 -155 66t-64 161q0 118 156 244l411 328
q146 116 218.5 155t166.5 39q91 0 152 -60.5t82 -166.5l186 -985q34 -180 -25.5 -293t-211.5 -113q-120 0 -184 66t-64 166v106q0 82 -38.5 98t-92.5 -32l-201 -172q-9 -7 -43 -37t-52 -45t-53.5 -42t-63 -42.5t-62.5 -32.5t-70 -25t-70 -8q-47 0 -90 14t-80.5 43
t-59.5 81.5t-22 121.5q0 116 91 174.5t237 61.5z" />
    <glyph glyph-name="Adieresis" unicode="&#xe4;" horiz-adv-x="1638" 
d="M866 1710q-75 -12 -110 13.5t-49 80.5q-11 42 3 77.5t46.5 58t70.5 37t80 20.5q50 8 89 -15t53 -84q11 -44 -0.5 -78.5t-41 -56t-64 -34t-77.5 -19.5zM1237 1745q-48 21 -71.5 49.5t-22.5 57t10 61.5q14 41 45 62.5t71 22.5t79.5 -8t78.5 -26q105 -50 66 -160
q-15 -43 -44 -66t-65.5 -25t-72 6t-74.5 26zM389 465l529 12q97 2 147.5 29t58.5 100l88 725q10 84 -26 132t-101 36q-30 -6 -59.5 -31.5t-58 -72t-39.5 -67t-33 -64.5l-248 -508q-31 -63 -79.5 -101.5t-90 -49.5t-86.5 -11q-91 0 -155 66t-64 161q0 118 156 244l411 328
q146 116 218.5 155t166.5 39q91 0 152 -60.5t82 -166.5l186 -985q34 -180 -25.5 -293t-211.5 -113q-120 0 -184 66t-64 166v106q0 82 -38.5 98t-92.5 -32l-201 -172q-9 -7 -43 -37t-52 -45t-53.5 -42t-63 -42.5t-62.5 -32.5t-70 -25t-70 -8q-47 0 -90 14t-80.5 43
t-59.5 81.5t-22 121.5q0 116 91 174.5t237 61.5z" />
    <glyph glyph-name="Aring" unicode="&#xc5;" horiz-adv-x="1638" 
d="M1018 1673q-60 11 -99 30t-54.5 42t-20.5 50.5t2 57.5q32 168 352 115q79 -13 121 -56.5t29 -117.5q-31 -176 -330 -121zM1137 1743q70 20 59 94q-5 36 -31.5 54t-58.5 16.5t-64 -9.5q-55 -18 -47 -92q12 -98 142 -63zM389 465l529 12q97 2 147.5 29t58.5 100l88 725
q10 84 -26 132t-101 36q-30 -6 -59.5 -31.5t-58 -72t-39.5 -67t-33 -64.5l-248 -508q-31 -63 -79.5 -101.5t-90 -49.5t-86.5 -11q-91 0 -155 66t-64 161q0 118 156 244l411 328q146 116 218.5 155t166.5 39q91 0 152 -60.5t82 -166.5l186 -985q34 -180 -25.5 -293
t-211.5 -113q-120 0 -184 66t-64 166v106q0 82 -38.5 98t-92.5 -32l-201 -172q-9 -7 -43 -37t-52 -45t-53.5 -42t-63 -42.5t-62.5 -32.5t-70 -25t-70 -8q-47 0 -90 14t-80.5 43t-59.5 81.5t-22 121.5q0 116 91 174.5t237 61.5z" />
    <glyph glyph-name="Aring" unicode="&#xe5;" horiz-adv-x="1638" 
d="M1018 1673q-60 11 -99 30t-54.5 42t-20.5 50.5t2 57.5q32 168 352 115q79 -13 121 -56.5t29 -117.5q-31 -176 -330 -121zM1137 1743q70 20 59 94q-5 36 -31.5 54t-58.5 16.5t-64 -9.5q-55 -18 -47 -92q12 -98 142 -63zM389 465l529 12q97 2 147.5 29t58.5 100l88 725
q10 84 -26 132t-101 36q-30 -6 -59.5 -31.5t-58 -72t-39.5 -67t-33 -64.5l-248 -508q-31 -63 -79.5 -101.5t-90 -49.5t-86.5 -11q-91 0 -155 66t-64 161q0 118 156 244l411 328q146 116 218.5 155t166.5 39q91 0 152 -60.5t82 -166.5l186 -985q34 -180 -25.5 -293
t-211.5 -113q-120 0 -184 66t-64 166v106q0 82 -38.5 98t-92.5 -32l-201 -172q-9 -7 -43 -37t-52 -45t-53.5 -42t-63 -42.5t-62.5 -32.5t-70 -25t-70 -8q-47 0 -90 14t-80.5 43t-59.5 81.5t-22 121.5q0 116 91 174.5t237 61.5z" />
    <glyph glyph-name="AE" unicode="&#xc6;" horiz-adv-x="2838" 
d="M1358 1360l51 -262q16 -82 68 -82q29 0 46.5 8t45.5 33l452 397q142 127 273 127q93 0 154 -66t61 -159q0 -171 -260 -236l-695 -170q-53 -12 -77.5 -33.5t-18.5 -52.5q6 -34 35.5 -44.5t89.5 -0.5l993 174q103 18 162.5 -25t59.5 -151q0 -105 -58 -144.5t-164 -29.5
l-958 88q-62 6 -90.5 -3t-34.5 -42q-6 -32 19 -53.5t77 -32.5l762 -168q260 -58 260 -235q0 -93 -61 -159.5t-154 -66.5q-118 0 -272 121l-482 381q-45 35 -75 35q-20 0 -30 -21t-3 -57l10 -55q34 -181 -25.5 -293.5t-211.5 -112.5q-120 0 -184 66t-64 166v106
q0 82 -38.5 98t-92.5 -32l-201 -172q-9 -7 -43 -37t-52 -45t-53.5 -42t-63 -42.5t-62.5 -32.5t-70 -25t-70 -8q-47 0 -90 14t-80.5 43t-59.5 81.5t-22 121.5q0 116 91 174.5t237 61.5l529 12q97 2 147.5 29t58.5 100l88 725q10 84 -26 132t-101 36q-30 -6 -59.5 -31.5
t-58 -72t-39.5 -67t-33 -64.5l-248 -508q-31 -63 -79.5 -101.5t-90 -49.5t-86.5 -11q-91 0 -155 66t-64 161q0 118 156 244l411 328q146 116 218.5 155t166.5 39q91 0 152 -61t82 -166z" />
    <glyph glyph-name="AE" unicode="&#xe6;" horiz-adv-x="2838" 
d="M1358 1360l51 -262q16 -82 68 -82q29 0 46.5 8t45.5 33l452 397q142 127 273 127q93 0 154 -66t61 -159q0 -171 -260 -236l-695 -170q-53 -12 -77.5 -33.5t-18.5 -52.5q6 -34 35.5 -44.5t89.5 -0.5l993 174q103 18 162.5 -25t59.5 -151q0 -105 -58 -144.5t-164 -29.5
l-958 88q-62 6 -90.5 -3t-34.5 -42q-6 -32 19 -53.5t77 -32.5l762 -168q260 -58 260 -235q0 -93 -61 -159.5t-154 -66.5q-118 0 -272 121l-482 381q-45 35 -75 35q-20 0 -30 -21t-3 -57l10 -55q34 -181 -25.5 -293.5t-211.5 -112.5q-120 0 -184 66t-64 166v106
q0 82 -38.5 98t-92.5 -32l-201 -172q-9 -7 -43 -37t-52 -45t-53.5 -42t-63 -42.5t-62.5 -32.5t-70 -25t-70 -8q-47 0 -90 14t-80.5 43t-59.5 81.5t-22 121.5q0 116 91 174.5t237 61.5l529 12q97 2 147.5 29t58.5 100l88 725q10 84 -26 132t-101 36q-30 -6 -59.5 -31.5
t-58 -72t-39.5 -67t-33 -64.5l-248 -508q-31 -63 -79.5 -101.5t-90 -49.5t-86.5 -11q-91 0 -155 66t-64 161q0 118 156 244l411 328q146 116 218.5 155t166.5 39q91 0 152 -61t82 -166z" />
    <glyph glyph-name="Ccedilla" unicode="&#xc7;" horiz-adv-x="1720" 
d="M1577 412q0 -64 -57 -138t-149 -137.5t-221 -110t-261 -55.5q-7 -21 -8 -31t3.5 -14t16.5 -4q13 0 49.5 9.5t65.5 9.5q66 0 122 -47t56 -111q0 -81 -71.5 -131t-184 -58.5t-250.5 13.5q-120 24 -176 62.5t-47 99.5q7 48 40.5 77t78.5 28t82 -32l47 -39l65 168
q-164 8 -291 71.5t-205.5 169t-118.5 241.5t-40 297q0 241 101.5 432t284.5 298t415 107q143 0 262.5 -42t197.5 -113t121 -163t43 -192q0 -57 -13.5 -103.5t-43 -85t-84 -56t-129.5 -9.5q-49 5 -83.5 28.5t-50.5 55.5t-22.5 74.5t-4.5 79t9 76.5l35 194q13 73 -23 104
t-106 -8l-661 -401q-61 -37 -61.5 -82.5t63.5 -64.5l368 -103q54 -15 90 -53.5t46 -83.5t-15.5 -94t-87.5 -82l-112 -60q-113 -60 -107 -157q5 -76 76 -133q77 -63 166 -51q71 9 123 69l301 352q57 66 122.5 87.5t116 3.5t84 -62t33.5 -100zM1014 -162q-74 0 -144 -45
q-25 -16 -27.5 -42.5t19 -47t58.5 -20.5q68 0 115.5 29.5t47.5 66.5q0 28 -18.5 43.5t-50.5 15.5z" />
    <glyph glyph-name="Ccedilla" unicode="&#xe7;" horiz-adv-x="1720" 
d="M1577 412q0 -64 -57 -138t-149 -137.5t-221 -110t-261 -55.5q-7 -21 -8 -31t3.5 -14t16.5 -4q13 0 49.5 9.5t65.5 9.5q66 0 122 -47t56 -111q0 -81 -71.5 -131t-184 -58.5t-250.5 13.5q-120 24 -176 62.5t-47 99.5q7 48 40.5 77t78.5 28t82 -32l47 -39l65 168
q-164 8 -291 71.5t-205.5 169t-118.5 241.5t-40 297q0 241 101.5 432t284.5 298t415 107q143 0 262.5 -42t197.5 -113t121 -163t43 -192q0 -57 -13.5 -103.5t-43 -85t-84 -56t-129.5 -9.5q-49 5 -83.5 28.5t-50.5 55.5t-22.5 74.5t-4.5 79t9 76.5l35 194q13 73 -23 104
t-106 -8l-661 -401q-61 -37 -61.5 -82.5t63.5 -64.5l368 -103q54 -15 90 -53.5t46 -83.5t-15.5 -94t-87.5 -82l-112 -60q-113 -60 -107 -157q5 -76 76 -133q77 -63 166 -51q71 9 123 69l301 352q57 66 122.5 87.5t116 3.5t84 -62t33.5 -100zM1014 -162q-74 0 -144 -45
q-25 -16 -27.5 -42.5t19 -47t58.5 -20.5q68 0 115.5 29.5t47.5 66.5q0 28 -18.5 43.5t-50.5 15.5z" />
    <glyph glyph-name="Egrave" unicode="&#xc8;" horiz-adv-x="1677" 
d="M958 1647l-374 71q-83 16 -112 66t-9 114q22 72 96.5 91.5t136.5 -31.5l299 -246q21 -17 7.5 -44t-44.5 -21zM475 213l901 80q189 17 189 -113q0 -103 -114.5 -158t-377.5 -55q-198 0 -373 39.5t-308.5 112t-211.5 184.5t-78 248q0 92 52.5 154t136 74.5t186.5 -25.5
l410 -168q37 -16 59.5 -10t33 21t0 39t-39.5 44l-610 424q-144 103 -144 215q0 74 42 127.5t116.5 83t163.5 42.5t197 13q202 1 405.5 -28.5t294.5 -71.5q85 -40 124.5 -94.5t35.5 -139.5q-5 -94 -74 -124t-201 14l-837 293q-50 17 -85 1t-53 -43.5t-18 -52.5
q0 -43 23 -71.5t90 -50.5l798 -254q209 -66 209 -230q0 -82 -50 -140t-159 -71l-733 -90q-172 -22 -172 -117q0 -47 44.5 -78t127.5 -24z" />
    <glyph glyph-name="Egrave" unicode="&#xe8;" horiz-adv-x="1677" 
d="M958 1647l-374 71q-83 16 -112 66t-9 114q22 72 96.5 91.5t136.5 -31.5l299 -246q21 -17 7.5 -44t-44.5 -21zM475 213l901 80q189 17 189 -113q0 -103 -114.5 -158t-377.5 -55q-198 0 -373 39.5t-308.5 112t-211.5 184.5t-78 248q0 92 52.5 154t136 74.5t186.5 -25.5
l410 -168q37 -16 59.5 -10t33 21t0 39t-39.5 44l-610 424q-144 103 -144 215q0 74 42 127.5t116.5 83t163.5 42.5t197 13q202 1 405.5 -28.5t294.5 -71.5q85 -40 124.5 -94.5t35.5 -139.5q-5 -94 -74 -124t-201 14l-837 293q-50 17 -85 1t-53 -43.5t-18 -52.5
q0 -43 23 -71.5t90 -50.5l798 -254q209 -66 209 -230q0 -82 -50 -140t-159 -71l-733 -90q-172 -22 -172 -117q0 -47 44.5 -78t127.5 -24z" />
    <glyph glyph-name="Eacute" unicode="&#xc9;" horiz-adv-x="1677" 
d="M1192 1718l-375 -71q-31 -6 -44.5 21t7.5 44l299 246q62 51 137 31.5t97 -91.5q20 -64 -9 -114t-112 -66zM475 213l901 80q189 17 189 -113q0 -103 -114.5 -158t-377.5 -55q-198 0 -373 39.5t-308.5 112t-211.5 184.5t-78 248q0 92 52.5 154t136 74.5t186.5 -25.5
l410 -168q37 -16 59.5 -10t33 21t0 39t-39.5 44l-610 424q-144 103 -144 215q0 74 42 127.5t116.5 83t163.5 42.5t197 13q202 1 405.5 -28.5t294.5 -71.5q85 -40 124.5 -94.5t35.5 -139.5q-5 -94 -74 -124t-201 14l-837 293q-50 17 -85 1t-53 -43.5t-18 -52.5
q0 -43 23 -71.5t90 -50.5l798 -254q209 -66 209 -230q0 -82 -50 -140t-159 -71l-733 -90q-172 -22 -172 -117q0 -47 44.5 -78t127.5 -24z" />
    <glyph glyph-name="Eacute" unicode="&#xe9;" horiz-adv-x="1677" 
d="M1192 1718l-375 -71q-31 -6 -44.5 21t7.5 44l299 246q62 51 137 31.5t97 -91.5q20 -64 -9 -114t-112 -66zM475 213l901 80q189 17 189 -113q0 -103 -114.5 -158t-377.5 -55q-198 0 -373 39.5t-308.5 112t-211.5 184.5t-78 248q0 92 52.5 154t136 74.5t186.5 -25.5
l410 -168q37 -16 59.5 -10t33 21t0 39t-39.5 44l-610 424q-144 103 -144 215q0 74 42 127.5t116.5 83t163.5 42.5t197 13q202 1 405.5 -28.5t294.5 -71.5q85 -40 124.5 -94.5t35.5 -139.5q-5 -94 -74 -124t-201 14l-837 293q-50 17 -85 1t-53 -43.5t-18 -52.5
q0 -43 23 -71.5t90 -50.5l798 -254q209 -66 209 -230q0 -82 -50 -140t-159 -71l-733 -90q-172 -22 -172 -117q0 -47 44.5 -78t127.5 -24z" />
    <glyph glyph-name="Ecircumflex" unicode="&#xca;" horiz-adv-x="1677" 
d="M899 1937q-31 0 -53 -32l-115 -166q-31 -44 -56 -60t-54 -16q-61 0 -96.5 42.5t-35.5 119.5q0 63 32 104t100 47q175 15 278 13q104 2 279 -13q68 -6 99.5 -47t31.5 -104q0 -77 -35 -119.5t-96 -42.5q-30 0 -55 16t-56 60l-115 166q-22 32 -53 32zM475 213l901 80
q189 17 189 -113q0 -103 -114.5 -158t-377.5 -55q-198 0 -373 39.5t-308.5 112t-211.5 184.5t-78 248q0 92 52.5 154t136 74.5t186.5 -25.5l410 -168q37 -16 59.5 -10t33 21t0 39t-39.5 44l-610 424q-144 103 -144 215q0 74 42 127.5t116.5 83t163.5 42.5t197 13
q202 1 405.5 -28.5t294.5 -71.5q85 -40 124.5 -94.5t35.5 -139.5q-5 -94 -74 -124t-201 14l-837 293q-50 17 -85 1t-53 -43.5t-18 -52.5q0 -43 23 -71.5t90 -50.5l798 -254q209 -66 209 -230q0 -82 -50 -140t-159 -71l-733 -90q-172 -22 -172 -117q0 -47 44.5 -78t127.5 -24
z" />
    <glyph glyph-name="Ecircumflex" unicode="&#xea;" horiz-adv-x="1677" 
d="M899 1937q-31 0 -53 -32l-115 -166q-31 -44 -56 -60t-54 -16q-61 0 -96.5 42.5t-35.5 119.5q0 63 32 104t100 47q175 15 278 13q104 2 279 -13q68 -6 99.5 -47t31.5 -104q0 -77 -35 -119.5t-96 -42.5q-30 0 -55 16t-56 60l-115 166q-22 32 -53 32zM475 213l901 80
q189 17 189 -113q0 -103 -114.5 -158t-377.5 -55q-198 0 -373 39.5t-308.5 112t-211.5 184.5t-78 248q0 92 52.5 154t136 74.5t186.5 -25.5l410 -168q37 -16 59.5 -10t33 21t0 39t-39.5 44l-610 424q-144 103 -144 215q0 74 42 127.5t116.5 83t163.5 42.5t197 13
q202 1 405.5 -28.5t294.5 -71.5q85 -40 124.5 -94.5t35.5 -139.5q-5 -94 -74 -124t-201 14l-837 293q-50 17 -85 1t-53 -43.5t-18 -52.5q0 -43 23 -71.5t90 -50.5l798 -254q209 -66 209 -230q0 -82 -50 -140t-159 -71l-733 -90q-172 -22 -172 -117q0 -47 44.5 -78t127.5 -24
z" />
    <glyph glyph-name="Edieresis" unicode="&#xcb;" horiz-adv-x="1677" 
d="M674 1710q-75 -12 -110.5 14t-49.5 80q-11 42 3.5 77.5t47 58t70.5 37t80 20.5q50 8 88.5 -15t52.5 -84q11 -44 -0.5 -78.5t-40.5 -56t-63.5 -34t-77.5 -19.5zM1044 1745q-48 21 -71 49.5t-22 57t10 61.5q14 41 45 62.5t71 22.5t79.5 -8t78.5 -26q104 -49 65 -160
q-15 -43 -44 -66t-65.5 -25t-72 6t-74.5 26zM475 213l901 80q189 17 189 -113q0 -103 -114.5 -158t-377.5 -55q-198 0 -373 39.5t-308.5 112t-211.5 184.5t-78 248q0 92 52.5 154t136 74.5t186.5 -25.5l410 -168q37 -16 59.5 -10t33 21t0 39t-39.5 44l-610 424
q-144 103 -144 215q0 74 42 127.5t116.5 83t163.5 42.5t197 13q202 1 405.5 -28.5t294.5 -71.5q85 -40 124.5 -94.5t35.5 -139.5q-5 -94 -74 -124t-201 14l-837 293q-50 17 -85 1t-53 -43.5t-18 -52.5q0 -43 23 -71.5t90 -50.5l798 -254q209 -66 209 -230q0 -82 -50 -140
t-159 -71l-733 -90q-172 -22 -172 -117q0 -47 44.5 -78t127.5 -24z" />
    <glyph glyph-name="Edieresis" unicode="&#xeb;" horiz-adv-x="1677" 
d="M674 1710q-75 -12 -110.5 14t-49.5 80q-11 42 3.5 77.5t47 58t70.5 37t80 20.5q50 8 88.5 -15t52.5 -84q11 -44 -0.5 -78.5t-40.5 -56t-63.5 -34t-77.5 -19.5zM1044 1745q-48 21 -71 49.5t-22 57t10 61.5q14 41 45 62.5t71 22.5t79.5 -8t78.5 -26q104 -49 65 -160
q-15 -43 -44 -66t-65.5 -25t-72 6t-74.5 26zM475 213l901 80q189 17 189 -113q0 -103 -114.5 -158t-377.5 -55q-198 0 -373 39.5t-308.5 112t-211.5 184.5t-78 248q0 92 52.5 154t136 74.5t186.5 -25.5l410 -168q37 -16 59.5 -10t33 21t0 39t-39.5 44l-610 424
q-144 103 -144 215q0 74 42 127.5t116.5 83t163.5 42.5t197 13q202 1 405.5 -28.5t294.5 -71.5q85 -40 124.5 -94.5t35.5 -139.5q-5 -94 -74 -124t-201 14l-837 293q-50 17 -85 1t-53 -43.5t-18 -52.5q0 -43 23 -71.5t90 -50.5l798 -254q209 -66 209 -230q0 -82 -50 -140
t-159 -71l-733 -90q-172 -22 -172 -117q0 -47 44.5 -78t127.5 -24z" />
    <glyph glyph-name="Igrave" unicode="&#xcc;" horiz-adv-x="878" 
d="M592 1647l-375 71q-83 16 -112 66t-9 114q22 72 97 91.5t137 -31.5l299 -246q21 -17 7.5 -44t-44.5 -21zM82 1102q0 36 96 147l232 267q62 71 161 71q83 0 144 -53t61 -141q0 -81 -43.5 -127.5t-124.5 -75.5l-225 -78q-39 -12 -39 -47q0 -39 53 -33l140 17
q100 12 157.5 -32.5t53.5 -121t-70 -152.5l-391 -446q-43 -48 -43 -74q0 -32 22.5 -51.5t50.5 -7.5l246 106q33 14 65.5 17.5t61.5 -5.5t48.5 -36t23.5 -70q7 -65 -38 -113.5t-116 -71t-153 -22.5q-172 0 -250.5 102.5t-36.5 258.5l166 606q6 21 6 37q0 34 -25 48.5
t-77 14.5h-88q-68 0 -68 66z" />
    <glyph glyph-name="Igrave" unicode="&#xec;" horiz-adv-x="878" 
d="M592 1647l-375 71q-83 16 -112 66t-9 114q22 72 97 91.5t137 -31.5l299 -246q21 -17 7.5 -44t-44.5 -21zM82 1102q0 36 96 147l232 267q62 71 161 71q83 0 144 -53t61 -141q0 -81 -43.5 -127.5t-124.5 -75.5l-225 -78q-39 -12 -39 -47q0 -39 53 -33l140 17
q100 12 157.5 -32.5t53.5 -121t-70 -152.5l-391 -446q-43 -48 -43 -74q0 -32 22.5 -51.5t50.5 -7.5l246 106q33 14 65.5 17.5t61.5 -5.5t48.5 -36t23.5 -70q7 -65 -38 -113.5t-116 -71t-153 -22.5q-172 0 -250.5 102.5t-36.5 258.5l166 606q6 21 6 37q0 34 -25 48.5
t-77 14.5h-88q-68 0 -68 66z" />
    <glyph glyph-name="Iacute" unicode="&#xcd;" horiz-adv-x="878" 
d="M825 1718l-374 -71q-31 -6 -44.5 21t7.5 44l299 246q62 51 136.5 31.5t96.5 -91.5q20 -64 -9 -114t-112 -66zM82 1102q0 36 96 147l232 267q62 71 161 71q83 0 144 -53t61 -141q0 -81 -43.5 -127.5t-124.5 -75.5l-225 -78q-39 -12 -39 -47q0 -39 53 -33l140 17
q100 12 157.5 -32.5t53.5 -121t-70 -152.5l-391 -446q-43 -48 -43 -74q0 -32 22.5 -51.5t50.5 -7.5l246 106q33 14 65.5 17.5t61.5 -5.5t48.5 -36t23.5 -70q7 -65 -38 -113.5t-116 -71t-153 -22.5q-172 0 -250.5 102.5t-36.5 258.5l166 606q6 21 6 37q0 34 -25 48.5
t-77 14.5h-88q-68 0 -68 66z" />
    <glyph glyph-name="Iacute" unicode="&#xed;" horiz-adv-x="878" 
d="M825 1718l-374 -71q-31 -6 -44.5 21t7.5 44l299 246q62 51 136.5 31.5t96.5 -91.5q20 -64 -9 -114t-112 -66zM82 1102q0 36 96 147l232 267q62 71 161 71q83 0 144 -53t61 -141q0 -81 -43.5 -127.5t-124.5 -75.5l-225 -78q-39 -12 -39 -47q0 -39 53 -33l140 17
q100 12 157.5 -32.5t53.5 -121t-70 -152.5l-391 -446q-43 -48 -43 -74q0 -32 22.5 -51.5t50.5 -7.5l246 106q33 14 65.5 17.5t61.5 -5.5t48.5 -36t23.5 -70q7 -65 -38 -113.5t-116 -71t-153 -22.5q-172 0 -250.5 102.5t-36.5 258.5l166 606q6 21 6 37q0 34 -25 48.5
t-77 14.5h-88q-68 0 -68 66z" />
    <glyph glyph-name="Icircumflex" unicode="&#xce;" horiz-adv-x="878" 
d="M532 1937q-31 0 -53 -32l-114 -166q-31 -44 -56 -60t-55 -16q-61 0 -96 42.5t-35 119.5q0 63 31.5 104t99.5 47q175 15 278 13q104 2 279 -13q68 -6 99.5 -47t31.5 -104q0 -77 -35 -119.5t-96 -42.5q-30 0 -55 16t-56 60l-114 166q-22 32 -54 32zM82 1102q0 36 96 147
l232 267q62 71 161 71q83 0 144 -53t61 -141q0 -81 -43.5 -127.5t-124.5 -75.5l-225 -78q-39 -12 -39 -47q0 -39 53 -33l140 17q100 12 157.5 -32.5t53.5 -121t-70 -152.5l-391 -446q-43 -48 -43 -74q0 -32 22.5 -51.5t50.5 -7.5l246 106q33 14 65.5 17.5t61.5 -5.5
t48.5 -36t23.5 -70q7 -65 -38 -113.5t-116 -71t-153 -22.5q-172 0 -250.5 102.5t-36.5 258.5l166 606q6 21 6 37q0 34 -25 48.5t-77 14.5h-88q-68 0 -68 66z" />
    <glyph glyph-name="Icircumflex" unicode="&#xee;" horiz-adv-x="878" 
d="M532 1937q-31 0 -53 -32l-114 -166q-31 -44 -56 -60t-55 -16q-61 0 -96 42.5t-35 119.5q0 63 31.5 104t99.5 47q175 15 278 13q104 2 279 -13q68 -6 99.5 -47t31.5 -104q0 -77 -35 -119.5t-96 -42.5q-30 0 -55 16t-56 60l-114 166q-22 32 -54 32zM82 1102q0 36 96 147
l232 267q62 71 161 71q83 0 144 -53t61 -141q0 -81 -43.5 -127.5t-124.5 -75.5l-225 -78q-39 -12 -39 -47q0 -39 53 -33l140 17q100 12 157.5 -32.5t53.5 -121t-70 -152.5l-391 -446q-43 -48 -43 -74q0 -32 22.5 -51.5t50.5 -7.5l246 106q33 14 65.5 17.5t61.5 -5.5
t48.5 -36t23.5 -70q7 -65 -38 -113.5t-116 -71t-153 -22.5q-172 0 -250.5 102.5t-36.5 258.5l166 606q6 21 6 37q0 34 -25 48.5t-77 14.5h-88q-68 0 -68 66z" />
    <glyph glyph-name="Idieresis" unicode="&#xcf;" horiz-adv-x="878" 
d="M307 1710q-75 -12 -110.5 14t-49.5 80q-11 42 3.5 77.5t47 58t70.5 37t80 20.5q50 8 88.5 -15t52.5 -84q11 -44 -0.5 -78.5t-40.5 -56t-63.5 -34t-77.5 -19.5zM678 1745q-48 21 -71.5 49.5t-22.5 57t10 61.5q14 41 45 62.5t71 22.5t79.5 -8t78.5 -26q105 -50 66 -160
q-15 -43 -44 -66t-65.5 -25t-72 6t-74.5 26zM82 1102q0 36 96 147l232 267q62 71 161 71q83 0 144 -53t61 -141q0 -81 -43.5 -127.5t-124.5 -75.5l-225 -78q-39 -12 -39 -47q0 -39 53 -33l140 17q100 12 157.5 -32.5t53.5 -121t-70 -152.5l-391 -446q-43 -48 -43 -74
q0 -32 22.5 -51.5t50.5 -7.5l246 106q33 14 65.5 17.5t61.5 -5.5t48.5 -36t23.5 -70q7 -65 -38 -113.5t-116 -71t-153 -22.5q-172 0 -250.5 102.5t-36.5 258.5l166 606q6 21 6 37q0 34 -25 48.5t-77 14.5h-88q-68 0 -68 66z" />
    <glyph glyph-name="Idieresis" unicode="&#xef;" horiz-adv-x="878" 
d="M307 1710q-75 -12 -110.5 14t-49.5 80q-11 42 3.5 77.5t47 58t70.5 37t80 20.5q50 8 88.5 -15t52.5 -84q11 -44 -0.5 -78.5t-40.5 -56t-63.5 -34t-77.5 -19.5zM678 1745q-48 21 -71.5 49.5t-22.5 57t10 61.5q14 41 45 62.5t71 22.5t79.5 -8t78.5 -26q105 -50 66 -160
q-15 -43 -44 -66t-65.5 -25t-72 6t-74.5 26zM82 1102q0 36 96 147l232 267q62 71 161 71q83 0 144 -53t61 -141q0 -81 -43.5 -127.5t-124.5 -75.5l-225 -78q-39 -12 -39 -47q0 -39 53 -33l140 17q100 12 157.5 -32.5t53.5 -121t-70 -152.5l-391 -446q-43 -48 -43 -74
q0 -32 22.5 -51.5t50.5 -7.5l246 106q33 14 65.5 17.5t61.5 -5.5t48.5 -36t23.5 -70q7 -65 -38 -113.5t-116 -71t-153 -22.5q-172 0 -250.5 102.5t-36.5 258.5l166 606q6 21 6 37q0 34 -25 48.5t-77 14.5h-88q-68 0 -68 66z" />
    <glyph glyph-name="Eth" unicode="&#xd0;" horiz-adv-x="1775" 
d="M324 1556h710q324 0 471.5 -199.5t147.5 -588.5q0 -800 -924 -797q-117 1 -210 32.5t-150 81.5t-94.5 116.5t-52.5 131t-15 130.5q0 35 8 63t27 51.5t29.5 34t35.5 31.5q47 42 47 98q0 14 -3 24t-13 21.5t-33.5 18t-58.5 6.5h2l-90 2q-26 0 -39 17t-2.5 37.5t45.5 27.5
l92 23q59 15 93 53.5t34 91.5q0 33 -23.5 56t-72.5 30q-83 14 -125.5 66t-42.5 126q0 86 55.5 150.5t151.5 64.5zM1034 199l355 854q39 100 17 165t-84.5 93t-141.5 12l-512 -104q-205 -43 -205 -132q0 -49 26 -75t80 -17l76 13l266 61q123 28 184 -39q45 -50 29 -117
q-17 -70 -86 -99q-37 -16 -84 -15l-395 6q-147 -8 -151 -94q0 -62 53 -88q125 -61 172 -224l51 -180q21 -75 70.5 -112.5t103 -34.5t103.5 37t73 90z" />
    <glyph glyph-name="Eth" unicode="&#xf0;" horiz-adv-x="1775" 
d="M324 1556h710q324 0 471.5 -199.5t147.5 -588.5q0 -800 -924 -797q-117 1 -210 32.5t-150 81.5t-94.5 116.5t-52.5 131t-15 130.5q0 35 8 63t27 51.5t29.5 34t35.5 31.5q47 42 47 98q0 14 -3 24t-13 21.5t-33.5 18t-58.5 6.5h2l-90 2q-26 0 -39 17t-2.5 37.5t45.5 27.5
l92 23q59 15 93 53.5t34 91.5q0 33 -23.5 56t-72.5 30q-83 14 -125.5 66t-42.5 126q0 86 55.5 150.5t151.5 64.5zM1034 199l355 854q39 100 17 165t-84.5 93t-141.5 12l-512 -104q-205 -43 -205 -132q0 -49 26 -75t80 -17l76 13l266 61q123 28 184 -39q45 -50 29 -117
q-17 -70 -86 -99q-37 -16 -84 -15l-395 6q-147 -8 -151 -94q0 -62 53 -88q125 -61 172 -224l51 -180q21 -75 70.5 -112.5t103 -34.5t103.5 37t73 90z" />
    <glyph glyph-name="Ntilde" unicode="&#xd1;" horiz-adv-x="1806" 
d="M938 1835l35 -39q47 -50 80 0l77 113q34 48 86 58t93 -18t47 -79q9 -76 -27 -124t-102 -66.5t-166 -18.5q-57 0 -105 27.5t-102 93.5l-39 47q-44 53 -80 0l-78 -113q-28 -41 -77 -53.5t-94.5 9.5t-61.5 73q-16 47 -5.5 83.5t36.5 62t69 42t93.5 24t109.5 7.5
q54 0 101 -29t110 -100zM397 -31q-44 0 -80 8t-63 20.5t-47.5 36.5t-34 46t-23 60t-15 68t-8 80.5t-3 86.5t-0.5 96v553q0 138 12 235.5t35 161.5t62.5 100.5t88 51t117.5 14.5q48 0 90.5 -16t75.5 -39.5t71 -69t66.5 -86t71.5 -108.5l485 -760q37 -59 62.5 -83t52.5 -24
q76 0 76 68q0 44 -43 152l-189 485q-23 60 -34.5 114.5t-12 72t-0.5 59.5t11.5 81.5t36.5 75.5t71 58t107 22q73 0 126 -33t79.5 -89.5t36 -123t1.5 -139.5l-104 -948q-17 -149 -70.5 -218t-152.5 -69q-31 0 -57 6t-54 25.5t-47.5 36.5t-53 58t-55 70.5t-67.5 92.5l-340 471
q-72 100 -116 224t-25 241l18 117q11 74 -25 115.5t-96 41.5q-85 0 -133.5 -56t-48.5 -146q0 -42 11.5 -101t25.5 -94l278 -682q35 -86 43 -161.5t-10.5 -133.5t-70 -91.5t-132.5 -33.5z" />
    <glyph glyph-name="Ntilde" unicode="&#xf1;" horiz-adv-x="1806" 
d="M938 1835l35 -39q47 -50 80 0l77 113q34 48 86 58t93 -18t47 -79q9 -76 -27 -124t-102 -66.5t-166 -18.5q-57 0 -105 27.5t-102 93.5l-39 47q-44 53 -80 0l-78 -113q-28 -41 -77 -53.5t-94.5 9.5t-61.5 73q-16 47 -5.5 83.5t36.5 62t69 42t93.5 24t109.5 7.5
q54 0 101 -29t110 -100zM397 -31q-44 0 -80 8t-63 20.5t-47.5 36.5t-34 46t-23 60t-15 68t-8 80.5t-3 86.5t-0.5 96v553q0 138 12 235.5t35 161.5t62.5 100.5t88 51t117.5 14.5q48 0 90.5 -16t75.5 -39.5t71 -69t66.5 -86t71.5 -108.5l485 -760q37 -59 62.5 -83t52.5 -24
q76 0 76 68q0 44 -43 152l-189 485q-23 60 -34.5 114.5t-12 72t-0.5 59.5t11.5 81.5t36.5 75.5t71 58t107 22q73 0 126 -33t79.5 -89.5t36 -123t1.5 -139.5l-104 -948q-17 -149 -70.5 -218t-152.5 -69q-31 0 -57 6t-54 25.5t-47.5 36.5t-53 58t-55 70.5t-67.5 92.5l-340 471
q-72 100 -116 224t-25 241l18 117q11 74 -25 115.5t-96 41.5q-85 0 -133.5 -56t-48.5 -146q0 -42 11.5 -101t25.5 -94l278 -682q35 -86 43 -161.5t-10.5 -133.5t-70 -91.5t-132.5 -33.5z" />
    <glyph glyph-name="Ograve" unicode="&#xd2;" 
d="M901 1647l-375 71q-83 16 -111.5 65.5t-8.5 114.5q22 72 96.5 91.5t136.5 -31.5l299 -246q21 -17 7.5 -44t-44.5 -21zM848 -31q-357 0 -541 205.5t-184 607.5q0 401 183.5 603t541.5 202q359 0 543 -202t184 -603q0 -402 -184.5 -607.5t-542.5 -205.5zM883 147l540 654
q52 63 38.5 124.5t-87.5 90.5l-776 311q-81 33 -146.5 12t-89 -84t2.5 -161l276 -883q16 -52 59 -84t94.5 -28t88.5 48z" />
    <glyph glyph-name="Ograve" unicode="&#xf2;" 
d="M901 1647l-375 71q-83 16 -111.5 65.5t-8.5 114.5q22 72 96.5 91.5t136.5 -31.5l299 -246q21 -17 7.5 -44t-44.5 -21zM848 -31q-357 0 -541 205.5t-184 607.5q0 401 183.5 603t541.5 202q359 0 543 -202t184 -603q0 -402 -184.5 -607.5t-542.5 -205.5zM883 147l540 654
q52 63 38.5 124.5t-87.5 90.5l-776 311q-81 33 -146.5 12t-89 -84t2.5 -161l276 -883q16 -52 59 -84t94.5 -28t88.5 48z" />
    <glyph glyph-name="Oacute" unicode="&#xd3;" 
d="M1135 1718l-375 -71q-31 -6 -44.5 21t7.5 44l299 246q62 51 136.5 31.5t96.5 -91.5q20 -65 -8.5 -114.5t-111.5 -65.5zM848 -31q-357 0 -541 205.5t-184 607.5q0 401 183.5 603t541.5 202q359 0 543 -202t184 -603q0 -402 -184.5 -607.5t-542.5 -205.5zM883 147l540 654
q52 63 38.5 124.5t-87.5 90.5l-776 311q-81 33 -146.5 12t-89 -84t2.5 -161l276 -883q16 -52 59 -84t94.5 -28t88.5 48z" />
    <glyph glyph-name="Oacute" unicode="&#xf3;" 
d="M1135 1718l-375 -71q-31 -6 -44.5 21t7.5 44l299 246q62 51 136.5 31.5t96.5 -91.5q20 -65 -8.5 -114.5t-111.5 -65.5zM848 -31q-357 0 -541 205.5t-184 607.5q0 401 183.5 603t541.5 202q359 0 543 -202t184 -603q0 -402 -184.5 -607.5t-542.5 -205.5zM883 147l540 654
q52 63 38.5 124.5t-87.5 90.5l-776 311q-81 33 -146.5 12t-89 -84t2.5 -161l276 -883q16 -52 59 -84t94.5 -28t88.5 48z" />
    <glyph glyph-name="Ocircumflex" unicode="&#xd4;" 
d="M842 1937q-32 0 -54 -32l-114 -166q-31 -44 -56 -60t-55 -16q-61 0 -96 42.5t-35 119.5q0 63 31.5 104t99.5 47q175 15 279 13q103 2 278 -13q68 -6 99.5 -47t31.5 -104q0 -77 -35 -119.5t-96 -42.5q-29 0 -54 16t-56 60l-115 166q-22 32 -53 32zM848 -31
q-357 0 -541 205.5t-184 607.5q0 401 183.5 603t541.5 202q359 0 543 -202t184 -603q0 -402 -184.5 -607.5t-542.5 -205.5zM883 147l540 654q52 63 38.5 124.5t-87.5 90.5l-776 311q-81 33 -146.5 12t-89 -84t2.5 -161l276 -883q16 -52 59 -84t94.5 -28t88.5 48z" />
    <glyph glyph-name="Ocircumflex" unicode="&#xf4;" 
d="M842 1937q-32 0 -54 -32l-114 -166q-31 -44 -56 -60t-55 -16q-61 0 -96 42.5t-35 119.5q0 63 31.5 104t99.5 47q175 15 279 13q103 2 278 -13q68 -6 99.5 -47t31.5 -104q0 -77 -35 -119.5t-96 -42.5q-29 0 -54 16t-56 60l-115 166q-22 32 -53 32zM848 -31
q-357 0 -541 205.5t-184 607.5q0 401 183.5 603t541.5 202q359 0 543 -202t184 -603q0 -402 -184.5 -607.5t-542.5 -205.5zM883 147l540 654q52 63 38.5 124.5t-87.5 90.5l-776 311q-81 33 -146.5 12t-89 -84t2.5 -161l276 -883q16 -52 59 -84t94.5 -28t88.5 48z" />
    <glyph glyph-name="Otilde" unicode="&#xd5;" 
d="M877 1835l34 -39q47 -50 80 0l78 113q34 48 85.5 58t92.5 -17.5t47 -79.5q9 -76 -27 -124t-102 -66.5t-166 -18.5q-57 0 -104 27.5t-102 93.5l-39 47q-44 53 -80 0l-78 -113q-28 -41 -77.5 -53.5t-95 9.5t-61.5 73q-18 57 -0.5 100.5t63 68.5t106.5 37.5t135 12.5
q54 0 101 -29t110 -100zM848 -31q-357 0 -541 205.5t-184 607.5q0 401 183.5 603t541.5 202q359 0 543 -202t184 -603q0 -402 -184.5 -607.5t-542.5 -205.5zM883 147l540 654q52 63 38.5 124.5t-87.5 90.5l-776 311q-81 33 -146.5 12t-89 -84t2.5 -161l276 -883
q16 -52 59 -84t94.5 -28t88.5 48z" />
    <glyph glyph-name="Odieresis" unicode="&#xd6;" 
d="M616 1710q-75 -12 -110 13.5t-49 80.5q-11 42 3 77.5t46.5 58t70.5 37t80 20.5q50 8 89 -15t53 -84q11 -44 -0.5 -78.5t-41 -56t-64 -34t-77.5 -19.5zM987 1745q-48 21 -71.5 49.5t-22.5 57t10 61.5q14 41 45.5 62.5t71.5 22.5t79.5 -8t78.5 -26q104 -49 65 -160
q-15 -43 -44 -66t-65.5 -25t-72 6t-74.5 26zM848 -31q-357 0 -541 205.5t-184 607.5q0 401 183.5 603t541.5 202q359 0 543 -202t184 -603q0 -402 -184.5 -607.5t-542.5 -205.5zM883 147l540 654q52 63 38.5 124.5t-87.5 90.5l-776 311q-81 33 -146.5 12t-89 -84t2.5 -161
l276 -883q16 -52 59 -84t94.5 -28t88.5 48z" />
    <glyph glyph-name="Odieresis" unicode="&#xf6;" 
d="M616 1710q-75 -12 -110 13.5t-49 80.5q-11 42 3 77.5t46.5 58t70.5 37t80 20.5q50 8 89 -15t53 -84q11 -44 -0.5 -78.5t-41 -56t-64 -34t-77.5 -19.5zM987 1745q-48 21 -71.5 49.5t-22.5 57t10 61.5q14 41 45.5 62.5t71.5 22.5t79.5 -8t78.5 -26q104 -49 65 -160
q-15 -43 -44 -66t-65.5 -25t-72 6t-74.5 26zM848 -31q-357 0 -541 205.5t-184 607.5q0 401 183.5 603t541.5 202q359 0 543 -202t184 -603q0 -402 -184.5 -607.5t-542.5 -205.5zM883 147l540 654q52 63 38.5 124.5t-87.5 90.5l-776 311q-81 33 -146.5 12t-89 -84t2.5 -161
l276 -883q16 -52 59 -84t94.5 -28t88.5 48z" />
    <glyph glyph-name="Oslash" unicode="&#xd8;" horiz-adv-x="1740" 
d="M1483 1143q0 -53 11.5 -94t27.5 -75t32 -76t27.5 -120t11.5 -184q0 -150 -57 -270t-158 -197t-236 -117.5t-294 -40.5q-263 0 -410 94q-43 28 -70.5 29.5t-58.5 -24.5l-90 -80q-34 -31 -60.5 -11.5t3.5 58.5l84 110q35 45 -6 115q-117 190 -117 514q0 382 164.5 597.5
t472.5 215.5q93 0 174 -16.5t126 -35.5t90.5 -35.5t74.5 -16.5q26 0 51.5 16.5t43.5 35.5t48 35.5t66 16.5q73 0 128.5 -56.5t55.5 -131.5q0 -35 -14 -64.5t-34 -50t-39.5 -40.5t-33.5 -45.5t-14 -55.5zM641 1346l-326 -932q-13 -34 -1 -60t42 -26q31 0 64 45l532 702
q72 96 72 185q0 90 -66 148t-149 58q-57 0 -102 -30t-66 -90zM598 188l700 334q92 43 136.5 111.5t44.5 144.5q0 86 -52 149.5t-129 63.5q-87 0 -174 -90l-583 -612q-37 -40 -37 -72q0 -31 28.5 -38t65.5 9z" />
    <glyph glyph-name="Oslash" unicode="&#xf8;" horiz-adv-x="1740" 
d="M1483 1143q0 -53 11.5 -94t27.5 -75t32 -76t27.5 -120t11.5 -184q0 -150 -57 -270t-158 -197t-236 -117.5t-294 -40.5q-263 0 -410 94q-43 28 -70.5 29.5t-58.5 -24.5l-90 -80q-34 -31 -60.5 -11.5t3.5 58.5l84 110q35 45 -6 115q-117 190 -117 514q0 382 164.5 597.5
t472.5 215.5q93 0 174 -16.5t126 -35.5t90.5 -35.5t74.5 -16.5q26 0 51.5 16.5t43.5 35.5t48 35.5t66 16.5q73 0 128.5 -56.5t55.5 -131.5q0 -35 -14 -64.5t-34 -50t-39.5 -40.5t-33.5 -45.5t-14 -55.5zM641 1346l-326 -932q-13 -34 -1 -60t42 -26q31 0 64 45l532 702
q72 96 72 185q0 90 -66 148t-149 58q-57 0 -102 -30t-66 -90zM598 188l700 334q92 43 136.5 111.5t44.5 144.5q0 86 -52 149.5t-129 63.5q-87 0 -174 -90l-583 -612q-37 -40 -37 -72q0 -31 28.5 -38t65.5 9z" />
    <glyph glyph-name="Ugrave" unicode="&#xd9;" horiz-adv-x="1622" 
d="M877 1647l-375 71q-83 16 -112 66t-9 114q22 72 96.5 91.5t136.5 -31.5l299 -246q21 -17 8 -44t-44 -21zM1243 475l-418 453q-39 43 -55 88.5t-9.5 81.5t31 62.5t60 35.5t83.5 -5.5t97 -53.5l238 -193q20 -16 40.5 -19.5t33.5 1.5t22 14q46 46 -4 104l-119 138
q-78 90 -106.5 135.5t-28.5 97.5q0 75 50 123.5t136 48.5q108 0 156.5 -66.5t48.5 -203.5v-768q0 -580 -680 -580q-206 0 -363.5 77t-245 221.5t-87.5 336.5v664q0 167 59.5 243t179.5 76q78 0 132.5 -39t74.5 -97t12 -124.5t-44 -120.5l-252 -372q-62 -94 -44.5 -172.5
t109.5 -124.5l582 -299q250 -128 346 8q28 40 27.5 86.5t-18 80.5t-44.5 62z" />
    <glyph glyph-name="Ugrave" unicode="&#xf9;" horiz-adv-x="1622" 
d="M877 1647l-375 71q-83 16 -112 66t-9 114q22 72 96.5 91.5t136.5 -31.5l299 -246q21 -17 8 -44t-44 -21zM1243 475l-418 453q-39 43 -55 88.5t-9.5 81.5t31 62.5t60 35.5t83.5 -5.5t97 -53.5l238 -193q20 -16 40.5 -19.5t33.5 1.5t22 14q46 46 -4 104l-119 138
q-78 90 -106.5 135.5t-28.5 97.5q0 75 50 123.5t136 48.5q108 0 156.5 -66.5t48.5 -203.5v-768q0 -580 -680 -580q-206 0 -363.5 77t-245 221.5t-87.5 336.5v664q0 167 59.5 243t179.5 76q78 0 132.5 -39t74.5 -97t12 -124.5t-44 -120.5l-252 -372q-62 -94 -44.5 -172.5
t109.5 -124.5l582 -299q250 -128 346 8q28 40 27.5 86.5t-18 80.5t-44.5 62z" />
    <glyph glyph-name="Uacute" unicode="&#xda;" horiz-adv-x="1622" 
d="M1110 1718l-375 -71q-31 -6 -44.5 21t7.5 44l299 246q62 51 137 31.5t97 -91.5q20 -64 -9 -114t-112 -66zM1243 475l-418 453q-39 43 -55 88.5t-9.5 81.5t31 62.5t60 35.5t83.5 -5.5t97 -53.5l238 -193q20 -16 40.5 -19.5t33.5 1.5t22 14q46 46 -4 104l-119 138
q-78 90 -106.5 135.5t-28.5 97.5q0 75 50 123.5t136 48.5q108 0 156.5 -66.5t48.5 -203.5v-768q0 -580 -680 -580q-206 0 -363.5 77t-245 221.5t-87.5 336.5v664q0 167 59.5 243t179.5 76q78 0 132.5 -39t74.5 -97t12 -124.5t-44 -120.5l-252 -372q-62 -94 -44.5 -172.5
t109.5 -124.5l582 -299q250 -128 346 8q28 40 27.5 86.5t-18 80.5t-44.5 62z" />
    <glyph glyph-name="Uacute" unicode="&#xfa;" horiz-adv-x="1622" 
d="M1110 1718l-375 -71q-31 -6 -44.5 21t7.5 44l299 246q62 51 137 31.5t97 -91.5q20 -64 -9 -114t-112 -66zM1243 475l-418 453q-39 43 -55 88.5t-9.5 81.5t31 62.5t60 35.5t83.5 -5.5t97 -53.5l238 -193q20 -16 40.5 -19.5t33.5 1.5t22 14q46 46 -4 104l-119 138
q-78 90 -106.5 135.5t-28.5 97.5q0 75 50 123.5t136 48.5q108 0 156.5 -66.5t48.5 -203.5v-768q0 -580 -680 -580q-206 0 -363.5 77t-245 221.5t-87.5 336.5v664q0 167 59.5 243t179.5 76q78 0 132.5 -39t74.5 -97t12 -124.5t-44 -120.5l-252 -372q-62 -94 -44.5 -172.5
t109.5 -124.5l582 -299q250 -128 346 8q28 40 27.5 86.5t-18 80.5t-44.5 62z" />
    <glyph glyph-name="Ucircumflex" unicode="&#xdb;" horiz-adv-x="1622" 
d="M817 1937q-31 0 -53 -32l-115 -166q-31 -44 -56 -60t-54 -16q-61 0 -96 42.5t-35 119.5q0 63 31.5 104t99.5 47q175 15 278 13q104 2 279 -13q68 -6 99.5 -47t31.5 -104q0 -77 -35 -119.5t-96 -42.5q-30 0 -55 16t-56 60l-115 166q-22 32 -53 32zM1243 475l-418 453
q-39 43 -55 88.5t-9.5 81.5t31 62.5t60 35.5t83.5 -5.5t97 -53.5l238 -193q20 -16 40.5 -19.5t33.5 1.5t22 14q46 46 -4 104l-119 138q-78 90 -106.5 135.5t-28.5 97.5q0 75 50 123.5t136 48.5q108 0 156.5 -66.5t48.5 -203.5v-768q0 -580 -680 -580q-206 0 -363.5 77
t-245 221.5t-87.5 336.5v664q0 167 59.5 243t179.5 76q78 0 132.5 -39t74.5 -97t12 -124.5t-44 -120.5l-252 -372q-62 -94 -44.5 -172.5t109.5 -124.5l582 -299q250 -128 346 8q28 40 27.5 86.5t-18 80.5t-44.5 62z" />
    <glyph glyph-name="Ucircumflex" unicode="&#xfb;" horiz-adv-x="1622" 
d="M817 1937q-31 0 -53 -32l-115 -166q-31 -44 -56 -60t-54 -16q-61 0 -96 42.5t-35 119.5q0 63 31.5 104t99.5 47q175 15 278 13q104 2 279 -13q68 -6 99.5 -47t31.5 -104q0 -77 -35 -119.5t-96 -42.5q-30 0 -55 16t-56 60l-115 166q-22 32 -53 32zM1243 475l-418 453
q-39 43 -55 88.5t-9.5 81.5t31 62.5t60 35.5t83.5 -5.5t97 -53.5l238 -193q20 -16 40.5 -19.5t33.5 1.5t22 14q46 46 -4 104l-119 138q-78 90 -106.5 135.5t-28.5 97.5q0 75 50 123.5t136 48.5q108 0 156.5 -66.5t48.5 -203.5v-768q0 -580 -680 -580q-206 0 -363.5 77
t-245 221.5t-87.5 336.5v664q0 167 59.5 243t179.5 76q78 0 132.5 -39t74.5 -97t12 -124.5t-44 -120.5l-252 -372q-62 -94 -44.5 -172.5t109.5 -124.5l582 -299q250 -128 346 8q28 40 27.5 86.5t-18 80.5t-44.5 62z" />
    <glyph glyph-name="Udieresis" unicode="&#xdc;" horiz-adv-x="1622" 
d="M592 1710q-75 -12 -110.5 14t-49.5 80q-11 42 3.5 77.5t47 58t70.5 37t80 20.5q50 8 88.5 -15t52.5 -84q11 -44 -0.5 -78.5t-40.5 -56t-63.5 -34t-77.5 -19.5zM963 1745q-48 21 -71.5 49.5t-22.5 57t10 61.5q14 41 45 62.5t71 22.5t79.5 -8t78.5 -26q105 -50 66 -160
q-15 -43 -44 -66t-65.5 -25t-72 6t-74.5 26zM1243 475l-418 453q-39 43 -55 88.5t-9.5 81.5t31 62.5t60 35.5t83.5 -5.5t97 -53.5l238 -193q20 -16 40.5 -19.5t33.5 1.5t22 14q46 46 -4 104l-119 138q-78 90 -106.5 135.5t-28.5 97.5q0 75 50 123.5t136 48.5
q108 0 156.5 -66.5t48.5 -203.5v-768q0 -580 -680 -580q-206 0 -363.5 77t-245 221.5t-87.5 336.5v664q0 167 59.5 243t179.5 76q78 0 132.5 -39t74.5 -97t12 -124.5t-44 -120.5l-252 -372q-62 -94 -44.5 -172.5t109.5 -124.5l582 -299q250 -128 346 8q28 40 27.5 86.5
t-18 80.5t-44.5 62z" />
    <glyph glyph-name="Udieresis" unicode="&#xfc;" horiz-adv-x="1622" 
d="M592 1710q-75 -12 -110.5 14t-49.5 80q-11 42 3.5 77.5t47 58t70.5 37t80 20.5q50 8 88.5 -15t52.5 -84q11 -44 -0.5 -78.5t-40.5 -56t-63.5 -34t-77.5 -19.5zM963 1745q-48 21 -71.5 49.5t-22.5 57t10 61.5q14 41 45 62.5t71 22.5t79.5 -8t78.5 -26q105 -50 66 -160
q-15 -43 -44 -66t-65.5 -25t-72 6t-74.5 26zM1243 475l-418 453q-39 43 -55 88.5t-9.5 81.5t31 62.5t60 35.5t83.5 -5.5t97 -53.5l238 -193q20 -16 40.5 -19.5t33.5 1.5t22 14q46 46 -4 104l-119 138q-78 90 -106.5 135.5t-28.5 97.5q0 75 50 123.5t136 48.5
q108 0 156.5 -66.5t48.5 -203.5v-768q0 -580 -680 -580q-206 0 -363.5 77t-245 221.5t-87.5 336.5v664q0 167 59.5 243t179.5 76q78 0 132.5 -39t74.5 -97t12 -124.5t-44 -120.5l-252 -372q-62 -94 -44.5 -172.5t109.5 -124.5l582 -299q250 -128 346 8q28 40 27.5 86.5
t-18 80.5t-44.5 62z" />
    <glyph glyph-name="Yacute" unicode="&#xdd;" horiz-adv-x="1579" 
d="M1102 1718l-375 -71q-31 -6 -44.5 21t7.5 44l299 246q62 51 137 31.5t97 -91.5q20 -64 -9 -114t-112 -66zM1133 834l-17 548q-3 118 93 174q82 48 186 25t150 -104q27 -47 26 -107q-1 -39 -22.5 -93.5t-43 -92.5t-59.5 -99l-502 -823q-178 -293 -348 -293q-86 0 -148 45
t-79.5 109.5t-6.5 129.5t71 110t153 45h192q49 0 77.5 10t34.5 26t1.5 32.5t-17.5 33.5l-630 844q-27 36 -57.5 36.5t-45 -27.5t-0.5 -65l92 -239q55 -144 -55 -182q-24 -8 -56 11t-48 60q-16 42 -24.5 96.5t-7.5 115.5t11 121.5t33.5 115.5t57 97.5t84 67.5t112.5 25
q83 0 136 -40.5t126 -145.5l412 -594q28 -39 51.5 -51.5t38 -1.5t22.5 32.5t7 47.5z" />
    <glyph glyph-name="Yacute" unicode="&#xfd;" horiz-adv-x="1579" 
d="M1102 1718l-375 -71q-31 -6 -44.5 21t7.5 44l299 246q62 51 137 31.5t97 -91.5q20 -64 -9 -114t-112 -66zM1133 834l-17 548q-3 118 93 174q82 48 186 25t150 -104q27 -47 26 -107q-1 -39 -22.5 -93.5t-43 -92.5t-59.5 -99l-502 -823q-178 -293 -348 -293q-86 0 -148 45
t-79.5 109.5t-6.5 129.5t71 110t153 45h192q49 0 77.5 10t34.5 26t1.5 32.5t-17.5 33.5l-630 844q-27 36 -57.5 36.5t-45 -27.5t-0.5 -65l92 -239q55 -144 -55 -182q-24 -8 -56 11t-48 60q-16 42 -24.5 96.5t-7.5 115.5t11 121.5t33.5 115.5t57 97.5t84 67.5t112.5 25
q83 0 136 -40.5t126 -145.5l412 -594q28 -39 51.5 -51.5t38 -1.5t22.5 32.5t7 47.5z" />
    <glyph glyph-name="Thorn" unicode="&#xde;" horiz-adv-x="1650" 
d="M1217 1470q89 0 157 -27t108 -68t65 -98t33.5 -109.5t8.5 -108.5v-553q0 -56 -8.5 -108.5t-33.5 -109.5t-65 -98.5t-108 -68.5t-157 -27q-127 0 -213 38t-191 130l-455 359q-31 23 -59 27.5t-42.5 -7.5t-20.5 -31.5t5.5 -46t37.5 -49.5q63 -48 95.5 -73t76.5 -62
t65 -61.5t43 -55t30.5 -59.5t8.5 -60q0 -73 -57 -123.5t-168 -50.5q-106 0 -173 75t-67 194v1089q0 118 67 193t173 75q111 0 168 -50.5t57 -123.5q0 -31 -8 -59.5t-30.5 -59.5t-43.5 -54.5t-65.5 -61t-76 -62t-95.5 -73.5q-26 -23 -37.5 -49.5t-5.5 -46t20.5 -31.5
t42.5 -7.5t59 27.5l455 359q105 92 191 129.5t213 37.5zM1401 526l-238 144q-67 40 -67 112q0 73 67 113l238 143q30 15 47.5 37t18.5 44t-7 43.5t-28.5 34.5t-46.5 17t-60 -8l-801 -282q-87 -31 -129.5 -61t-42.5 -81q0 -20 6 -36.5t22 -30.5t26.5 -22.5t38.5 -20.5
t37 -15.5t42 -15.5l801 -283q34 -12 60 -8t46.5 17t28.5 34.5t7 43.5t-18.5 44t-47.5 37z" />
    <glyph glyph-name="Thorn" unicode="&#xfe;" horiz-adv-x="1650" 
d="M1217 1470q89 0 157 -27t108 -68t65 -98t33.5 -109.5t8.5 -108.5v-553q0 -56 -8.5 -108.5t-33.5 -109.5t-65 -98.5t-108 -68.5t-157 -27q-127 0 -213 38t-191 130l-455 359q-31 23 -59 27.5t-42.5 -7.5t-20.5 -31.5t5.5 -46t37.5 -49.5q63 -48 95.5 -73t76.5 -62
t65 -61.5t43 -55t30.5 -59.5t8.5 -60q0 -73 -57 -123.5t-168 -50.5q-106 0 -173 75t-67 194v1089q0 118 67 193t173 75q111 0 168 -50.5t57 -123.5q0 -31 -8 -59.5t-30.5 -59.5t-43.5 -54.5t-65.5 -61t-76 -62t-95.5 -73.5q-26 -23 -37.5 -49.5t-5.5 -46t20.5 -31.5
t42.5 -7.5t59 27.5l455 359q105 92 191 129.5t213 37.5zM1401 526l-238 144q-67 40 -67 112q0 73 67 113l238 143q30 15 47.5 37t18.5 44t-7 43.5t-28.5 34.5t-46.5 17t-60 -8l-801 -282q-87 -31 -129.5 -61t-42.5 -81q0 -20 6 -36.5t22 -30.5t26.5 -22.5t38.5 -20.5
t37 -15.5t42 -15.5l801 -283q34 -12 60 -8t46.5 17t28.5 34.5t7 43.5t-18.5 44t-47.5 37z" />
    <glyph glyph-name="germandbls" unicode="&#xdf;" horiz-adv-x="1765" 
d="M1337 739l246 -233q52 -50 75.5 -105t16 -106.5t-37 -100.5t-85 -89.5t-126 -71t-162 -47.5t-191.5 -17q-180 0 -285 70t-96 184q6 75 56.5 125t121 56t148.5 -31l364 -193q76 -39 123 3q39 33 28 90q-11 61 -77 98l-426 245q-144 86 -197.5 158t-31.5 152
q25 95 126 123.5t308 -0.5q117 -15 129 65q6 33 -34 64.5t-107 46.5l-465 112q-149 37 -211 -15.5t-53 -180.5l75 -895q11 -123 -53 -199t-178 -76q-132 0 -185.5 91t-13.5 249l234 918q34 134 76 202t109 96.5t183 28.5h553q198 0 293.5 -53.5t95.5 -163.5
q0 -73 -52.5 -139.5t-174.5 -148.5l-72 -47q-193 -125 -47 -265z" />
    <glyph glyph-name="Ydieresis" unicode="&#xff;" horiz-adv-x="1579" 
d="M584 1710q-75 -12 -110.5 14t-49.5 80q-11 42 3.5 77.5t47 58t70.5 37t80 20.5q50 8 88.5 -15t52.5 -84q11 -44 -0.5 -78.5t-40.5 -56t-63.5 -34t-77.5 -19.5zM954 1745q-48 21 -71.5 49.5t-22.5 57t10 61.5q14 41 45.5 62.5t71.5 22.5t79.5 -8t78.5 -26q104 -49 65 -160
q-15 -43 -44 -66t-65.5 -25t-72 6t-74.5 26zM1133 834l-17 548q-3 118 93 174q82 48 186 25t150 -104q27 -47 26 -107q-1 -39 -22.5 -93.5t-43 -92.5t-59.5 -99l-502 -823q-178 -293 -348 -293q-86 0 -148 45t-79.5 109.5t-6.5 129.5t71 110t153 45h192q49 0 77.5 10
t34.5 26t1.5 32.5t-17.5 33.5l-630 844q-27 36 -57.5 36.5t-45 -27.5t-0.5 -65l92 -239q55 -144 -55 -182q-24 -8 -56 11t-48 60q-16 42 -24.5 96.5t-7.5 115.5t11 121.5t33.5 115.5t57 97.5t84 67.5t112.5 25q83 0 136 -40.5t126 -145.5l412 -594q28 -39 51.5 -51.5
t38 -1.5t22.5 32.5t7 47.5z" />
    <glyph glyph-name="Ydieresis" unicode="&#x178;" horiz-adv-x="1579" 
d="M584 1710q-75 -12 -110.5 14t-49.5 80q-11 42 3.5 77.5t47 58t70.5 37t80 20.5q50 8 88.5 -15t52.5 -84q11 -44 -0.5 -78.5t-40.5 -56t-63.5 -34t-77.5 -19.5zM954 1745q-48 21 -71.5 49.5t-22.5 57t10 61.5q14 41 45.5 62.5t71.5 22.5t79.5 -8t78.5 -26q104 -49 65 -160
q-15 -43 -44 -66t-65.5 -25t-72 6t-74.5 26zM1133 834l-17 548q-3 118 93 174q82 48 186 25t150 -104q27 -47 26 -107q-1 -39 -22.5 -93.5t-43 -92.5t-59.5 -99l-502 -823q-178 -293 -348 -293q-86 0 -148 45t-79.5 109.5t-6.5 129.5t71 110t153 45h192q49 0 77.5 10
t34.5 26t1.5 32.5t-17.5 33.5l-630 844q-27 36 -57.5 36.5t-45 -27.5t-0.5 -65l92 -239q55 -144 -55 -182q-24 -8 -56 11t-48 60q-16 42 -24.5 96.5t-7.5 115.5t11 121.5t33.5 115.5t57 97.5t84 67.5t112.5 25q83 0 136 -40.5t126 -145.5l412 -594q28 -39 51.5 -51.5
t38 -1.5t22.5 32.5t7 47.5z" />
    <glyph glyph-name="Amacron" unicode="&#x100;" horiz-adv-x="1638" 
d="M1370 1704l-551 14q-47 2 -68.5 17t-21.5 49q0 65 94 78l467 67q112 17 160.5 -1.5t62.5 -76.5q16 -66 -19 -108t-124 -39zM389 465l529 12q97 2 147.5 29t58.5 100l88 725q10 84 -26 132t-101 36q-30 -6 -59.5 -31.5t-58 -72t-39.5 -67t-33 -64.5l-248 -508
q-31 -63 -79.5 -101.5t-90 -49.5t-86.5 -11q-91 0 -155 66t-64 161q0 118 156 244l411 328q146 116 218.5 155t166.5 39q91 0 152 -60.5t82 -166.5l186 -985q34 -180 -25.5 -293t-211.5 -113q-120 0 -184 66t-64 166v106q0 82 -38.5 98t-92.5 -32l-201 -172q-9 -7 -43 -37
t-52 -45t-53.5 -42t-63 -42.5t-62.5 -32.5t-70 -25t-70 -8q-47 0 -90 14t-80.5 43t-59.5 81.5t-22 121.5q0 116 91 174.5t237 61.5z" />
    <glyph glyph-name="Abreve" unicode="&#x102;" horiz-adv-x="1638" 
d="M1081 1653q-399 -10 -399 235q0 48 31.5 74.5t72.5 26.5q96 0 138 -97q3 -7 13.5 -32t14 -32t12.5 -27t14.5 -26.5t15 -21t17.5 -19.5t19.5 -12t24 -9.5t26.5 -2.5q13 0 25 3t21 6t19 12t16 14t15 19t13 20.5t12.5 25t11.5 25t12.5 28.5t12.5 29q42 97 137 97
q41 0 73 -26.5t32 -74.5q0 -245 -400 -235zM389 465l529 12q97 2 147.5 29t58.5 100l88 725q10 84 -26 132t-101 36q-30 -6 -59.5 -31.5t-58 -72t-39.5 -67t-33 -64.5l-248 -508q-31 -63 -79.5 -101.5t-90 -49.5t-86.5 -11q-91 0 -155 66t-64 161q0 118 156 244l411 328
q146 116 218.5 155t166.5 39q91 0 152 -60.5t82 -166.5l186 -985q34 -180 -25.5 -293t-211.5 -113q-120 0 -184 66t-64 166v106q0 82 -38.5 98t-92.5 -32l-201 -172q-9 -7 -43 -37t-52 -45t-53.5 -42t-63 -42.5t-62.5 -32.5t-70 -25t-70 -8q-47 0 -90 14t-80.5 43
t-59.5 81.5t-22 121.5q0 116 91 174.5t237 61.5z" />
    <glyph glyph-name="Aogonek" unicode="&#x104;" horiz-adv-x="1638" 
d="M1311 -209l149 39q47 11 90.5 12t74 -23.5t30.5 -72.5q0 -72 -64.5 -114t-163.5 -42q-86 0 -159.5 31.5t-114 83t-49 116t36.5 130.5l30 49q-55 28 -83.5 81.5t-28.5 119.5v106q0 82 -38.5 98t-92.5 -32l-201 -172q-9 -7 -43 -37t-52 -45t-53.5 -42t-63 -42.5
t-62.5 -32.5t-70 -25t-70 -8q-47 0 -90 14t-80.5 43t-59.5 81.5t-22 121.5q0 116 91 174.5t237 61.5l529 12q97 2 147.5 29t58.5 100l88 725q10 84 -26 132t-101 36q-30 -6 -59.5 -31.5t-58 -72t-39.5 -67t-33 -64.5l-248 -508q-31 -63 -79.5 -101.5t-90 -49.5t-86.5 -11
q-91 0 -155 66t-64 161q0 118 156 244l411 328q146 116 218.5 155t166.5 39q91 0 152 -60.5t82 -166.5l186 -985q23 -117 3 -212t-83 -145q-3 -10 -18 -16l-170 -78q-33 -15 -46 -33t-13 -47q0 -32 25.5 -48.5t68.5 -4.5z" />
    <glyph glyph-name="Cacute" unicode="&#x106;" horiz-adv-x="1720" 
d="M1227 1718l-375 -71q-31 -6 -44.5 21t7.5 44l299 246q62 51 137 31.5t97 -91.5q20 -64 -9 -114t-112 -66zM829 -31q-176 0 -313 60t-222 167t-128 247t-43 307q0 241 101.5 432t284.5 298t415 107q143 0 262.5 -42t197.5 -113t121 -163t43 -192q0 -57 -13.5 -103.5
t-43 -85t-84 -56t-129.5 -9.5q-49 5 -83.5 28.5t-50.5 55.5t-22.5 74.5t-4.5 79t9 76.5l35 194q13 73 -23 104t-106 -8l-661 -401q-61 -37 -61.5 -82.5t63.5 -64.5l368 -103q54 -15 90 -53.5t46 -83.5t-15.5 -94t-87.5 -82l-112 -60q-113 -60 -107 -157q5 -76 76 -133
q77 -63 166 -51q71 9 123 69l301 352q57 66 122.5 87.5t116 3.5t84 -62t33.5 -100q0 -67 -63 -145t-164 -144t-241 -110t-280 -44z" />
    <glyph glyph-name="Cdotaccent" unicode="&#x10a;" horiz-adv-x="1720" 
d="M856 1669q-88 21 -114.5 66.5t-16.5 113.5q8 51 40 82.5t78.5 40.5t94.5 7t98 -15q59 -15 90.5 -58t18.5 -116q-8 -54 -37 -87t-71.5 -42.5t-86.5 -7t-94 15.5zM829 -31q-176 0 -313 60t-222 167t-128 247t-43 307q0 241 101.5 432t284.5 298t415 107q143 0 262.5 -42
t197.5 -113t121 -163t43 -192q0 -57 -13.5 -103.5t-43 -85t-84 -56t-129.5 -9.5q-49 5 -83.5 28.5t-50.5 55.5t-22.5 74.5t-4.5 79t9 76.5l35 194q13 73 -23 104t-106 -8l-661 -401q-61 -37 -61.5 -82.5t63.5 -64.5l368 -103q54 -15 90 -53.5t46 -83.5t-15.5 -94t-87.5 -82
l-112 -60q-113 -60 -107 -157q5 -76 76 -133q77 -63 166 -51q71 9 123 69l301 352q57 66 122.5 87.5t116 3.5t84 -62t33.5 -100q0 -67 -63 -145t-164 -144t-241 -110t-280 -44z" />
    <glyph glyph-name="Ccaron" unicode="&#x10c;" horiz-adv-x="1720" 
d="M924 1714q30 0 53 33l115 166q31 44 56 60t54 16q61 0 96 -42.5t35 -119.5q0 -64 -31.5 -105t-99.5 -47q-166 -14 -278 -12q-113 -2 -279 12q-68 6 -99.5 47t-31.5 105q0 77 35 119.5t96 42.5q30 0 55 -16t56 -60l114 -166q23 -33 54 -33zM829 -31q-176 0 -313 60
t-222 167t-128 247t-43 307q0 241 101.5 432t284.5 298t415 107q143 0 262.5 -42t197.5 -113t121 -163t43 -192q0 -57 -13.5 -103.5t-43 -85t-84 -56t-129.5 -9.5q-49 5 -83.5 28.5t-50.5 55.5t-22.5 74.5t-4.5 79t9 76.5l35 194q13 73 -23 104t-106 -8l-661 -401
q-61 -37 -61.5 -82.5t63.5 -64.5l368 -103q54 -15 90 -53.5t46 -83.5t-15.5 -94t-87.5 -82l-112 -60q-113 -60 -107 -157q5 -76 76 -133q77 -63 166 -51q71 9 123 69l301 352q57 66 122.5 87.5t116 3.5t84 -62t33.5 -100q0 -67 -63 -145t-164 -144t-241 -110t-280 -44z" />
    <glyph glyph-name="Dcaron" unicode="&#x10e;" horiz-adv-x="1771" 
d="M887 1714q30 0 53 33l115 166q31 44 56 60t54 16q61 0 96 -42.5t35 -119.5q0 -64 -31.5 -105t-99.5 -47q-166 -14 -278 -12q-113 -2 -279 12q-68 6 -99.5 47t-31.5 105q0 77 35 119.5t96 42.5q30 0 55 -16t56 -60l115 -166q23 -33 53 -33zM319 1556h711
q324 0 471.5 -199.5t147.5 -588.5q0 -800 -924 -797q-128 0 -229 39t-163 105t-97.5 155t-38.5 189.5t21 207.5t75 210l76 153q24 54 3.5 80.5t-91.5 38.5q-83 14 -125.5 66t-42.5 126q0 86 55 150.5t151 64.5zM1030 199l354 854q39 100 17.5 165t-84 93t-141.5 12l-512 -98
q-255 -48 -195 -264l211 -742q21 -75 70.5 -112.5t103 -34.5t103.5 37t73 90z" />
    <glyph glyph-name="Dcroat" unicode="&#x110;" horiz-adv-x="1775" 
d="M324 1556h710q324 0 471.5 -199.5t147.5 -588.5q0 -800 -924 -797q-117 1 -210 32.5t-150 81.5t-94.5 116.5t-52.5 131t-15 130.5q0 35 8 63t27 51.5t29.5 34t35.5 31.5q47 42 47 98q0 14 -3 24t-13 21.5t-33.5 18t-58.5 6.5h2l-90 2q-26 0 -39 17t-2.5 37.5t45.5 27.5
l92 23q59 15 93 53.5t34 91.5q0 33 -23.5 56t-72.5 30q-83 14 -125.5 66t-42.5 126q0 86 55.5 150.5t151.5 64.5zM1034 199l355 854q39 100 17 165t-84.5 93t-141.5 12l-512 -104q-205 -43 -205 -132q0 -49 26 -75t80 -17l76 13l266 61q123 28 184 -39q45 -50 29 -117
q-17 -70 -86 -99q-37 -16 -84 -15l-395 6q-147 -8 -151 -94q0 -62 53 -88q125 -61 172 -224l51 -180q21 -75 70.5 -112.5t103 -34.5t103.5 37t73 90z" />
    <glyph glyph-name="Emacron" unicode="&#x112;" horiz-adv-x="1677" 
d="M1178 1704l-551 14q-47 2 -68.5 17t-21.5 49q0 65 94 78l467 67q112 17 160.5 -1.5t62.5 -76.5q16 -66 -19 -108t-124 -39zM475 213l901 80q189 17 189 -113q0 -103 -114.5 -158t-377.5 -55q-198 0 -373 39.5t-308.5 112t-211.5 184.5t-78 248q0 92 52.5 154t136 74.5
t186.5 -25.5l410 -168q37 -16 59.5 -10t33 21t0 39t-39.5 44l-610 424q-144 103 -144 215q0 74 42 127.5t116.5 83t163.5 42.5t197 13q202 1 405.5 -28.5t294.5 -71.5q85 -40 124.5 -94.5t35.5 -139.5q-5 -94 -74 -124t-201 14l-837 293q-50 17 -85 1t-53 -43.5t-18 -52.5
q0 -43 23 -71.5t90 -50.5l798 -254q209 -66 209 -230q0 -82 -50 -140t-159 -71l-733 -90q-172 -22 -172 -117q0 -47 44.5 -78t127.5 -24z" />
    <glyph glyph-name="Edotaccent" unicode="&#x116;" horiz-adv-x="1677" 
d="M821 1669q-88 21 -114.5 66.5t-16.5 113.5q8 51 40 82.5t78.5 40.5t94.5 7t98 -15q59 -15 90.5 -58t18.5 -116q-8 -54 -37 -87t-71.5 -42.5t-86.5 -7t-94 15.5zM475 213l901 80q189 17 189 -113q0 -103 -114.5 -158t-377.5 -55q-198 0 -373 39.5t-308.5 112t-211.5 184.5
t-78 248q0 92 52.5 154t136 74.5t186.5 -25.5l410 -168q37 -16 59.5 -10t33 21t0 39t-39.5 44l-610 424q-144 103 -144 215q0 74 42 127.5t116.5 83t163.5 42.5t197 13q202 1 405.5 -28.5t294.5 -71.5q85 -40 124.5 -94.5t35.5 -139.5q-5 -94 -74 -124t-201 14l-837 293
q-50 17 -85 1t-53 -43.5t-18 -52.5q0 -43 23 -71.5t90 -50.5l798 -254q209 -66 209 -230q0 -82 -50 -140t-159 -71l-733 -90q-172 -22 -172 -117q0 -47 44.5 -78t127.5 -24z" />
    <glyph glyph-name="Eogonek" unicode="&#x118;" horiz-adv-x="1677" 
d="M1272 -209l149 39q47 11 90.5 12t74 -23.5t30.5 -72.5q0 -72 -64 -114t-163 -42q-68 0 -130 20.5t-105 56.5t-67.5 81t-21 98.5t36.5 104.5l10 16h-39q-198 0 -373 39.5t-308.5 112t-211.5 184.5t-78 248q0 92 52.5 154t136 74.5t186.5 -25.5l410 -168q37 -16 59.5 -10
t33 21t0 39t-39.5 44l-610 424q-144 103 -144 215q0 74 42 127.5t116.5 83t163.5 42.5t197 13q202 1 405.5 -28.5t294.5 -71.5q85 -40 124.5 -94.5t35.5 -139.5q-5 -94 -74 -124t-201 14l-837 293q-50 17 -85 1t-53 -43.5t-18 -52.5q0 -43 23 -71.5t90 -50.5l798 -254
q209 -66 209 -230q0 -82 -50 -140t-159 -71l-733 -90q-172 -22 -172 -117q0 -47 44.5 -78t127.5 -24l901 80q189 17 189 -113q0 -118 -146 -170q-2 -5 -12 -8l-170 -78q-33 -15 -46 -33t-13 -47q0 -32 25.5 -48.5t68.5 -4.5z" />
    <glyph glyph-name="Ecaron" unicode="&#x11a;" horiz-adv-x="1677" 
d="M889 1714q30 0 53 33l115 166q31 44 56 60t54 16q61 0 96 -42.5t35 -119.5q0 -64 -31.5 -105t-99.5 -47q-166 -14 -278 -12q-113 -2 -279 12q-68 6 -99.5 47t-31.5 105q0 77 35 119.5t96 42.5q30 0 55 -16t56 -60l115 -166q23 -33 53 -33zM475 213l901 80
q189 17 189 -113q0 -103 -114.5 -158t-377.5 -55q-198 0 -373 39.5t-308.5 112t-211.5 184.5t-78 248q0 92 52.5 154t136 74.5t186.5 -25.5l410 -168q37 -16 59.5 -10t33 21t0 39t-39.5 44l-610 424q-144 103 -144 215q0 74 42 127.5t116.5 83t163.5 42.5t197 13
q202 1 405.5 -28.5t294.5 -71.5q85 -40 124.5 -94.5t35.5 -139.5q-5 -94 -74 -124t-201 14l-837 293q-50 17 -85 1t-53 -43.5t-18 -52.5q0 -43 23 -71.5t90 -50.5l798 -254q209 -66 209 -230q0 -82 -50 -140t-159 -71l-733 -90q-172 -22 -172 -117q0 -47 44.5 -78t127.5 -24
z" />
    <glyph glyph-name="Gbreve" unicode="&#x11e;" horiz-adv-x="1832" 
d="M924 1653q-400 -10 -400 235q0 48 32 74.5t73 26.5q95 0 137 -97q3 -7 12.5 -29t12.5 -28.5t11.5 -25t12.5 -25t13 -20.5t15 -19t16 -14t19 -12t21 -6t25 -3q14 0 26.5 2.5t24 9.5t19.5 12t17.5 19.5t15 21t14.5 26.5t12.5 27t14 32t13.5 32q42 97 138 97
q41 0 72.5 -26.5t31.5 -74.5q0 -245 -399 -235zM657 1165l60 -75q61 -72 48.5 -151t-103.5 -140l-330 -226q-74 -50 -67 -137q5 -71 58 -115q63 -52 139 -13q4 2 9 5l866 516q72 43 137 54t111 -7t74 -61t31 -106l20 -430q7 -159 -57.5 -234.5t-184.5 -75.5q-78 0 -133 48.5
t-62 129.5t58 187l219 338q27 50 6.5 81t-59.5 31q-24 0 -39 -4.5t-42 -27.5t-62 -70l-336 -438q-84 -110 -142.5 -165.5t-126 -82.5t-159.5 -27t-175 50t-149 145t-104.5 246.5t-38.5 339.5q0 196 57.5 354.5t161 264t248.5 162t319 56.5q291 0 477.5 -90.5t233.5 -253.5
q15 -50 2.5 -89.5t-39.5 -71t-69 -47t-84.5 -17t-86.5 19.5t-75 62l-228 299q-53 68 -141 91.5t-182 -13.5q-51 -22 -80 -61t-32.5 -83t10 -88t42.5 -80z" />
    <glyph glyph-name="Gdotaccent" unicode="&#x120;" horiz-adv-x="1832" 
d="M856 1669q-88 21 -114.5 66.5t-16.5 113.5q8 51 40 82.5t78.5 40.5t94.5 7t98 -15q59 -15 90.5 -58t18.5 -116q-8 -54 -37 -87t-71.5 -42.5t-86.5 -7t-94 15.5zM657 1165l60 -75q61 -72 48.5 -151t-103.5 -140l-330 -226q-74 -50 -67 -137q5 -71 58 -115q63 -52 139 -13
q4 2 9 5l866 516q72 43 137 54t111 -7t74 -61t31 -106l20 -430q7 -159 -57.5 -234.5t-184.5 -75.5q-78 0 -133 48.5t-62 129.5t58 187l219 338q27 50 6.5 81t-59.5 31q-24 0 -39 -4.5t-42 -27.5t-62 -70l-336 -438q-84 -110 -142.5 -165.5t-126 -82.5t-159.5 -27t-175 50
t-149 145t-104.5 246.5t-38.5 339.5q0 196 57.5 354.5t161 264t248.5 162t319 56.5q291 0 477.5 -90.5t233.5 -253.5q15 -50 2.5 -89.5t-39.5 -71t-69 -47t-84.5 -17t-86.5 19.5t-75 62l-228 299q-53 68 -141 91.5t-182 -13.5q-51 -22 -80 -61t-32.5 -83t10 -88t42.5 -80z
" />
    <glyph glyph-name="uni0122" unicode="&#x122;" horiz-adv-x="1832" 
d="M657 1165l60 -75q61 -72 48.5 -151t-103.5 -140l-330 -226q-74 -50 -67 -137q5 -71 58 -115q63 -52 139 -13q4 2 9 5l866 516q72 43 137 54t111 -7t74 -61t31 -106l20 -430q7 -159 -57.5 -234.5t-184.5 -75.5q-78 0 -133 48.5t-62 129.5t58 187l219 338q27 50 6.5 81
t-59.5 31q-24 0 -39 -4.5t-42 -27.5t-62 -70l-336 -438q-84 -110 -142.5 -165.5t-126 -82.5t-159.5 -27t-175 50t-149 145t-104.5 246.5t-38.5 339.5q0 196 57.5 354.5t161 264t248.5 162t319 56.5q291 0 477.5 -90.5t233.5 -253.5q15 -50 2.5 -89.5t-39.5 -71t-69 -47
t-84.5 -17t-86.5 19.5t-75 62l-228 299q-53 68 -141 91.5t-182 -13.5q-51 -22 -80 -61t-32.5 -83t10 -88t42.5 -80zM842 -451l12 289q2 52 30 84t71 41t90 4.5t92 -20.5q71 -25 106.5 -76.5t24.5 -106.5t-68 -90l-287 -176q-28 -18 -50 -3t-21 54z" />
    <glyph glyph-name="Hbar" unicode="&#x126;" horiz-adv-x="1773" 
d="M117 1020h-47q-45 0 -45 41q0 38 49 41l49 4q45 3 73.5 34.5t36.5 104.5q5 48 15 91t32 91t52.5 81.5t80.5 56t113 22.5q103 0 161 -51.5t58 -136.5q0 -87 -53 -150q-30 -32 -19.5 -61t58.5 -25l447 43q76 6 41 84q-25 58 -25 94q0 90 61.5 146.5t180.5 56.5
q94 0 161 -55t54 -143l-11 -70q-9 -68 68 -68q166 0 166 -114q0 -134 -148 -131h-53q-38 0 -52 -14t-17 -50l-76 -692q-5 -48 -14.5 -86t-30.5 -76t-51 -63t-78.5 -40.5t-112.5 -15.5q-97 0 -154 63.5t-57 147.5q0 159 127 232l172 98q68 38 68 100q0 42 -32 61.5t-99 6.5
l-811 -160q-107 -21 -107 -74q0 -31 22.5 -54t82.5 -52q61 -30 90.5 -73t29.5 -109q0 -83 -72 -135t-169 -52q-98 0 -159.5 65.5t-47.5 201.5l76 708q4 43 -15.5 59.5t-68.5 16.5zM317 868q0 -40 32.5 -62t86.5 -22h867q175 0 98 170q-13 30 -39.5 42t-79.5 12l-747 8
q-88 0 -146 -43q-44 -33 -58 -54t-14 -51z" />
    <glyph glyph-name="Imacron" unicode="&#x12a;" horiz-adv-x="878" 
d="M811 1704l-551 14q-47 2 -68.5 17t-21.5 49q0 65 94 78l467 67q112 17 160.5 -1.5t62.5 -76.5q16 -66 -19 -108t-124 -39zM82 1102q0 36 96 147l232 267q62 71 161 71q83 0 144 -53t61 -141q0 -81 -43.5 -127.5t-124.5 -75.5l-225 -78q-39 -12 -39 -47q0 -39 53 -33
l140 17q100 12 157.5 -32.5t53.5 -121t-70 -152.5l-391 -446q-43 -48 -43 -74q0 -32 22.5 -51.5t50.5 -7.5l246 106q33 14 65.5 17.5t61.5 -5.5t48.5 -36t23.5 -70q7 -65 -38 -113.5t-116 -71t-153 -22.5q-172 0 -250.5 102.5t-36.5 258.5l166 606q6 21 6 37q0 34 -25 48.5
t-77 14.5h-88q-68 0 -68 66z" />
    <glyph glyph-name="Idotaccent" unicode="&#x130;" horiz-adv-x="878" 
d="M455 1669q-88 21 -114.5 66.5t-16.5 113.5q8 51 40 82.5t78.5 40.5t94.5 7t98 -15q59 -15 90 -58t18 -116q-8 -54 -37 -87t-71.5 -42.5t-86 -7t-93.5 15.5zM82 1102q0 36 96 147l232 267q62 71 161 71q83 0 144 -53t61 -141q0 -81 -43.5 -127.5t-124.5 -75.5l-225 -78
q-39 -12 -39 -47q0 -39 53 -33l140 17q100 12 157.5 -32.5t53.5 -121t-70 -152.5l-391 -446q-43 -48 -43 -74q0 -32 22.5 -51.5t50.5 -7.5l246 106q33 14 65.5 17.5t61.5 -5.5t48.5 -36t23.5 -70q7 -65 -38 -113.5t-116 -71t-153 -22.5q-172 0 -250.5 102.5t-36.5 258.5
l166 606q6 21 6 37q0 34 -25 48.5t-77 14.5h-88q-68 0 -68 66z" />
    <glyph glyph-name="uni0136" unicode="&#x136;" horiz-adv-x="1765" 
d="M442 1587q75 0 117 -36t46.5 -91t-19.5 -121t-74 -125l-33 -38q-97 -120 -57 -183q19 -31 42.5 -41.5t53.5 -1t59 27t72 50.5l535 406q110 83 184.5 118t163.5 35q85 0 139 -80t39 -174q-18 -104 -85.5 -156.5t-211.5 -84.5l-641 -140q-9 -2 -31 -6t-33 -6.5t-31 -7
t-31 -8.5t-26 -11t-23.5 -14t-15 -16.5t-8.5 -20.5q-14 -81 78 -125l713 -342q43 -21 77.5 14t20.5 80l-76 248q-20 66 10.5 106.5t82.5 43.5q59 2 100.5 -41t30.5 -123l-74 -512q-18 -123 -90 -182.5t-172 -59.5q-25 0 -47.5 4.5t-40 10.5t-37.5 20t-33 24.5t-34.5 34
t-33 37t-38 46t-41.5 49.5l-561 667q-29 34 -62.5 41t-53.5 -10.5t-26 -46.5t19 -68l256 -391q71 -105 51 -227q-14 -80 -84 -135.5t-174 -55.5q-109 0 -164 74.5t-47 208.5l72 1071q10 136 79.5 200t167.5 64zM649 -451l13 289q2 52 30 84t70.5 41t89.5 4.5t92 -20.5
q71 -25 107 -76.5t25 -106.5t-68 -90l-287 -176q-28 -18 -50.5 -3t-21.5 54z" />
    <glyph glyph-name="Lacute" unicode="&#x139;" horiz-adv-x="1208" 
d="M905 1718l-375 -71q-31 -6 -44 21t8 44l299 246q62 51 136.5 31.5t96.5 -91.5q20 -64 -9 -114t-112 -66zM131 397l121 867q23 164 85.5 243.5t166.5 79.5q97 0 172.5 -62t75.5 -171q0 -85 -56 -191l-432 -803q-59 -106 -59 -159q0 -37 25.5 -62.5t54.5 -25.5
q30 0 73 27.5t134 97.5l188 145q111 84 211 84q97 0 161 -71t64 -163q0 -97 -76 -165t-227 -68h-407q-164 0 -223.5 63t-59.5 224q0 55 8 110z" />
    <glyph glyph-name="Lcaron" unicode="&#x13d;" horiz-adv-x="1228" 
d="M612 1714q31 0 54 33l114 166q31 44 56 60t55 16q61 0 96 -42.5t35 -119.5q0 -64 -31.5 -105t-99.5 -47q-166 -14 -279 -12q-112 -2 -278 12q-68 6 -99.5 47t-31.5 105q0 77 35 119.5t96 42.5q29 0 54 -16t56 -60l115 -166q23 -33 53 -33zM131 397l121 867
q23 164 85.5 243.5t166.5 79.5q97 0 172.5 -62t75.5 -171q0 -85 -56 -191l-432 -803q-59 -106 -59 -159q0 -37 25.5 -62.5t54.5 -25.5q30 0 73 27.5t134 97.5l188 145q111 84 211 84q97 0 161 -71t64 -163q0 -97 -76 -165t-227 -68h-407q-164 0 -223.5 63t-59.5 224
q0 55 8 110z" />
    <glyph glyph-name="Lslash" unicode="&#x141;" horiz-adv-x="1208" 
d="M14 569l74 41q43 24 62 50.5t26 76.5l76 527q23 164 85.5 243.5t166.5 79.5q97 0 172.5 -62t75.5 -171q0 -95 -56 -191l-170 -293q-18 -31 3.5 -50t43.5 1l207 172q151 125 236 6q26 -37 29.5 -76.5t-22.5 -76t-83 -55.5l-403 -136q-74 -25 -119 -60t-78 -95l-76 -140
q-59 -106 -59 -159q0 -37 25.5 -62.5t54.5 -25.5q30 0 73 27.5t134 97.5l188 145q111 84 211 84q97 0 161 -71t64 -163q0 -97 -76 -165t-227 -68h-407q-164 0 -229.5 71.5t-53.5 223.5l8 102q5 63 -6.5 90t-44.5 17l-39 -12q-25 -8 -44.5 4t-16.5 34t34 39z" />
    <glyph glyph-name="Nacute" unicode="&#x143;" horiz-adv-x="1806" 
d="M1196 1718l-375 -71q-31 -6 -44.5 21t7.5 44l299 246q62 51 137 31.5t97 -91.5q20 -64 -9 -114t-112 -66zM397 -31q-44 0 -80 8t-63 20.5t-47.5 36.5t-34 46t-23 60t-15 68t-8 80.5t-3 86.5t-0.5 96v553q0 138 12 235.5t35 161.5t62.5 100.5t88 51t117.5 14.5
q48 0 90.5 -16t75.5 -39.5t71 -69t66.5 -86t71.5 -108.5l485 -760q37 -59 62.5 -83t52.5 -24q76 0 76 68q0 44 -43 152l-189 485q-23 60 -34.5 114.5t-12 72t-0.5 59.5t11.5 81.5t36.5 75.5t71 58t107 22q73 0 126 -33t79.5 -89.5t36 -123t1.5 -139.5l-104 -948
q-17 -149 -70.5 -218t-152.5 -69q-31 0 -57 6t-54 25.5t-47.5 36.5t-53 58t-55 70.5t-67.5 92.5l-340 471q-72 100 -116 224t-25 241l18 117q11 74 -25 115.5t-96 41.5q-85 0 -133.5 -56t-48.5 -146q0 -42 11.5 -101t25.5 -94l278 -682q35 -86 43 -161.5t-10.5 -133.5
t-70 -91.5t-132.5 -33.5z" />
    <glyph glyph-name="uni0145" unicode="&#x145;" horiz-adv-x="1806" 
d="M397 -31q-44 0 -80 8t-63 20.5t-47.5 36.5t-34 46t-23 60t-15 68t-8 80.5t-3 86.5t-0.5 96v553q0 138 12 235.5t35 161.5t62.5 100.5t88 51t117.5 14.5q48 0 90.5 -16t75.5 -39.5t71 -69t66.5 -86t71.5 -108.5l485 -760q37 -59 62.5 -83t52.5 -24q76 0 76 68
q0 44 -43 152l-189 485q-23 60 -34.5 114.5t-12 72t-0.5 59.5t11.5 81.5t36.5 75.5t71 58t107 22q73 0 126 -33t79.5 -89.5t36 -123t1.5 -139.5l-104 -948q-17 -149 -70.5 -218t-152.5 -69q-31 0 -57 6t-54 25.5t-47.5 36.5t-53 58t-55 70.5t-67.5 92.5l-340 471
q-72 100 -116 224t-25 241l18 117q11 74 -25 115.5t-96 41.5q-85 0 -133.5 -56t-48.5 -146q0 -42 11.5 -101t25.5 -94l278 -682q35 -86 43 -161.5t-10.5 -133.5t-70 -91.5t-132.5 -33.5zM649 -451l13 289q2 52 30 84t70.5 41t89.5 4.5t92 -20.5q71 -25 107 -76.5t25 -106.5
t-68 -90l-287 -176q-28 -18 -50.5 -3t-21.5 54z" />
    <glyph glyph-name="Ncaron" unicode="&#x147;" horiz-adv-x="1806" 
d="M893 1714q30 0 53 33l115 166q31 44 56 60t54 16q61 0 96.5 -42.5t35.5 -119.5q0 -63 -32 -104.5t-100 -47.5q-166 -14 -278 -12q-113 -2 -279 12q-68 6 -99.5 47t-31.5 105q0 77 35 119.5t96 42.5q30 0 55 -16t56 -60l115 -166q23 -33 53 -33zM397 -31q-44 0 -80 8
t-63 20.5t-47.5 36.5t-34 46t-23 60t-15 68t-8 80.5t-3 86.5t-0.5 96v553q0 138 12 235.5t35 161.5t62.5 100.5t88 51t117.5 14.5q48 0 90.5 -16t75.5 -39.5t71 -69t66.5 -86t71.5 -108.5l485 -760q37 -59 62.5 -83t52.5 -24q76 0 76 68q0 44 -43 152l-189 485
q-23 60 -34.5 114.5t-12 72t-0.5 59.5t11.5 81.5t36.5 75.5t71 58t107 22q73 0 126 -33t79.5 -89.5t36 -123t1.5 -139.5l-104 -948q-17 -149 -70.5 -218t-152.5 -69q-31 0 -57 6t-54 25.5t-47.5 36.5t-53 58t-55 70.5t-67.5 92.5l-340 471q-72 100 -116 224t-25 241l18 117
q11 74 -25 115.5t-96 41.5q-85 0 -133.5 -56t-48.5 -146q0 -42 11.5 -101t25.5 -94l278 -682q35 -86 43 -161.5t-10.5 -133.5t-70 -91.5t-132.5 -33.5z" />
    <glyph glyph-name="Eng" unicode="&#x14a;" horiz-adv-x="1806" 
d="M1276 20l-598 709q-75 89 -117.5 217t-23.5 248l18 117q11 74 -25 115.5t-96 41.5q-85 0 -133.5 -56t-48.5 -146q0 -42 11.5 -101t25.5 -94l278 -682q35 -86 43 -161.5t-10.5 -133.5t-70 -91.5t-132.5 -33.5q-44 0 -80 8t-63 20.5t-47.5 36.5t-34 46t-23 60t-15 68
t-8 80.5t-3 86.5t-0.5 96v553q0 138 12 235.5t35 161.5t62.5 100.5t88 51t117.5 14.5q48 0 90.5 -16t75.5 -39.5t71 -69t66.5 -86t71.5 -108.5l485 -760q37 -59 62.5 -83t52.5 -24q76 0 76 68q0 44 -43 152l-189 485q-23 60 -34.5 114.5t-12 72t-0.5 59.5t11.5 81.5
t36.5 75.5t71 58t107 22q73 0 126 -33t79.5 -89.5t36 -123t1.5 -139.5l-143 -1253q-11 -85 -33 -147t-63.5 -112.5t-109.5 -76t-163 -25.5q-112 0 -173.5 49t-61.5 125q0 42 20 70.5t50 38.5t65.5 8t67.5 -18l149 -72q40 -19 67 0t27 53q0 29 -21 66.5t-81 109.5z" />
    <glyph glyph-name="Omacron" unicode="&#x14c;" 
d="M1120 1704l-551 14q-47 2 -68.5 17t-21.5 49q0 65 94 78l467 67q112 17 161 -1.5t63 -76.5q16 -66 -19.5 -108t-124.5 -39zM848 -31q-357 0 -541 205.5t-184 607.5q0 401 183.5 603t541.5 202q359 0 543 -202t184 -603q0 -402 -184.5 -607.5t-542.5 -205.5zM883 147
l540 654q52 63 38.5 124.5t-87.5 90.5l-776 311q-81 33 -146.5 12t-89 -84t2.5 -161l276 -883q16 -52 59 -84t94.5 -28t88.5 48z" />
    <glyph glyph-name="Ohungarumlaut" unicode="&#x150;" 
d="M1372 1737l-362 -119q-31 -9 -48 16t3 45l264 281q55 59 131.5 49.5t107.5 -78.5q16 -40 15.5 -75.5t-29 -67.5t-82.5 -51zM903 1772l-305 -130q-25 -10 -41 10.5t-2 39.5l211 262q43 56 110.5 53t98.5 -61q18 -33 18.5 -64.5t-22 -61t-68.5 -48.5zM848 -31
q-357 0 -541 205.5t-184 607.5q0 401 183.5 603t541.5 202q359 0 543 -202t184 -603q0 -402 -184.5 -607.5t-542.5 -205.5zM883 147l540 654q52 63 38.5 124.5t-87.5 90.5l-776 311q-81 33 -146.5 12t-89 -84t2.5 -161l276 -883q16 -52 59 -84t94.5 -28t88.5 48z" />
    <glyph glyph-name="OE" unicode="&#x152;" horiz-adv-x="3022" 
d="M848 -31q-357 0 -541 205.5t-184 607.5q0 401 183.5 603t541.5 202q134 0 233 -25t182.5 -84.5t143.5 -162.5t104 -256q23 -82 68 -82q28 0 45.5 8.5t46.5 32.5l535 436q156 127 272 127q93 0 154 -66t61 -159q0 -171 -260 -236l-659 -168q-53 -12 -78 -33.5t-19 -52.5
q6 -34 35.5 -44.5t89.5 -0.5l959 172q102 20 161.5 -23.5t59.5 -152.5q0 -105 -57.5 -144.5t-163.5 -29.5l-959 88q-62 6 -90.5 -3t-34.5 -42q-6 -32 19.5 -53.5t77.5 -32.5l761 -168q261 -59 261 -235q0 -93 -61.5 -159.5t-154.5 -66.5q-59 0 -121 30t-151 91l-637 443
q-24 17 -33 23t-24.5 11.5t-34.5 5.5q-46 0 -68 -81q-43 -153 -103.5 -255.5t-144 -161.5t-182.5 -83.5t-233 -24.5zM883 147l622 531q57 54 40 116t-89 99l-858 434q-56 29 -109.5 24t-87 -38.5t-46.5 -89.5t10 -129l276 -883q25 -80 99.5 -101t142.5 37z" />
    <glyph glyph-name="OE" unicode="&#x153;" horiz-adv-x="3022" 
d="M848 -31q-357 0 -541 205.5t-184 607.5q0 401 183.5 603t541.5 202q134 0 233 -25t182.5 -84.5t143.5 -162.5t104 -256q23 -82 68 -82q28 0 45.5 8.5t46.5 32.5l535 436q156 127 272 127q93 0 154 -66t61 -159q0 -171 -260 -236l-659 -168q-53 -12 -78 -33.5t-19 -52.5
q6 -34 35.5 -44.5t89.5 -0.5l959 172q102 20 161.5 -23.5t59.5 -152.5q0 -105 -57.5 -144.5t-163.5 -29.5l-959 88q-62 6 -90.5 -3t-34.5 -42q-6 -32 19.5 -53.5t77.5 -32.5l761 -168q261 -59 261 -235q0 -93 -61.5 -159.5t-154.5 -66.5q-59 0 -121 30t-151 91l-637 443
q-24 17 -33 23t-24.5 11.5t-34.5 5.5q-46 0 -68 -81q-43 -153 -103.5 -255.5t-144 -161.5t-182.5 -83.5t-233 -24.5zM883 147l622 531q57 54 40 116t-89 99l-858 434q-56 29 -109.5 24t-87 -38.5t-46.5 -89.5t10 -129l276 -883q25 -80 99.5 -101t142.5 37z" />
    <glyph glyph-name="Racute" unicode="&#x154;" horiz-adv-x="1767" 
d="M1331 1718l-375 -71q-31 -6 -44 21t8 44l299 246q62 51 136.5 31.5t96.5 -91.5q20 -64 -9 -114t-112 -66zM1653 227q0 -51 -15 -95t-46.5 -82t-88 -59.5t-133.5 -21.5q-158 0 -303 176l-506 613q-65 82 -65 129q1 39 30 52t88 5l623 -80q79 -10 137.5 0.5t91 37.5
t47.5 61.5t15 76.5q0 78 -59.5 128.5t-168.5 50.5h-641q-152 0 -238.5 -78.5t-86.5 -192.5q0 -56 26 -119l209 -491q31 -73 38.5 -137.5t-9.5 -117t-70 -83.5t-137 -31q-51 0 -96 20.5t-85 64t-63.5 122.5t-23.5 184q0 211 35 395t108 337.5t180 263t258 170.5t334 61
q105 0 194 -18.5t152 -49t113 -73t81 -87.5t51 -95.5t28 -94.5t8 -86q0 -57 -13 -102.5t-48 -93.5t-104.5 -90.5t-174.5 -79.5l-336 -119q-88 -29 -88 -90q0 -35 26 -49.5t85 -14.5l403 -4q103 -2 170.5 -60.5t67.5 -152.5z" />
    <glyph glyph-name="uni0156" unicode="&#x156;" horiz-adv-x="1767" 
d="M1653 227q0 -51 -15 -95t-46.5 -82t-88 -59.5t-133.5 -21.5q-158 0 -303 176l-506 613q-65 82 -65 129q1 39 30 52t88 5l623 -80q79 -10 137.5 0.5t91 37.5t47.5 61.5t15 76.5q0 78 -59.5 128.5t-168.5 50.5h-641q-152 0 -238.5 -78.5t-86.5 -192.5q0 -56 26 -119
l209 -491q31 -73 38.5 -137.5t-9.5 -117t-70 -83.5t-137 -31q-51 0 -96 20.5t-85 64t-63.5 122.5t-23.5 184q0 211 35 395t108 337.5t180 263t258 170.5t334 61q105 0 194 -18.5t152 -49t113 -73t81 -87.5t51 -95.5t28 -94.5t8 -86q0 -57 -13 -102.5t-48 -93.5t-104.5 -90.5
t-174.5 -79.5l-336 -119q-88 -29 -88 -90q0 -35 26 -49.5t85 -14.5l403 -4q103 -2 170.5 -60.5t67.5 -152.5zM649 -451l13 289q2 52 30 84t70.5 41t89.5 4.5t92 -20.5q71 -25 107 -76.5t25 -106.5t-68 -90l-287 -176q-28 -18 -50.5 -3t-21.5 54z" />
    <glyph glyph-name="Rcaron" unicode="&#x158;" horiz-adv-x="1767" 
d="M1028 1714q30 0 53 33l115 166q31 44 56 60t55 16q61 0 96 -42.5t35 -119.5q0 -64 -31.5 -105t-99.5 -47q-166 -14 -279 -12q-112 -2 -278 12q-68 6 -100 47.5t-32 104.5q0 77 35.5 119.5t96.5 42.5q29 0 54 -16t56 -60l115 -166q23 -33 53 -33zM1653 227q0 -51 -15 -95
t-46.5 -82t-88 -59.5t-133.5 -21.5q-158 0 -303 176l-506 613q-65 82 -65 129q1 39 30 52t88 5l623 -80q79 -10 137.5 0.5t91 37.5t47.5 61.5t15 76.5q0 78 -59.5 128.5t-168.5 50.5h-641q-152 0 -238.5 -78.5t-86.5 -192.5q0 -56 26 -119l209 -491q31 -73 38.5 -137.5
t-9.5 -117t-70 -83.5t-137 -31q-51 0 -96 20.5t-85 64t-63.5 122.5t-23.5 184q0 211 35 395t108 337.5t180 263t258 170.5t334 61q105 0 194 -18.5t152 -49t113 -73t81 -87.5t51 -95.5t28 -94.5t8 -86q0 -57 -13 -102.5t-48 -93.5t-104.5 -90.5t-174.5 -79.5l-336 -119
q-88 -29 -88 -90q0 -35 26 -49.5t85 -14.5l403 -4q103 -2 170.5 -60.5t67.5 -152.5z" />
    <glyph glyph-name="Sacute" unicode="&#x15a;" horiz-adv-x="1708" 
d="M1169 1718l-374 -71q-31 -6 -44.5 21t7.5 44l299 246q62 51 136.5 31.5t96.5 -91.5q20 -64 -9 -114t-112 -66zM745 -29q-142 0 -256.5 29t-188.5 77.5t-123.5 114t-70 134t-20.5 143.5q0 61 15.5 114t55 91.5t97.5 38.5q71 0 115.5 -51t44.5 -119v-348q0 -78 46 -104.5
t138 13.5l717 347q89 43 114 66q38 35 25 83q-14 55 -58 67.5t-96 -14.5l-434 -200q-99 -43 -172 -23.5t-115 77.5t-44 134l-3 78q-1 53 -24.5 71t-91.5 33l-129 31q-62 15 -101 68.5t-39 117.5q0 129 62.5 235.5t165.5 174t231.5 104.5t265.5 37q109 0 209.5 -18.5
t191.5 -59t158 -100t106.5 -147.5t39.5 -195q0 -113 -44 -179.5t-132 -66.5q-25 0 -51 9t-47 29t-31.5 48t-1.5 69.5t41 88.5l90 135q18 29 16 53t-18 35q-39 28 -144 6l-882 -190q-114 -23 -103 -100q4 -33 26.5 -50t72.5 -26l1042 -189q85 -14 129.5 -68.5t44.5 -131.5
q0 -106 -66 -209.5t-177 -183.5t-268.5 -129.5t-328.5 -49.5z" />
    <glyph glyph-name="Scedilla" unicode="&#x15e;" horiz-adv-x="1708" 
d="M1585 543q0 -94 -53 -187.5t-144 -169.5t-221 -130.5t-276 -73.5q-12 -38 -10.5 -49t20.5 -11q13 0 49.5 9.5t65.5 9.5q66 0 122 -47t56 -111q0 -81 -71.5 -131t-184 -58.5t-250.5 13.5q-120 24 -176 62.5t-47 99.5q7 48 40.5 77t78.5 28t82 -32l47 -39l65 168h-33
q-142 0 -256.5 29t-188.5 77.5t-123.5 114t-70 134t-20.5 143.5q0 61 15.5 114t55 91.5t97.5 38.5q71 0 115.5 -51t44.5 -119v-348q0 -78 46 -104.5t138 13.5l717 347q89 43 114 66q38 35 25 83q-14 55 -58 67.5t-96 -14.5l-434 -200q-99 -43 -172 -23.5t-115 77.5t-44 134
l-3 78q-1 53 -24.5 71t-91.5 33l-129 31q-62 15 -101 68.5t-39 117.5q0 129 62.5 235.5t165.5 174t231.5 104.5t265.5 37q109 0 209.5 -18.5t191.5 -59t158 -100t106.5 -147.5t39.5 -195q0 -113 -44 -179.5t-132 -66.5q-25 0 -51 9t-47 29t-31.5 48t-1.5 69.5t41 88.5
l90 135q18 29 16 53t-18 35q-39 28 -144 6l-882 -190q-114 -23 -103 -100q4 -33 26.5 -50t72.5 -26l1042 -189q85 -14 129.5 -68.5t44.5 -131.5zM1014 -162q-74 0 -144 -45q-25 -16 -27.5 -42.5t19 -47t58.5 -20.5q68 0 115.5 29.5t47.5 66.5q0 28 -18.5 43.5t-50.5 15.5z
" />
    <glyph glyph-name="Scaron" unicode="&#x160;" horiz-adv-x="1708" 
d="M866 1714q31 0 54 33l114 166q31 44 56 60t55 16q61 0 96 -42.5t35 -119.5q0 -64 -31.5 -105t-99.5 -47q-166 -14 -279 -12q-112 -2 -278 12q-68 6 -99.5 47t-31.5 105q0 77 35 119.5t96 42.5q29 0 54 -16t56 -60l115 -166q23 -33 53 -33zM745 -29q-142 0 -256.5 29
t-188.5 77.5t-123.5 114t-70 134t-20.5 143.5q0 61 15.5 114t55 91.5t97.5 38.5q71 0 115.5 -51t44.5 -119v-348q0 -78 46 -104.5t138 13.5l717 347q89 43 114 66q38 35 25 83q-14 55 -58 67.5t-96 -14.5l-434 -200q-99 -43 -172 -23.5t-115 77.5t-44 134l-3 78
q-1 53 -24.5 71t-91.5 33l-129 31q-62 15 -101 68.5t-39 117.5q0 129 62.5 235.5t165.5 174t231.5 104.5t265.5 37q109 0 209.5 -18.5t191.5 -59t158 -100t106.5 -147.5t39.5 -195q0 -113 -44 -179.5t-132 -66.5q-25 0 -51 9t-47 29t-31.5 48t-1.5 69.5t41 88.5l90 135
q18 29 16 53t-18 35q-39 28 -144 6l-882 -190q-114 -23 -103 -100q4 -33 26.5 -50t72.5 -26l1042 -189q85 -14 129.5 -68.5t44.5 -131.5q0 -106 -66 -209.5t-177 -183.5t-268.5 -129.5t-328.5 -49.5z" />
    <glyph glyph-name="uni0162" unicode="&#x162;" horiz-adv-x="1566" 
d="M616 1556h701q76 0 133 -20.5t87.5 -54.5t45 -72t14.5 -80q0 -57 -23.5 -106.5t-62 -82.5t-90 -50t-104.5 -14t-109.5 30t-101.5 78l-229 256q-29 33 -62 33q-92 0 -35 -164l330 -959q57 -142 33.5 -242.5t-129.5 -127.5q-12 -37 -10.5 -47.5t20.5 -10.5q13 0 49.5 9.5
t65.5 9.5q66 0 122 -47t56 -111q0 -81 -71.5 -131t-184 -58.5t-250.5 13.5q-120 24 -176 62.5t-47 99.5q7 48 40.5 77t78 28t81.5 -32l48 -39l65 166q-122 9 -166 86t-47 244l-22 1001q-2 97 -20.5 140t-59.5 43q-90 0 -90 -158v-90q0 -219 -55 -317.5t-191 -94.5
q-97 3 -163.5 75t-66.5 169q0 217 161 353t435 136zM1137 -162q-74 0 -144 -45q-25 -16 -28 -42.5t18.5 -47t58.5 -20.5q68 0 116 29.5t48 66.5q0 28 -18.5 43.5t-50.5 15.5z" />
    <glyph glyph-name="Tcaron" unicode="&#x164;" horiz-adv-x="1566" 
d="M713 1714q30 0 53 33l115 166q31 44 56 60t54 16q61 0 96 -42.5t35 -119.5q0 -64 -31.5 -105t-99.5 -47q-166 -14 -278 -12q-113 -2 -279 12q-68 6 -99.5 47t-31.5 105q0 77 35 119.5t96 42.5q30 0 55 -16t56 -60l114 -166q23 -33 54 -33zM780 1309l330 -959
q40 -113 39.5 -198t-56.5 -134t-163 -49q-59 0 -100.5 14t-68.5 39t-43 67.5t-22.5 91.5t-7.5 118l-22 1001q-2 97 -20.5 140t-59.5 43q-90 0 -90 -158v-90q0 -219 -55 -317.5t-191 -94.5q-97 3 -163.5 75t-66.5 169q0 217 161 353t435 136h701q76 0 133 -20.5t87.5 -54.5
t45 -72t14.5 -80q0 -57 -23.5 -106.5t-62 -82.5t-90 -50t-104.5 -14t-109.5 30t-101.5 78l-229 256q-29 33 -62 33q-92 0 -35 -164z" />
    <glyph glyph-name="Tbar" unicode="&#x166;" horiz-adv-x="1566" 
d="M20 1067q0 217 161 353t435 136h701q76 0 133 -20.5t87.5 -54.5t45 -72t14.5 -80q0 -57 -23.5 -106.5t-62 -82.5t-90 -50t-104.5 -14t-109.5 30t-101.5 78l-229 256q-29 33 -62 33q-86 0 -35 -164l158 -508q23 -85 111 -41l178 84q67 33 114 25t73 -35t36 -68
q11 -43 0.5 -83t-47.5 -66t-96 -19l-234 27q-36 4 -48 -20t1 -54l84 -201q43 -112 42 -197t-58 -134.5t-164 -49.5q-143 0 -196.5 80t-45.5 250l10 229q2 29 -17 40t-54 -3l-201 -92q-49 -23 -89.5 -25.5t-67 12.5t-43 38t-23.5 53q-17 69 19.5 122.5t123.5 45.5l291 -27
q32 -3 46.5 10t12.5 43l-30 555q-6 100 -23 141.5t-57 41.5q-90 0 -90 -158v-90q0 -219 -55 -317.5t-191 -94.5q-97 3 -163.5 75t-66.5 169z" />
    <glyph glyph-name="Umacron" unicode="&#x16a;" horiz-adv-x="1622" 
d="M1096 1704l-551 14q-47 2 -68.5 17t-21.5 49q0 65 94 78l467 67q112 17 160.5 -1.5t62.5 -76.5q16 -66 -19 -108t-124 -39zM1243 475l-418 453q-39 43 -55 88.5t-9.5 81.5t31 62.5t60 35.5t83.5 -5.5t97 -53.5l238 -193q20 -16 40.5 -19.5t33.5 1.5t22 14q46 46 -4 104
l-119 138q-78 90 -106.5 135.5t-28.5 97.5q0 75 50 123.5t136 48.5q108 0 156.5 -66.5t48.5 -203.5v-768q0 -580 -680 -580q-206 0 -363.5 77t-245 221.5t-87.5 336.5v664q0 167 59.5 243t179.5 76q78 0 132.5 -39t74.5 -97t12 -124.5t-44 -120.5l-252 -372
q-62 -94 -44.5 -172.5t109.5 -124.5l582 -299q250 -128 346 8q28 40 27.5 86.5t-18 80.5t-44.5 62z" />
    <glyph glyph-name="Uring" unicode="&#x16e;" horiz-adv-x="1622" 
d="M743 1673q-60 11 -99 30t-54.5 42t-20.5 50.5t2 57.5q32 168 353 115q79 -13 120.5 -56.5t28.5 -117.5q-31 -176 -330 -121zM862 1743q71 20 60 94q-5 36 -31.5 54t-58.5 16.5t-64 -9.5q-55 -18 -47 -92q12 -98 141 -63zM1243 475l-418 453q-39 43 -55 88.5t-9.5 81.5
t31 62.5t60 35.5t83.5 -5.5t97 -53.5l238 -193q20 -16 40.5 -19.5t33.5 1.5t22 14q46 46 -4 104l-119 138q-78 90 -106.5 135.5t-28.5 97.5q0 75 50 123.5t136 48.5q108 0 156.5 -66.5t48.5 -203.5v-768q0 -580 -680 -580q-206 0 -363.5 77t-245 221.5t-87.5 336.5v664
q0 167 59.5 243t179.5 76q78 0 132.5 -39t74.5 -97t12 -124.5t-44 -120.5l-252 -372q-62 -94 -44.5 -172.5t109.5 -124.5l582 -299q250 -128 346 8q28 40 27.5 86.5t-18 80.5t-44.5 62z" />
    <glyph glyph-name="Uhungarumlaut" unicode="&#x170;" horiz-adv-x="1622" 
d="M1348 1737l-363 -119q-31 -9 -48 16t3 45l264 281q55 59 132 49.5t108 -78.5q16 -40 15.5 -75.5t-29 -67.5t-82.5 -51zM879 1772l-306 -130q-25 -10 -41 10.5t-2 39.5l211 262q43 56 110.5 53t98.5 -61q18 -33 19 -64.5t-21.5 -61t-68.5 -48.5zM1243 475l-418 453
q-39 43 -55 88.5t-9.5 81.5t31 62.5t60 35.5t83.5 -5.5t97 -53.5l238 -193q20 -16 40.5 -19.5t33.5 1.5t22 14q46 46 -4 104l-119 138q-78 90 -106.5 135.5t-28.5 97.5q0 75 50 123.5t136 48.5q108 0 156.5 -66.5t48.5 -203.5v-768q0 -580 -680 -580q-206 0 -363.5 77
t-245 221.5t-87.5 336.5v664q0 167 59.5 243t179.5 76q78 0 132.5 -39t74.5 -97t12 -124.5t-44 -120.5l-252 -372q-62 -94 -44.5 -172.5t109.5 -124.5l582 -299q250 -128 346 8q28 40 27.5 86.5t-18 80.5t-44.5 62z" />
    <glyph glyph-name="Uogonek" unicode="&#x172;" horiz-adv-x="1622" 
d="M1294 1587q108 0 156.5 -66.5t48.5 -203.5v-768q0 -446 -401 -549l-166 -76q-33 -15 -46.5 -33.5t-13.5 -46.5q0 -32 26 -48.5t69 -4.5l149 39q47 11 90.5 12t74 -23.5t30.5 -72.5q0 -72 -64.5 -114t-163.5 -42q-86 0 -159.5 31.5t-114 83t-49 116t36.5 130.5l12 18
q-308 3 -497 175.5t-189 459.5v664q0 167 59.5 243t179.5 76q78 0 132.5 -39t74.5 -97t12 -124.5t-44 -120.5l-252 -372q-62 -94 -44.5 -172.5t109.5 -124.5l582 -299q250 -128 346 8q28 40 27.5 86.5t-18 80.5t-44.5 62l-418 453q-39 43 -55 88.5t-9.5 81.5t31 62.5
t60 35.5t83.5 -5.5t97 -53.5l238 -193q20 -16 40.5 -19.5t33.5 1.5t22 14q46 46 -4 104l-119 138q-78 90 -106.5 135.5t-28.5 97.5q0 75 50 123.5t136 48.5z" />
    <glyph glyph-name="Wcircumflex" unicode="&#x174;" horiz-adv-x="2347" 
d="M1315 1937q-31 0 -53 -32l-115 -166q-31 -44 -56 -60t-55 -16q-61 0 -96 42.5t-35 119.5q0 63 31.5 104t99.5 47q175 15 279 13q103 2 278 -13q68 -6 99.5 -47t31.5 -104q0 -77 -35 -119.5t-96 -42.5q-29 0 -54 16t-56 60l-115 166q-22 32 -53 32zM2095 813l-293 404
q-73 100 -73 163q0 88 72 147.5t188 59.5q83 0 138 -56.5t86.5 -197t31.5 -370.5q0 -101 -21 -212.5t-60 -222.5t-100 -211.5t-135 -178t-171.5 -123.5t-203.5 -46q-226 0 -277 154.5t77 419.5l153 325q11 22 11 52q0 45 -43 45q-35 0 -74 -56l-572 -800q-49 -68 -117 -104
t-134 -36q-130 0 -210.5 81t-80.5 229q0 64 10 118l182 914q10 59 -8 92t-57 33t-68.5 -27t-36.5 -82l-49 -373q-14 -125 -115 -125q-30 0 -57 24.5t-27 61.5q0 108 37.5 224.5t103.5 217t169 165.5t221 65q167 0 246.5 -54t79.5 -151q0 -112 -127 -311l-297 -471
q-30 -47 -43 -69.5t-24 -51.5t-11 -55q0 -48 28 -76.5t82 -28.5q38 0 70 29.5t84 106.5l467 698q113 168 237 168q61 0 99.5 -38.5t60.5 -133.5l148 -649q41 -172 153 -172q48 0 85 25.5t77 99.5l80 147q43 75 43 123q0 43 -35 90z" />
    <glyph glyph-name="Wcircumflex" unicode="&#x175;" horiz-adv-x="2347" 
d="M1315 1937q-31 0 -53 -32l-115 -166q-31 -44 -56 -60t-55 -16q-61 0 -96 42.5t-35 119.5q0 63 31.5 104t99.5 47q175 15 279 13q103 2 278 -13q68 -6 99.5 -47t31.5 -104q0 -77 -35 -119.5t-96 -42.5q-29 0 -54 16t-56 60l-115 166q-22 32 -53 32zM2095 813l-293 404
q-73 100 -73 163q0 88 72 147.5t188 59.5q83 0 138 -56.5t86.5 -197t31.5 -370.5q0 -101 -21 -212.5t-60 -222.5t-100 -211.5t-135 -178t-171.5 -123.5t-203.5 -46q-226 0 -277 154.5t77 419.5l153 325q11 22 11 52q0 45 -43 45q-35 0 -74 -56l-572 -800q-49 -68 -117 -104
t-134 -36q-130 0 -210.5 81t-80.5 229q0 64 10 118l182 914q10 59 -8 92t-57 33t-68.5 -27t-36.5 -82l-49 -373q-14 -125 -115 -125q-30 0 -57 24.5t-27 61.5q0 108 37.5 224.5t103.5 217t169 165.5t221 65q167 0 246.5 -54t79.5 -151q0 -112 -127 -311l-297 -471
q-30 -47 -43 -69.5t-24 -51.5t-11 -55q0 -48 28 -76.5t82 -28.5q38 0 70 29.5t84 106.5l467 698q113 168 237 168q61 0 99.5 -38.5t60.5 -133.5l148 -649q41 -172 153 -172q48 0 85 25.5t77 99.5l80 147q43 75 43 123q0 43 -35 90z" />
    <glyph glyph-name="Ycircumflex" unicode="&#x176;" horiz-adv-x="1579" 
d="M809 1937q-31 0 -53 -32l-115 -166q-31 -44 -56 -60t-55 -16q-61 0 -96 42.5t-35 119.5q0 63 31.5 104t99.5 47q175 15 279 13q103 2 278 -13q68 -6 100 -47t32 -104q0 -77 -35.5 -119.5t-96.5 -42.5q-29 0 -54 16t-56 60l-115 166q-22 32 -53 32zM1133 834l-17 548
q-3 118 93 174q82 48 186 25t150 -104q27 -47 26 -107q-1 -39 -22.5 -93.5t-43 -92.5t-59.5 -99l-502 -823q-178 -293 -348 -293q-86 0 -148 45t-79.5 109.5t-6.5 129.5t71 110t153 45h192q49 0 77.5 10t34.5 26t1.5 32.5t-17.5 33.5l-630 844q-27 36 -57.5 36.5t-45 -27.5
t-0.5 -65l92 -239q55 -144 -55 -182q-24 -8 -56 11t-48 60q-16 42 -24.5 96.5t-7.5 115.5t11 121.5t33.5 115.5t57 97.5t84 67.5t112.5 25q83 0 136 -40.5t126 -145.5l412 -594q28 -39 51.5 -51.5t38 -1.5t22.5 32.5t7 47.5z" />
    <glyph glyph-name="Ycircumflex" unicode="&#x177;" horiz-adv-x="1579" 
d="M809 1937q-31 0 -53 -32l-115 -166q-31 -44 -56 -60t-55 -16q-61 0 -96 42.5t-35 119.5q0 63 31.5 104t99.5 47q175 15 279 13q103 2 278 -13q68 -6 100 -47t32 -104q0 -77 -35.5 -119.5t-96.5 -42.5q-29 0 -54 16t-56 60l-115 166q-22 32 -53 32zM1133 834l-17 548
q-3 118 93 174q82 48 186 25t150 -104q27 -47 26 -107q-1 -39 -22.5 -93.5t-43 -92.5t-59.5 -99l-502 -823q-178 -293 -348 -293q-86 0 -148 45t-79.5 109.5t-6.5 129.5t71 110t153 45h192q49 0 77.5 10t34.5 26t1.5 32.5t-17.5 33.5l-630 844q-27 36 -57.5 36.5t-45 -27.5
t-0.5 -65l92 -239q55 -144 -55 -182q-24 -8 -56 11t-48 60q-16 42 -24.5 96.5t-7.5 115.5t11 121.5t33.5 115.5t57 97.5t84 67.5t112.5 25q83 0 136 -40.5t126 -145.5l412 -594q28 -39 51.5 -51.5t38 -1.5t22.5 32.5t7 47.5z" />
    <glyph glyph-name="Zacute" unicode="&#x179;" horiz-adv-x="1695" 
d="M1139 1718l-375 -71q-31 -6 -44.5 21t7.5 44l299 246q62 51 137 31.5t97 -91.5q20 -64 -9 -114t-112 -66zM750 598l667 -203q85 -30 124.5 -85t39.5 -115q0 -88 -55 -158t-152 -70q-60 0 -132.5 31t-131.5 92l-397 414q-41 41 -74 41q-29 0 -44 -28t-15 -97v-139
q0 -125 -58 -217.5t-162 -92.5q-109 0 -179 58t-70 145q0 103 94 197l993 989q22 22 23.5 49.5t-14.5 45.5t-41 25t-56 -12l-528 -315q-149 -90 -267 -90q-93 0 -149.5 61t-63.5 183q-4 65 19 114.5t68 78t104 42.5t131 14h774q186 0 290.5 -70.5t104.5 -178.5
q0 -98 -90.5 -195t-263.5 -170l-489 -207q-56 -24 -57 -71.5t57 -65.5z" />
    <glyph glyph-name="Zdotaccent" unicode="&#x17b;" horiz-adv-x="1695" 
d="M768 1669q-88 21 -114.5 66.5t-16.5 113.5q8 51 40 82.5t78.5 40.5t94.5 7t98 -15q59 -15 90.5 -58t18.5 -116q-8 -54 -37 -87t-71.5 -42.5t-86.5 -7t-94 15.5zM750 598l667 -203q85 -30 124.5 -85t39.5 -115q0 -88 -55 -158t-152 -70q-60 0 -132.5 31t-131.5 92
l-397 414q-41 41 -74 41q-29 0 -44 -28t-15 -97v-139q0 -125 -58 -217.5t-162 -92.5q-109 0 -179 58t-70 145q0 103 94 197l993 989q22 22 23.5 49.5t-14.5 45.5t-41 25t-56 -12l-528 -315q-149 -90 -267 -90q-93 0 -149.5 61t-63.5 183q-4 65 19 114.5t68 78t104 42.5
t131 14h774q186 0 290.5 -70.5t104.5 -178.5q0 -98 -90.5 -195t-263.5 -170l-489 -207q-56 -24 -57 -71.5t57 -65.5z" />
    <glyph glyph-name="Zcaron" unicode="&#x17d;" horiz-adv-x="1695" 
d="M836 1714q30 0 53 33l115 166q31 44 56 60t54 16q61 0 96 -42.5t35 -119.5q0 -64 -31.5 -105t-99.5 -47q-166 -14 -278 -12q-113 -2 -279 12q-68 6 -99.5 47t-31.5 105q0 77 35 119.5t96 42.5q30 0 55 -16t56 -60l114 -166q23 -33 54 -33zM750 598l667 -203
q85 -30 124.5 -85t39.5 -115q0 -88 -55 -158t-152 -70q-60 0 -132.5 31t-131.5 92l-397 414q-41 41 -74 41q-29 0 -44 -28t-15 -97v-139q0 -125 -58 -217.5t-162 -92.5q-109 0 -179 58t-70 145q0 103 94 197l993 989q22 22 23.5 49.5t-14.5 45.5t-41 25t-56 -12l-528 -315
q-149 -90 -267 -90q-93 0 -149.5 61t-63.5 183q-4 65 19 114.5t68 78t104 42.5t131 14h774q186 0 290.5 -70.5t104.5 -178.5q0 -98 -90.5 -195t-263.5 -170l-489 -207q-56 -24 -57 -71.5t57 -65.5z" />
    <glyph glyph-name="uni01CD" unicode="&#x1cd;" horiz-adv-x="1638" 
d="M1092 1714q30 0 53 33l115 166q31 44 56 60t54 16q61 0 96 -42.5t35 -119.5q0 -64 -31.5 -105t-99.5 -47q-166 -14 -278 -12q-113 -2 -279 12q-68 6 -99.5 47t-31.5 105q0 77 35 119.5t96 42.5q30 0 55 -16t56 -60l114 -166q23 -33 54 -33zM389 465l529 12q97 2 147.5 29
t58.5 100l88 725q10 84 -26 132t-101 36q-30 -6 -59.5 -31.5t-58 -72t-39.5 -67t-33 -64.5l-248 -508q-31 -63 -79.5 -101.5t-90 -49.5t-86.5 -11q-91 0 -155 66t-64 161q0 118 156 244l411 328q146 116 218.5 155t166.5 39q91 0 152 -60.5t82 -166.5l186 -985
q34 -180 -25.5 -293t-211.5 -113q-120 0 -184 66t-64 166v106q0 82 -38.5 98t-92.5 -32l-201 -172q-9 -7 -43 -37t-52 -45t-53.5 -42t-63 -42.5t-62.5 -32.5t-70 -25t-70 -8q-47 0 -90 14t-80.5 43t-59.5 81.5t-22 121.5q0 116 91 174.5t237 61.5z" />
    <glyph glyph-name="uni0218" unicode="&#x218;" horiz-adv-x="1708" 
d="M745 -29q-142 0 -256.5 29t-188.5 77.5t-123.5 114t-70 134t-20.5 143.5q0 61 15.5 114t55 91.5t97.5 38.5q71 0 115.5 -51t44.5 -119v-348q0 -78 46 -104.5t138 13.5l717 347q89 43 114 66q38 35 25 83q-14 55 -58 67.5t-96 -14.5l-434 -200q-99 -43 -172 -23.5
t-115 77.5t-44 134l-3 78q-1 53 -24.5 71t-91.5 33l-129 31q-62 15 -101 68.5t-39 117.5q0 129 62.5 235.5t165.5 174t231.5 104.5t265.5 37q109 0 209.5 -18.5t191.5 -59t158 -100t106.5 -147.5t39.5 -195q0 -113 -44 -179.5t-132 -66.5q-25 0 -51 9t-47 29t-31.5 48
t-1.5 69.5t41 88.5l90 135q18 29 16 53t-18 35q-39 28 -144 6l-882 -190q-114 -23 -103 -100q4 -33 26.5 -50t72.5 -26l1042 -189q85 -14 129.5 -68.5t44.5 -131.5q0 -106 -66 -209.5t-177 -183.5t-268.5 -129.5t-328.5 -49.5zM649 -451l13 236q3 52 31 84t70.5 41t89 4.5
t91.5 -20.5q110 -39 130 -102t-66 -118l-287 -176q-28 -18 -50.5 -3t-21.5 54z" />
    <glyph glyph-name="uni021A" unicode="&#x21a;" horiz-adv-x="1566" 
d="M780 1309l330 -959q40 -113 39.5 -198t-56.5 -134t-163 -49q-59 0 -100.5 14t-68.5 39t-43 67.5t-22.5 91.5t-7.5 118l-22 1001q-2 97 -20.5 140t-59.5 43q-90 0 -90 -158v-90q0 -219 -55 -317.5t-191 -94.5q-97 3 -163.5 75t-66.5 169q0 217 161 353t435 136h701
q76 0 133 -20.5t87.5 -54.5t45 -72t14.5 -80q0 -57 -23.5 -106.5t-62 -82.5t-90 -50t-104.5 -14t-109.5 30t-101.5 78l-229 256q-29 33 -62 33q-92 0 -35 -164zM766 -451l12 236q3 52 31 84t70.5 41t89.5 4.5t92 -20.5q110 -39 129.5 -102.5t-66.5 -117.5l-286 -176
q-28 -18 -50.5 -3t-21.5 54z" />
    <glyph glyph-name="uni02BC" unicode="&#x2bc;" horiz-adv-x="589" 
d="M41 1065l74 391q10 51 39 82.5t69.5 41t84.5 5.5t89 -20q57 -20 89.5 -57t36 -76t-4.5 -78q-13 -50 -57 -82l-348 -258q-25 -20 -52 -3.5t-20 54.5z" />
    <glyph glyph-name="circumflex" unicode="&#x2c6;" horiz-adv-x="1228" 
d="M612 1937q-31 0 -53 -32l-115 -166q-31 -44 -56 -60t-54 -16q-61 0 -96 42.5t-35 119.5q0 63 31.5 104t99.5 47q175 15 278 13q104 2 279 -13q68 -6 99.5 -47t31.5 -104q0 -77 -35 -119.5t-96 -42.5q-30 0 -55 16t-56 60l-114 166q-22 32 -54 32z" />
    <glyph glyph-name="caron" unicode="&#x2c7;" horiz-adv-x="1228" 
d="M612 1714q31 0 54 33l114 166q31 44 56 60t55 16q61 0 96 -42.5t35 -119.5q0 -64 -31.5 -105t-99.5 -47q-166 -14 -279 -12q-112 -2 -278 12q-68 6 -99.5 47t-31.5 105q0 77 35 119.5t96 42.5q29 0 54 -16t56 -60l115 -166q23 -33 53 -33z" />
    <glyph glyph-name="breve" unicode="&#x2d8;" horiz-adv-x="1228" 
d="M612 1653q-399 -10 -399 235q0 48 31.5 74.5t72.5 26.5q96 0 138 -97q3 -7 13.5 -32t14 -32t12.5 -27t14.5 -26.5t15 -21t17.5 -19.5t19.5 -12t24 -9.5t26.5 -2.5q13 0 25 3t21 6t19 12t16 14t15 19t13 20.5t12.5 25t11.5 25t12.5 28.5t12.5 29q42 97 137 97
q41 0 73 -26.5t32 -74.5q0 -245 -400 -235z" />
    <glyph glyph-name="dotaccent" unicode="&#x2d9;" horiz-adv-x="1228" 
d="M555 1669q-88 21 -114.5 66.5t-16.5 113.5q8 51 40 82.5t78.5 40.5t94.5 7t98 -15q59 -15 90.5 -58t18.5 -116q-8 -54 -37 -87t-71.5 -42.5t-86.5 -7t-94 15.5z" />
    <glyph glyph-name="ring" unicode="&#x2da;" horiz-adv-x="1228" 
d="M539 1673q-60 11 -99 30t-54.5 42t-20.5 50.5t2 57.5q32 168 352 115q79 -13 120.5 -56.5t28.5 -117.5q-10 -54 -42.5 -86t-82 -41t-97.5 -7t-107 13zM657 1743q71 20 60 94q-5 36 -31.5 54t-58.5 16.5t-64 -9.5q-55 -18 -47 -92q12 -98 141 -63z" />
    <glyph glyph-name="tilde" unicode="&#x2dc;" horiz-adv-x="1228" 
d="M647 1835l35 -39q47 -50 80 0l78 113q34 48 85.5 58t92.5 -17.5t47 -79.5q9 -76 -27 -124t-102 -66.5t-166 -18.5q-57 0 -105 27.5t-102 93.5l-39 47q-44 53 -80 0l-77 -113q-28 -41 -77.5 -53.5t-95 9.5t-61.5 73q-16 47 -5.5 83.5t36.5 62t69 42t93.5 24t109.5 7.5
q54 0 101 -29t110 -100z" />
    <glyph glyph-name="hungarumlaut" unicode="&#x2dd;" horiz-adv-x="1228" 
d="M1143 1737l-363 -119q-31 -9 -48 16t3 45l264 281q55 59 132 49.5t108 -78.5q16 -40 15.5 -75.5t-29 -67.5t-82.5 -51zM674 1772l-305 -130q-25 -10 -41 10.5t-2 39.5l211 262q43 56 110 53t98 -61q18 -33 19 -64.5t-21.5 -61t-68.5 -48.5z" />
    <glyph glyph-name="gravecomb" unicode="&#x300;" horiz-adv-x="0" 
d="M-557 1647l-375 71q-83 16 -112 66t-9 114q22 72 97 91.5t137 -31.5l299 -246q21 -17 7.5 -44t-44.5 -21z" />
    <glyph glyph-name="acutecomb" unicode="&#x301;" horiz-adv-x="0" 
d="M-324 1718l-374 -71q-31 -6 -44.5 21t7.5 44l299 246q62 51 136.5 31.5t96.5 -91.5q20 -64 -9 -114t-112 -66z" />
    <glyph glyph-name="uni0302" unicode="&#x302;" horiz-adv-x="0" 
d="M-616 1937q-32 0 -54 -32l-114 -166q-31 -44 -56 -60t-55 -16q-61 0 -96 42.5t-35 119.5q0 63 31.5 104t99.5 47q175 15 279 13q103 2 278 -13q68 -6 99.5 -47t31.5 -104q0 -77 -35 -119.5t-96 -42.5q-30 0 -55 16t-56 60l-114 166q-22 32 -53 32z" />
    <glyph glyph-name="tildecomb" unicode="&#x303;" horiz-adv-x="0" 
d="M-582 1835l35 -39q47 -50 80 0l78 113q34 48 85.5 58t92.5 -17.5t47 -79.5q9 -76 -27 -124t-102 -66.5t-166 -18.5q-57 0 -105 27.5t-102 93.5l-39 47q-23 28 -41.5 28t-37.5 -28l-78 -113q-28 -41 -77.5 -53.5t-95 9.5t-61.5 73q-16 47 -5.5 83.5t36.5 62t69 42t93.5 24
t109.5 7.5q54 0 101 -29t110 -100z" />
    <glyph glyph-name="uni0304" unicode="&#x304;" horiz-adv-x="0" 
d="M-338 1704l-551 14q-47 2 -68.5 17t-21.5 49q0 65 94 78l467 67q112 17 160.5 -1.5t62.5 -76.5q16 -66 -19 -108t-124 -39z" />
    <glyph glyph-name="uni0306" unicode="&#x306;" horiz-adv-x="0" 
d="M-616 1653q-400 -10 -400 235q0 48 32 74.5t73 26.5q95 0 137 -97q3 -7 12.5 -29t12.5 -28.5t11.5 -25t12.5 -25t13 -20.5t15 -19t16 -14t19 -12t21 -6t25 -3q14 0 26.5 2.5t24 9.5t19.5 12t17.5 19.5t15 21t14.5 26.5t12.5 27t14 32t13.5 32q42 97 137 97q41 0 73 -26.5
t32 -74.5q0 -245 -399 -235z" />
    <glyph glyph-name="uni0307" unicode="&#x307;" horiz-adv-x="0" 
d="M-674 1669q-88 21 -114.5 66.5t-16.5 113.5q8 51 40 82.5t78.5 40.5t94.5 7t98 -15q59 -15 90.5 -58t18.5 -116q-8 -54 -37 -87t-71.5 -42.5t-86.5 -7t-94 15.5z" />
    <glyph glyph-name="uni0308" unicode="&#x308;" horiz-adv-x="0" 
d="M-842 1710q-75 -12 -110 13.5t-49 80.5q-11 42 3 77.5t46.5 58t70.5 37t80 20.5q50 8 89 -15t53 -84q11 -44 -0.5 -78.5t-41 -56t-64 -34t-77.5 -19.5zM-471 1745q-48 21 -71.5 49.5t-22.5 57t10 61.5q14 41 45 62.5t71 22.5t79.5 -8t78.5 -26q105 -50 66 -160
q-15 -43 -44 -66t-65.5 -25t-72 6t-74.5 26z" />
    <glyph glyph-name="uni030A" unicode="&#x30a;" horiz-adv-x="0" 
d="M-690 1673q-60 11 -99 30t-54.5 42t-20.5 50.5t2 57.5q32 168 352 115q79 -13 121 -56.5t29 -117.5q-31 -176 -330 -121zM-571 1743q70 20 59 94q-5 36 -31.5 54t-58.5 16.5t-64 -9.5q-55 -18 -47 -92q12 -98 142 -63z" />
    <glyph glyph-name="uni030B" unicode="&#x30b;" horiz-adv-x="0" 
d="M-86 1737l-363 -119q-31 -9 -48 16t3 45l265 281q55 59 131.5 49.5t107.5 -78.5q16 -40 15.5 -75.5t-29 -67.5t-82.5 -51zM-555 1772l-305 -130q-25 -10 -41 10.5t-2 39.5l211 262q43 56 110.5 53t98.5 -61q18 -33 18.5 -64.5t-22 -61t-68.5 -48.5z" />
    <glyph glyph-name="uni030C" unicode="&#x30c;" horiz-adv-x="0" 
d="M-616 1714q30 0 53 33l114 166q31 44 56 60t55 16q61 0 96 -42.5t35 -119.5q0 -64 -31.5 -105t-99.5 -47q-166 -14 -278 -12q-113 -2 -279 12q-68 6 -99.5 47t-31.5 105q0 77 35 119.5t96 42.5q30 0 55 -16t56 -60l114 -166q23 -33 54 -33z" />
    <glyph glyph-name="uni0326" unicode="&#x326;" horiz-adv-x="0" 
d="M-774 -451l12 289q2 52 30 84t71 41t90 4.5t92 -20.5q71 -25 106.5 -76.5t24.5 -106.5t-68 -90l-286 -176q-28 -18 -50.5 -3t-21.5 54z" />
    <glyph glyph-name="uni0327" unicode="&#x327;" horiz-adv-x="0" 
d="M-987 -231q7 48 40.5 77t78.5 28t82 -32l47 -39l94 240h106q-34 -96 -33 -108.5t21 -12.5q13 0 49.5 9.5t65.5 9.5q66 0 122 -47t56 -111q0 -81 -71.5 -131t-184 -58.5t-250.5 13.5q-120 24 -176 62.5t-47 99.5zM-532 -317q68 0 115.5 29.5t47.5 66.5q0 28 -18.5 43.5
t-50.5 15.5q-74 0 -144 -45q-25 -16 -27.5 -42.5t19 -47t58.5 -20.5z" />
    <glyph glyph-name="uni0328" unicode="&#x328;" horiz-adv-x="0" 
d="M-827 -49l77 121q31 49 51 69.5t48 20.5q62 0 107.5 -37.5t45.5 -79.5q0 -33 -24 -43l-170 -78q-33 -15 -46.5 -33.5t-13.5 -46.5q0 -32 26 -48.5t69 -4.5l149 39q47 11 90.5 12t74 -23.5t30.5 -72.5q0 -72 -64.5 -114t-163.5 -42q-86 0 -159.5 31.5t-114 83t-49 116
t36.5 130.5z" />
    <glyph glyph-name="uni0400" unicode="&#x400;" horiz-adv-x="1677" 
d="M958 1647l-374 71q-83 16 -112 66t-9 114q22 72 96.5 91.5t136.5 -31.5l299 -246q21 -17 7.5 -44t-44.5 -21zM475 213l901 80q189 17 189 -113q0 -103 -114.5 -158t-377.5 -55q-198 0 -373 39.5t-308.5 112t-211.5 184.5t-78 248q0 92 52.5 154t136 74.5t186.5 -25.5
l410 -168q37 -16 59.5 -10t33 21t0 39t-39.5 44l-610 424q-144 103 -144 215q0 74 42 127.5t116.5 83t163.5 42.5t197 13q202 1 405.5 -28.5t294.5 -71.5q85 -40 124.5 -94.5t35.5 -139.5q-5 -94 -74 -124t-201 14l-837 293q-50 17 -85 1t-53 -43.5t-18 -52.5
q0 -43 23 -71.5t90 -50.5l798 -254q209 -66 209 -230q0 -82 -50 -140t-159 -71l-733 -90q-172 -22 -172 -117q0 -47 44.5 -78t127.5 -24z" />
    <glyph glyph-name="uni0400" unicode="&#x450;" horiz-adv-x="1677" 
d="M958 1647l-374 71q-83 16 -112 66t-9 114q22 72 96.5 91.5t136.5 -31.5l299 -246q21 -17 7.5 -44t-44.5 -21zM475 213l901 80q189 17 189 -113q0 -103 -114.5 -158t-377.5 -55q-198 0 -373 39.5t-308.5 112t-211.5 184.5t-78 248q0 92 52.5 154t136 74.5t186.5 -25.5
l410 -168q37 -16 59.5 -10t33 21t0 39t-39.5 44l-610 424q-144 103 -144 215q0 74 42 127.5t116.5 83t163.5 42.5t197 13q202 1 405.5 -28.5t294.5 -71.5q85 -40 124.5 -94.5t35.5 -139.5q-5 -94 -74 -124t-201 14l-837 293q-50 17 -85 1t-53 -43.5t-18 -52.5
q0 -43 23 -71.5t90 -50.5l798 -254q209 -66 209 -230q0 -82 -50 -140t-159 -71l-733 -90q-172 -22 -172 -117q0 -47 44.5 -78t127.5 -24z" />
    <glyph glyph-name="uni0401" unicode="&#x401;" horiz-adv-x="1677" 
d="M674 1710q-75 -12 -110.5 14t-49.5 80q-11 42 3.5 77.5t47 58t70.5 37t80 20.5q50 8 88.5 -15t52.5 -84q11 -44 -0.5 -78.5t-40.5 -56t-63.5 -34t-77.5 -19.5zM1044 1745q-48 21 -71 49.5t-22 57t10 61.5q14 41 45 62.5t71 22.5t79.5 -8t78.5 -26q104 -49 65 -160
q-15 -43 -44 -66t-65.5 -25t-72 6t-74.5 26zM475 213l901 80q189 17 189 -113q0 -103 -114.5 -158t-377.5 -55q-198 0 -373 39.5t-308.5 112t-211.5 184.5t-78 248q0 92 52.5 154t136 74.5t186.5 -25.5l410 -168q37 -16 59.5 -10t33 21t0 39t-39.5 44l-610 424
q-144 103 -144 215q0 74 42 127.5t116.5 83t163.5 42.5t197 13q202 1 405.5 -28.5t294.5 -71.5q85 -40 124.5 -94.5t35.5 -139.5q-5 -94 -74 -124t-201 14l-837 293q-50 17 -85 1t-53 -43.5t-18 -52.5q0 -43 23 -71.5t90 -50.5l798 -254q209 -66 209 -230q0 -82 -50 -140
t-159 -71l-733 -90q-172 -22 -172 -117q0 -47 44.5 -78t127.5 -24z" />
    <glyph glyph-name="uni0401" unicode="&#x451;" horiz-adv-x="1677" 
d="M674 1710q-75 -12 -110.5 14t-49.5 80q-11 42 3.5 77.5t47 58t70.5 37t80 20.5q50 8 88.5 -15t52.5 -84q11 -44 -0.5 -78.5t-40.5 -56t-63.5 -34t-77.5 -19.5zM1044 1745q-48 21 -71 49.5t-22 57t10 61.5q14 41 45 62.5t71 22.5t79.5 -8t78.5 -26q104 -49 65 -160
q-15 -43 -44 -66t-65.5 -25t-72 6t-74.5 26zM475 213l901 80q189 17 189 -113q0 -103 -114.5 -158t-377.5 -55q-198 0 -373 39.5t-308.5 112t-211.5 184.5t-78 248q0 92 52.5 154t136 74.5t186.5 -25.5l410 -168q37 -16 59.5 -10t33 21t0 39t-39.5 44l-610 424
q-144 103 -144 215q0 74 42 127.5t116.5 83t163.5 42.5t197 13q202 1 405.5 -28.5t294.5 -71.5q85 -40 124.5 -94.5t35.5 -139.5q-5 -94 -74 -124t-201 14l-837 293q-50 17 -85 1t-53 -43.5t-18 -52.5q0 -43 23 -71.5t90 -50.5l798 -254q209 -66 209 -230q0 -82 -50 -140
t-159 -71l-733 -90q-172 -22 -172 -117q0 -47 44.5 -78t127.5 -24z" />
    <glyph glyph-name="uni0402" unicode="&#x402;" horiz-adv-x="2029" 
d="M31 1083q0 204 156.5 338.5t408.5 134.5h909q119 0 199 -57.5t80 -169.5q0 -91 -59.5 -149t-151.5 -58q-73 0 -134 37.5t-126 114.5l-131 156q-41 49 -91 44t-73 -61l-297 -690q-19 -42 -8.5 -71.5t32.5 -45t54.5 -8.5t58.5 37l199 233q119 140 245 157t277 -75l170 -98
q98 -57 143 -139.5t45 -202.5q0 -109 -43.5 -199.5t-138.5 -210.5l-88 -112q-50 -64 -115 -99t-125.5 -35.5t-113 20.5t-84 69.5t-31.5 111.5q0 182 254 254l244 70q65 19 102 68.5t35 105t-27 105t-85 72.5t-136 3l-647 -168q-33 -9 -49.5 -33t-11 -55t33.5 -59l74 -72
q59 -58 80.5 -125.5t6 -122.5t-69 -92t-134.5 -37q-129 0 -199 79.5t-63 250.5l39 1001q6 183 -80 183q-90 0 -90 -158v-90q0 -395 -235 -395q-92 0 -150.5 69t-58.5 174z" />
    <glyph glyph-name="uni0402" unicode="&#x452;" horiz-adv-x="2029" 
d="M31 1083q0 204 156.5 338.5t408.5 134.5h909q119 0 199 -57.5t80 -169.5q0 -91 -59.5 -149t-151.5 -58q-73 0 -134 37.5t-126 114.5l-131 156q-41 49 -91 44t-73 -61l-297 -690q-19 -42 -8.5 -71.5t32.5 -45t54.5 -8.5t58.5 37l199 233q119 140 245 157t277 -75l170 -98
q98 -57 143 -139.5t45 -202.5q0 -109 -43.5 -199.5t-138.5 -210.5l-88 -112q-50 -64 -115 -99t-125.5 -35.5t-113 20.5t-84 69.5t-31.5 111.5q0 182 254 254l244 70q65 19 102 68.5t35 105t-27 105t-85 72.5t-136 3l-647 -168q-33 -9 -49.5 -33t-11 -55t33.5 -59l74 -72
q59 -58 80.5 -125.5t6 -122.5t-69 -92t-134.5 -37q-129 0 -199 79.5t-63 250.5l39 1001q6 183 -80 183q-90 0 -90 -158v-90q0 -395 -235 -395q-92 0 -150.5 69t-58.5 174z" />
    <glyph glyph-name="uni0403" unicode="&#x403;" horiz-adv-x="1361" 
d="M905 1718l-375 -71q-31 -6 -44 21t8 44l299 246q62 51 136.5 31.5t96.5 -91.5q20 -64 -9 -114t-112 -66zM143 289l2 893q0 96 16 162t55 115.5t108 73t172 23.5h526q175 0 242.5 -94.5t40.5 -285.5l-43 -314q-21 -155 -72 -216.5t-146 -61.5q-52 0 -88 28.5t-47 68.5
t5.5 85.5t62.5 75.5l180 121q44 30 43 69t-43 60l-696 329q-42 20 -82 15t-64.5 -29.5t-35 -62t7.5 -82.5l315 -879q48 -135 27 -227t-84 -139.5t-152 -47.5q-127 0 -188.5 71t-61.5 249z" />
    <glyph glyph-name="uni0403" unicode="&#x453;" horiz-adv-x="1361" 
d="M905 1718l-375 -71q-31 -6 -44 21t8 44l299 246q62 51 136.5 31.5t96.5 -91.5q20 -64 -9 -114t-112 -66zM143 289l2 893q0 96 16 162t55 115.5t108 73t172 23.5h526q175 0 242.5 -94.5t40.5 -285.5l-43 -314q-21 -155 -72 -216.5t-146 -61.5q-52 0 -88 28.5t-47 68.5
t5.5 85.5t62.5 75.5l180 121q44 30 43 69t-43 60l-696 329q-42 20 -82 15t-64.5 -29.5t-35 -62t7.5 -82.5l315 -879q48 -135 27 -227t-84 -139.5t-152 -47.5q-127 0 -188.5 71t-61.5 249z" />
    <glyph glyph-name="uni0404" unicode="&#x404;" horiz-adv-x="1699" 
d="M897 -31q-170 0 -315 57.5t-245.5 157t-157 238.5t-56.5 299q0 255 105 452.5t293.5 305.5t430.5 108q132 0 246.5 -42.5t189.5 -110.5t117.5 -152t42.5 -168q0 -112 -58.5 -168.5t-168.5 -56.5q-106 0 -161 72t-32 192l33 178q13 72 -23 103t-106 -7l-684 -401
q-42 -25 -52 -57.5t15 -56t72 -23.5h491q124 0 180 -49t56 -154q0 -87 -49 -137.5t-136 -47t-188 69.5l-293 191q-35 21 -70 20t-58.5 -22.5t-35 -49t-0.5 -60t44 -54.5l708 -467q69 -48 122.5 -26t53.5 110v170q0 124 88 177q71 42 155 16q82 -26 113 -102q13 -34 13 -73
q0 -194 -184 -313t-496 -119z" />
    <glyph glyph-name="uni0404" unicode="&#x454;" horiz-adv-x="1699" 
d="M897 -31q-170 0 -315 57.5t-245.5 157t-157 238.5t-56.5 299q0 255 105 452.5t293.5 305.5t430.5 108q132 0 246.5 -42.5t189.5 -110.5t117.5 -152t42.5 -168q0 -112 -58.5 -168.5t-168.5 -56.5q-106 0 -161 72t-32 192l33 178q13 72 -23 103t-106 -7l-684 -401
q-42 -25 -52 -57.5t15 -56t72 -23.5h491q124 0 180 -49t56 -154q0 -87 -49 -137.5t-136 -47t-188 69.5l-293 191q-35 21 -70 20t-58.5 -22.5t-35 -49t-0.5 -60t44 -54.5l708 -467q69 -48 122.5 -26t53.5 110v170q0 124 88 177q71 42 155 16q82 -26 113 -102q13 -34 13 -73
q0 -194 -184 -313t-496 -119z" />
    <glyph glyph-name="uni0405" unicode="&#x405;" horiz-adv-x="1708" 
d="M745 -29q-142 0 -256.5 29t-188.5 77.5t-123.5 114t-70 134t-20.5 143.5q0 61 15.5 114t55 91.5t97.5 38.5q71 0 115.5 -51t44.5 -119v-348q0 -78 46 -104.5t138 13.5l717 347q89 43 114 66q38 35 25 83q-14 55 -58 67.5t-96 -14.5l-434 -200q-99 -43 -172 -23.5
t-115 77.5t-44 134l-3 78q-1 53 -24.5 71t-91.5 33l-129 31q-62 15 -101 68.5t-39 117.5q0 129 62.5 235.5t165.5 174t231.5 104.5t265.5 37q109 0 209.5 -18.5t191.5 -59t158 -100t106.5 -147.5t39.5 -195q0 -113 -44 -179.5t-132 -66.5q-25 0 -51 9t-47 29t-31.5 48
t-1.5 69.5t41 88.5l90 135q18 29 16 53t-18 35q-39 28 -144 6l-882 -190q-114 -23 -103 -100q4 -33 26.5 -50t72.5 -26l1042 -189q85 -14 129.5 -68.5t44.5 -131.5q0 -106 -66 -209.5t-177 -183.5t-268.5 -129.5t-328.5 -49.5z" />
    <glyph glyph-name="uni0405" unicode="&#x455;" horiz-adv-x="1708" 
d="M745 -29q-142 0 -256.5 29t-188.5 77.5t-123.5 114t-70 134t-20.5 143.5q0 61 15.5 114t55 91.5t97.5 38.5q71 0 115.5 -51t44.5 -119v-348q0 -78 46 -104.5t138 13.5l717 347q89 43 114 66q38 35 25 83q-14 55 -58 67.5t-96 -14.5l-434 -200q-99 -43 -172 -23.5
t-115 77.5t-44 134l-3 78q-1 53 -24.5 71t-91.5 33l-129 31q-62 15 -101 68.5t-39 117.5q0 129 62.5 235.5t165.5 174t231.5 104.5t265.5 37q109 0 209.5 -18.5t191.5 -59t158 -100t106.5 -147.5t39.5 -195q0 -113 -44 -179.5t-132 -66.5q-25 0 -51 9t-47 29t-31.5 48
t-1.5 69.5t41 88.5l90 135q18 29 16 53t-18 35q-39 28 -144 6l-882 -190q-114 -23 -103 -100q4 -33 26.5 -50t72.5 -26l1042 -189q85 -14 129.5 -68.5t44.5 -131.5q0 -106 -66 -209.5t-177 -183.5t-268.5 -129.5t-328.5 -49.5z" />
    <glyph glyph-name="uni0406" unicode="&#x406;" horiz-adv-x="878" 
d="M82 1102q0 36 96 147l232 267q62 71 161 71q83 0 144 -53t61 -141q0 -81 -43.5 -127.5t-124.5 -75.5l-225 -78q-39 -12 -39 -47q0 -39 53 -33l140 17q100 12 157.5 -32.5t53.5 -121t-70 -152.5l-391 -446q-43 -48 -43 -74q0 -32 22.5 -51.5t50.5 -7.5l246 106
q33 14 65.5 17.5t61.5 -5.5t48.5 -36t23.5 -70q7 -65 -38 -113.5t-116 -71t-153 -22.5q-172 0 -250.5 102.5t-36.5 258.5l166 606q6 21 6 37q0 34 -25 48.5t-77 14.5h-88q-68 0 -68 66z" />
    <glyph glyph-name="uni0406" unicode="&#x456;" horiz-adv-x="878" 
d="M82 1102q0 36 96 147l232 267q62 71 161 71q83 0 144 -53t61 -141q0 -81 -43.5 -127.5t-124.5 -75.5l-225 -78q-39 -12 -39 -47q0 -39 53 -33l140 17q100 12 157.5 -32.5t53.5 -121t-70 -152.5l-391 -446q-43 -48 -43 -74q0 -32 22.5 -51.5t50.5 -7.5l246 106
q33 14 65.5 17.5t61.5 -5.5t48.5 -36t23.5 -70q7 -65 -38 -113.5t-116 -71t-153 -22.5q-172 0 -250.5 102.5t-36.5 258.5l166 606q6 21 6 37q0 34 -25 48.5t-77 14.5h-88q-68 0 -68 66z" />
    <glyph glyph-name="uni0407" unicode="&#x407;" horiz-adv-x="878" 
d="M307 1710q-75 -12 -110.5 14t-49.5 80q-11 42 3.5 77.5t47 58t70.5 37t80 20.5q50 8 88.5 -15t52.5 -84q11 -44 -0.5 -78.5t-40.5 -56t-63.5 -34t-77.5 -19.5zM678 1745q-48 21 -71.5 49.5t-22.5 57t10 61.5q14 41 45 62.5t71 22.5t79.5 -8t78.5 -26q105 -50 66 -160
q-15 -43 -44 -66t-65.5 -25t-72 6t-74.5 26zM82 1102q0 36 96 147l232 267q62 71 161 71q83 0 144 -53t61 -141q0 -81 -43.5 -127.5t-124.5 -75.5l-225 -78q-39 -12 -39 -47q0 -39 53 -33l140 17q100 12 157.5 -32.5t53.5 -121t-70 -152.5l-391 -446q-43 -48 -43 -74
q0 -32 22.5 -51.5t50.5 -7.5l246 106q33 14 65.5 17.5t61.5 -5.5t48.5 -36t23.5 -70q7 -65 -38 -113.5t-116 -71t-153 -22.5q-172 0 -250.5 102.5t-36.5 258.5l166 606q6 21 6 37q0 34 -25 48.5t-77 14.5h-88q-68 0 -68 66z" />
    <glyph glyph-name="uni0407" unicode="&#x457;" horiz-adv-x="878" 
d="M307 1710q-75 -12 -110.5 14t-49.5 80q-11 42 3.5 77.5t47 58t70.5 37t80 20.5q50 8 88.5 -15t52.5 -84q11 -44 -0.5 -78.5t-40.5 -56t-63.5 -34t-77.5 -19.5zM678 1745q-48 21 -71.5 49.5t-22.5 57t10 61.5q14 41 45 62.5t71 22.5t79.5 -8t78.5 -26q105 -50 66 -160
q-15 -43 -44 -66t-65.5 -25t-72 6t-74.5 26zM82 1102q0 36 96 147l232 267q62 71 161 71q83 0 144 -53t61 -141q0 -81 -43.5 -127.5t-124.5 -75.5l-225 -78q-39 -12 -39 -47q0 -39 53 -33l140 17q100 12 157.5 -32.5t53.5 -121t-70 -152.5l-391 -446q-43 -48 -43 -74
q0 -32 22.5 -51.5t50.5 -7.5l246 106q33 14 65.5 17.5t61.5 -5.5t48.5 -36t23.5 -70q7 -65 -38 -113.5t-116 -71t-153 -22.5q-172 0 -250.5 102.5t-36.5 258.5l166 606q6 21 6 37q0 34 -25 48.5t-77 14.5h-88q-68 0 -68 66z" />
    <glyph glyph-name="uni0408" unicode="&#x408;" horiz-adv-x="1077" 
d="M260 256l547 109q65 12 80 70t-33 143l-279 477q-38 64 -66 149t-28 148q0 42 11.5 81.5t36.5 75.5t71 58t107 22q46 0 87.5 -15.5t78.5 -49t59 -95.5t22 -145v-774q0 -116 -8.5 -196t-32 -149.5t-64.5 -110t-107 -63t-160 -22.5q-114 0 -213 37t-165.5 98t-104.5 138
t-38 157q0 130 47 250.5t118.5 191t142.5 70.5q47 0 83 -21t52 -53t9 -72t-40 -75l-272 -284q-28 -30 -34.5 -61t4.5 -52t35.5 -32t53.5 -5z" />
    <glyph glyph-name="uni0408" unicode="&#x458;" horiz-adv-x="1077" 
d="M260 256l547 109q65 12 80 70t-33 143l-279 477q-38 64 -66 149t-28 148q0 42 11.5 81.5t36.5 75.5t71 58t107 22q46 0 87.5 -15.5t78.5 -49t59 -95.5t22 -145v-774q0 -116 -8.5 -196t-32 -149.5t-64.5 -110t-107 -63t-160 -22.5q-114 0 -213 37t-165.5 98t-104.5 138
t-38 157q0 130 47 250.5t118.5 191t142.5 70.5q47 0 83 -21t52 -53t9 -72t-40 -75l-272 -284q-28 -30 -34.5 -61t4.5 -52t35.5 -32t53.5 -5z" />
    <glyph glyph-name="uni0409" unicode="&#x409;" horiz-adv-x="2754" 
d="M31 426v6q0 113 11.5 198t29.5 133t42.5 77.5t46.5 38.5t46 8q20 -1 40 -14t35 -37.5t12 -69t-28 -100.5l-125 -279q-17 -40 -14 -72.5t23.5 -48.5t45.5 -19t52 16t43 56l379 893q32 76 57 124.5t59 94.5t72.5 71t92 39.5t122.5 14.5h490q117 0 181 -53.5t64 -130.5
q0 -63 -37 -122.5t-102 -104.5l-166 -115q-48 -33 -49.5 -78.5t36.5 -68.5t91 -2l342 141q106 44 149 61t99 31t104 14q180 0 299 -155.5t119 -409.5q0 -275 -190 -434.5t-539 -159.5q-150 0 -257.5 19t-177 54.5t-110.5 94t-57 128.5t-16 167v909q0 75 -39 95.5t-93 -31.5
l-548 -559q-60 -60 -64 -107t35 -121l74 -151q49 -100 55 -191.5t-27 -159t-107 -107.5t-179 -40q-206 0 -314 109t-108 348zM1907 860l-402 -514q-26 -32 -30 -65t12.5 -55.5t48.5 -33.5t78 1l891 206q61 14 87 50.5t11 81t-66 79.5l-409 287q-52 36 -88.5 42.5t-65.5 -12
t-67 -67.5z" />
    <glyph glyph-name="uni0409" unicode="&#x459;" horiz-adv-x="2754" 
d="M31 426v6q0 113 11.5 198t29.5 133t42.5 77.5t46.5 38.5t46 8q20 -1 40 -14t35 -37.5t12 -69t-28 -100.5l-125 -279q-17 -40 -14 -72.5t23.5 -48.5t45.5 -19t52 16t43 56l379 893q32 76 57 124.5t59 94.5t72.5 71t92 39.5t122.5 14.5h490q117 0 181 -53.5t64 -130.5
q0 -63 -37 -122.5t-102 -104.5l-166 -115q-48 -33 -49.5 -78.5t36.5 -68.5t91 -2l342 141q106 44 149 61t99 31t104 14q180 0 299 -155.5t119 -409.5q0 -275 -190 -434.5t-539 -159.5q-150 0 -257.5 19t-177 54.5t-110.5 94t-57 128.5t-16 167v909q0 75 -39 95.5t-93 -31.5
l-548 -559q-60 -60 -64 -107t35 -121l74 -151q49 -100 55 -191.5t-27 -159t-107 -107.5t-179 -40q-206 0 -314 109t-108 348zM1907 860l-402 -514q-26 -32 -30 -65t12.5 -55.5t48.5 -33.5t78 1l891 206q61 14 87 50.5t11 81t-66 79.5l-409 287q-52 36 -88.5 42.5t-65.5 -12
t-67 -67.5z" />
    <glyph glyph-name="uni040A" unicode="&#x40a;" horiz-adv-x="2521" 
d="M125 236l108 1009q37 342 299 342q109 0 171.5 -51.5t62.5 -136.5q0 -130 -143 -211l-234 -133q-43 -25 -57.5 -49t-14.5 -56q0 -40 32.5 -62t86.5 -22h572q93 0 128.5 43t26.5 131l-22 211q-20 180 36.5 258t206.5 78q69 0 124 -24t82.5 -65.5t31.5 -92t-30 -108.5
t-101 -109l-191 -146q-26 -20 -35 -46t-1.5 -48t25 -39.5t45.5 -20.5t59 9l297 125q144 62 212 84t136 22q182 0 302 -155.5t120 -409.5q0 -273 -186 -433.5t-517 -160.5q-263 0 -411 54.5t-200.5 164.5t-31.5 295l16 148q8 72 -25 104t-99 13l-533 -144q-65 -18 -85.5 -33
t-20.5 -39q0 -14 5.5 -27.5t19.5 -29t24.5 -26t32.5 -30t32 -28.5q117 -105 117 -211q0 -92 -66.5 -151.5t-181.5 -59.5q-111 0 -175 65t-50 202zM1673 860l-401 -514q-32 -46 -30 -85.5t41 -60.5t97 -7l891 206q61 14 87 50.5t11.5 81t-65.5 79.5l-410 287
q-52 36 -88.5 42.5t-65.5 -12t-67 -67.5z" />
    <glyph glyph-name="uni040A" unicode="&#x45a;" horiz-adv-x="2521" 
d="M125 236l108 1009q37 342 299 342q109 0 171.5 -51.5t62.5 -136.5q0 -130 -143 -211l-234 -133q-43 -25 -57.5 -49t-14.5 -56q0 -40 32.5 -62t86.5 -22h572q93 0 128.5 43t26.5 131l-22 211q-20 180 36.5 258t206.5 78q69 0 124 -24t82.5 -65.5t31.5 -92t-30 -108.5
t-101 -109l-191 -146q-26 -20 -35 -46t-1.5 -48t25 -39.5t45.5 -20.5t59 9l297 125q144 62 212 84t136 22q182 0 302 -155.5t120 -409.5q0 -273 -186 -433.5t-517 -160.5q-263 0 -411 54.5t-200.5 164.5t-31.5 295l16 148q8 72 -25 104t-99 13l-533 -144q-65 -18 -85.5 -33
t-20.5 -39q0 -14 5.5 -27.5t19.5 -29t24.5 -26t32.5 -30t32 -28.5q117 -105 117 -211q0 -92 -66.5 -151.5t-181.5 -59.5q-111 0 -175 65t-50 202zM1673 860l-401 -514q-32 -46 -30 -85.5t41 -60.5t97 -7l891 206q61 14 87 50.5t11.5 81t-65.5 79.5l-410 287
q-52 36 -88.5 42.5t-65.5 -12t-67 -67.5z" />
    <glyph glyph-name="uni040B" unicode="&#x40b;" horiz-adv-x="2050" 
d="M31 1083q0 204 156.5 338.5t408.5 134.5h909q119 0 199 -57.5t80 -169.5q0 -91 -59.5 -149t-151.5 -58q-73 0 -134 37.5t-126 114.5l-131 156q-41 49 -91 44t-73 -61l-297 -690q-19 -42 -8.5 -71.5t32.5 -45t54.5 -8.5t58.5 37l199 233q119 140 245 157t277 -75l170 -98
q99 -57 144 -142t44 -214l-4 -242q-2 -137 -70 -211t-198 -74q-95 0 -152 54t-57 135q0 120 123 243l172 177q33 35 38 74.5t-12.5 68t-55 42.5t-81.5 1l-702 -199q-33 -9 -49.5 -33.5t-10.5 -55.5t35 -58l78 -72q61 -56 83.5 -123t7.5 -122.5t-70.5 -93.5t-139.5 -38
q-132 0 -202.5 79.5t-63.5 250.5l39 1001q6 183 -80 183q-90 0 -90 -158v-90q0 -395 -235 -395q-92 0 -150.5 69t-58.5 174z" />
    <glyph glyph-name="uni040B" unicode="&#x45b;" horiz-adv-x="2050" 
d="M31 1083q0 204 156.5 338.5t408.5 134.5h909q119 0 199 -57.5t80 -169.5q0 -91 -59.5 -149t-151.5 -58q-73 0 -134 37.5t-126 114.5l-131 156q-41 49 -91 44t-73 -61l-297 -690q-19 -42 -8.5 -71.5t32.5 -45t54.5 -8.5t58.5 37l199 233q119 140 245 157t277 -75l170 -98
q99 -57 144 -142t44 -214l-4 -242q-2 -137 -70 -211t-198 -74q-95 0 -152 54t-57 135q0 120 123 243l172 177q33 35 38 74.5t-12.5 68t-55 42.5t-81.5 1l-702 -199q-33 -9 -49.5 -33.5t-10.5 -55.5t35 -58l78 -72q61 -56 83.5 -123t7.5 -122.5t-70.5 -93.5t-139.5 -38
q-132 0 -202.5 79.5t-63.5 250.5l39 1001q6 183 -80 183q-90 0 -90 -158v-90q0 -395 -235 -395q-92 0 -150.5 69t-58.5 174z" />
    <glyph glyph-name="uni040C" unicode="&#x40c;" horiz-adv-x="1765" 
d="M1188 1718l-375 -71q-31 -6 -44.5 21t7.5 44l299 246q62 51 137 31.5t97 -91.5q20 -64 -9 -114t-112 -66zM442 1587q75 0 117 -36t46.5 -91t-19.5 -121t-74 -125l-33 -38q-97 -120 -57 -183q19 -31 42.5 -41.5t53.5 -1t59 27t72 50.5l535 406q110 83 184.5 118t163.5 35
q85 0 139 -80t39 -174q-18 -104 -85.5 -156.5t-211.5 -84.5l-641 -140q-9 -2 -31 -6t-33 -6.5t-31 -7t-31 -8.5t-26 -11t-23.5 -14t-15 -16.5t-8.5 -20.5q-14 -81 78 -125l713 -342q43 -21 77.5 14t20.5 80l-76 248q-20 66 10.5 106.5t82.5 43.5q59 2 100.5 -41t30.5 -123
l-74 -512q-18 -123 -90 -182.5t-172 -59.5q-25 0 -47.5 4.5t-40 10.5t-37.5 20t-33 24.5t-34.5 34t-33 37t-38 46t-41.5 49.5l-561 667q-29 34 -62.5 41t-53.5 -10.5t-26 -46.5t19 -68l256 -391q71 -105 51 -227q-14 -80 -84 -135.5t-174 -55.5q-109 0 -164 74.5t-47 208.5
l72 1071q10 136 79.5 200t167.5 64z" />
    <glyph glyph-name="uni040C" unicode="&#x45c;" horiz-adv-x="1765" 
d="M1188 1718l-375 -71q-31 -6 -44.5 21t7.5 44l299 246q62 51 137 31.5t97 -91.5q20 -64 -9 -114t-112 -66zM442 1587q75 0 117 -36t46.5 -91t-19.5 -121t-74 -125l-33 -38q-97 -120 -57 -183q19 -31 42.5 -41.5t53.5 -1t59 27t72 50.5l535 406q110 83 184.5 118t163.5 35
q85 0 139 -80t39 -174q-18 -104 -85.5 -156.5t-211.5 -84.5l-641 -140q-9 -2 -31 -6t-33 -6.5t-31 -7t-31 -8.5t-26 -11t-23.5 -14t-15 -16.5t-8.5 -20.5q-14 -81 78 -125l713 -342q43 -21 77.5 14t20.5 80l-76 248q-20 66 10.5 106.5t82.5 43.5q59 2 100.5 -41t30.5 -123
l-74 -512q-18 -123 -90 -182.5t-172 -59.5q-25 0 -47.5 4.5t-40 10.5t-37.5 20t-33 24.5t-34.5 34t-33 37t-38 46t-41.5 49.5l-561 667q-29 34 -62.5 41t-53.5 -10.5t-26 -46.5t19 -68l256 -391q71 -105 51 -227q-14 -80 -84 -135.5t-174 -55.5q-109 0 -164 74.5t-47 208.5
l72 1071q10 136 79.5 200t167.5 64z" />
    <glyph glyph-name="uni040D" unicode="&#x40d;" horiz-adv-x="1785" 
d="M958 1647l-374 71q-83 16 -112 66t-9 114q22 72 96.5 91.5t136.5 -31.5l299 -246q21 -17 7.5 -44t-44.5 -21zM133 260l29 920q13 407 313 407q76 0 131 -31t77 -80.5t20 -104.5t-39 -109.5t-101 -90.5l-244 -135q-55 -30 -64.5 -86t26.5 -125l190 -376q25 -50 67.5 -66.5
t81.5 7t54 79.5l207 786q45 174 145.5 253t265.5 79q374 0 359 -457l-31 -856q-3 -84 -27 -145.5t-62.5 -95t-82 -49t-92.5 -15.5q-77 0 -126 31.5t-68 83t-18 121.5t18.5 141.5t47.5 147.5l306 761q14 39 9 74.5t-28 56.5t-50.5 28.5t-60.5 -9.5t-57 -57l-694 -1164
q-74 -124 -140 -169.5t-157 -45.5q-99 0 -154 74t-51 217z" />
    <glyph glyph-name="uni040D" unicode="&#x45d;" horiz-adv-x="1785" 
d="M958 1647l-374 71q-83 16 -112 66t-9 114q22 72 96.5 91.5t136.5 -31.5l299 -246q21 -17 7.5 -44t-44.5 -21zM133 260l29 920q13 407 313 407q76 0 131 -31t77 -80.5t20 -104.5t-39 -109.5t-101 -90.5l-244 -135q-55 -30 -64.5 -86t26.5 -125l190 -376q25 -50 67.5 -66.5
t81.5 7t54 79.5l207 786q45 174 145.5 253t265.5 79q374 0 359 -457l-31 -856q-3 -84 -27 -145.5t-62.5 -95t-82 -49t-92.5 -15.5q-77 0 -126 31.5t-68 83t-18 121.5t18.5 141.5t47.5 147.5l306 761q14 39 9 74.5t-28 56.5t-50.5 28.5t-60.5 -9.5t-57 -57l-694 -1164
q-74 -124 -140 -169.5t-157 -45.5q-99 0 -154 74t-51 217z" />
    <glyph glyph-name="uni040E" unicode="&#x40e;" horiz-adv-x="1579" 
d="M809 1653q-399 -10 -399 235q0 48 31.5 74.5t72.5 26.5q95 0 137 -97q3 -7 12.5 -29t12.5 -28.5t11.5 -25t12.5 -25t13 -20.5t15 -19t16 -14t19 -12t21 -6t25 -3t25 3t21 6t19 12t16 14t15 19t13 20.5t12.5 25t11.5 25t12.5 28.5t12.5 29q42 97 137 97q41 0 72.5 -26.5
t31.5 -74.5q0 -245 -399 -235zM1133 834l-17 548q-3 118 93 174q82 48 186 25t150 -104q27 -47 26 -107q-1 -39 -22.5 -93.5t-43 -92.5t-59.5 -99l-502 -823q-178 -293 -348 -293q-86 0 -148 45t-79.5 109.5t-6.5 129.5t71 110t153 45h192q49 0 77.5 10t34.5 26t1.5 32.5
t-17.5 33.5l-630 844q-27 36 -57.5 36.5t-45 -27.5t-0.5 -65l92 -239q55 -144 -55 -182q-24 -8 -56 11t-48 60q-16 42 -24.5 96.5t-7.5 115.5t11 121.5t33.5 115.5t57 97.5t84 67.5t112.5 25q83 0 136 -40.5t126 -145.5l412 -594q28 -39 51.5 -51.5t38 -1.5t22.5 32.5
t7 47.5z" />
    <glyph glyph-name="uni040E" unicode="&#x45e;" horiz-adv-x="1579" 
d="M809 1653q-399 -10 -399 235q0 48 31.5 74.5t72.5 26.5q95 0 137 -97q3 -7 12.5 -29t12.5 -28.5t11.5 -25t12.5 -25t13 -20.5t15 -19t16 -14t19 -12t21 -6t25 -3t25 3t21 6t19 12t16 14t15 19t13 20.5t12.5 25t11.5 25t12.5 28.5t12.5 29q42 97 137 97q41 0 72.5 -26.5
t31.5 -74.5q0 -245 -399 -235zM1133 834l-17 548q-3 118 93 174q82 48 186 25t150 -104q27 -47 26 -107q-1 -39 -22.5 -93.5t-43 -92.5t-59.5 -99l-502 -823q-178 -293 -348 -293q-86 0 -148 45t-79.5 109.5t-6.5 129.5t71 110t153 45h192q49 0 77.5 10t34.5 26t1.5 32.5
t-17.5 33.5l-630 844q-27 36 -57.5 36.5t-45 -27.5t-0.5 -65l92 -239q55 -144 -55 -182q-24 -8 -56 11t-48 60q-16 42 -24.5 96.5t-7.5 115.5t11 121.5t33.5 115.5t57 97.5t84 67.5t112.5 25q83 0 136 -40.5t126 -145.5l412 -594q28 -39 51.5 -51.5t38 -1.5t22.5 32.5
t7 47.5z" />
    <glyph glyph-name="uni040F" unicode="&#x40f;" horiz-adv-x="1689" 
d="M133 342l53 893q19 354 297 354q107 0 168.5 -58.5t61.5 -152.5q0 -77 -34 -138.5t-124 -162.5l-229 -256q-46 -53 -62 -86t-16 -71q0 -51 33.5 -87.5t121.5 -80.5l707 -361q94 -48 169 5q58 41 67 111q10 82 -57 133q-12 9 -27 17l-443 228q-43 22 -59 63t-5.5 78.5
t47.5 64.5t89 23l450 -29q62 -5 80.5 36t-26.5 87l-201 199q-56 56 -82.5 119.5t-21 118.5t32.5 101t78 72.5t114 26.5q130 0 195 -71.5t55 -247.5l-58 -965q-5 -89 -35 -159t-77 -110.5t-104.5 -60.5t-120.5 -14.5t-123 33.5l-35 16q-46 22 -82.5 -0.5t-36.5 -75.5v-61
q0 -133 -74 -208t-207 -75q-102 0 -156.5 45.5t-54.5 120.5q0 145 172 207l181 66q44 16 49.5 59t-27 71.5t-82.5 10.5l-190 -68q-186 -67 -283.5 -5t-87.5 245z" />
    <glyph glyph-name="uni040F" unicode="&#x45f;" horiz-adv-x="1689" 
d="M133 342l53 893q19 354 297 354q107 0 168.5 -58.5t61.5 -152.5q0 -77 -34 -138.5t-124 -162.5l-229 -256q-46 -53 -62 -86t-16 -71q0 -51 33.5 -87.5t121.5 -80.5l707 -361q94 -48 169 5q58 41 67 111q10 82 -57 133q-12 9 -27 17l-443 228q-43 22 -59 63t-5.5 78.5
t47.5 64.5t89 23l450 -29q62 -5 80.5 36t-26.5 87l-201 199q-56 56 -82.5 119.5t-21 118.5t32.5 101t78 72.5t114 26.5q130 0 195 -71.5t55 -247.5l-58 -965q-5 -89 -35 -159t-77 -110.5t-104.5 -60.5t-120.5 -14.5t-123 33.5l-35 16q-46 22 -82.5 -0.5t-36.5 -75.5v-61
q0 -133 -74 -208t-207 -75q-102 0 -156.5 45.5t-54.5 120.5q0 145 172 207l181 66q44 16 49.5 59t-27 71.5t-82.5 10.5l-190 -68q-186 -67 -283.5 -5t-87.5 245z" />
    <glyph glyph-name="uni0410" unicode="&#x410;" horiz-adv-x="1638" 
d="M389 465l529 12q97 2 147.5 29t58.5 100l88 725q10 84 -26 132t-101 36q-30 -6 -59.5 -31.5t-58 -72t-39.5 -67t-33 -64.5l-248 -508q-31 -63 -79.5 -101.5t-90 -49.5t-86.5 -11q-91 0 -155 66t-64 161q0 118 156 244l411 328q146 116 218.5 155t166.5 39q91 0 152 -60.5
t82 -166.5l186 -985q34 -180 -25.5 -293t-211.5 -113q-120 0 -184 66t-64 166v106q0 82 -38.5 98t-92.5 -32l-201 -172q-9 -7 -43 -37t-52 -45t-53.5 -42t-63 -42.5t-62.5 -32.5t-70 -25t-70 -8q-47 0 -90 14t-80.5 43t-59.5 81.5t-22 121.5q0 116 91 174.5t237 61.5z" />
    <glyph glyph-name="uni0410" unicode="&#x430;" horiz-adv-x="1638" 
d="M389 465l529 12q97 2 147.5 29t58.5 100l88 725q10 84 -26 132t-101 36q-30 -6 -59.5 -31.5t-58 -72t-39.5 -67t-33 -64.5l-248 -508q-31 -63 -79.5 -101.5t-90 -49.5t-86.5 -11q-91 0 -155 66t-64 161q0 118 156 244l411 328q146 116 218.5 155t166.5 39q91 0 152 -60.5
t82 -166.5l186 -985q34 -180 -25.5 -293t-211.5 -113q-120 0 -184 66t-64 166v106q0 82 -38.5 98t-92.5 -32l-201 -172q-9 -7 -43 -37t-52 -45t-53.5 -42t-63 -42.5t-62.5 -32.5t-70 -25t-70 -8q-47 0 -90 14t-80.5 43t-59.5 81.5t-22 121.5q0 116 91 174.5t237 61.5z" />
    <glyph glyph-name="uni0411" unicode="&#x411;" horiz-adv-x="1763" 
d="M113 584q0 208 15 358t51.5 259.5t88 177t135.5 108t181 55t237 14.5h482q192 0 285 -56.5t93 -180.5q0 -44 -19.5 -83.5t-53 -68t-81 -44t-100 -14t-114 25.5t-119.5 71l-262 211q-72 58 -121.5 50t-99.5 -83l-459 -694q-28 -42 -19 -79t43.5 -42.5t83.5 27.5l482 365
q148 109 273 100t269 -133l117 -101q82 -70 130 -150.5t48 -187.5q0 -235 -182 -377.5t-504 -142.5q-186 0 -335 32t-249.5 87.5t-168 134t-97.5 168.5t-30 193zM1260 727l-875 -242q-82 -21 -82 -82q0 -30 24 -49.5t74 -19.5l893 6q256 3 256 213q0 102 -81.5 155.5
t-208.5 18.5z" />
    <glyph glyph-name="uni0411" unicode="&#x431;" horiz-adv-x="1763" 
d="M113 584q0 208 15 358t51.5 259.5t88 177t135.5 108t181 55t237 14.5h482q192 0 285 -56.5t93 -180.5q0 -44 -19.5 -83.5t-53 -68t-81 -44t-100 -14t-114 25.5t-119.5 71l-262 211q-72 58 -121.5 50t-99.5 -83l-459 -694q-28 -42 -19 -79t43.5 -42.5t83.5 27.5l482 365
q148 109 273 100t269 -133l117 -101q82 -70 130 -150.5t48 -187.5q0 -235 -182 -377.5t-504 -142.5q-186 0 -335 32t-249.5 87.5t-168 134t-97.5 168.5t-30 193zM1260 727l-875 -242q-82 -21 -82 -82q0 -30 24 -49.5t74 -19.5l893 6q256 3 256 213q0 102 -81.5 155.5
t-208.5 18.5z" />
    <glyph glyph-name="uni0412" unicode="&#x412;" horiz-adv-x="1769" 
d="M1352 983l-172 8q-43 1 -69 -20t-26 -51q0 -24 15 -44t43 -24l223 -35q322 -51 322 -334q0 -151 -86.5 -268.5t-241 -181.5t-352.5 -64q-228 0 -405 60t-287.5 168t-167 253t-56.5 320q0 374 206.5 580t569.5 206h258q295 0 422 -63t127 -221q0 -133 -98 -214t-225 -75z
M518 334l811 6q107 1 168.5 48t61.5 112q0 94 -72 131.5t-201 11.5l-739 -147q-55 -10 -90.5 4t-44.5 45q-23 76 65 129l621 368q64 38 100.5 84.5t43 92.5t-6.5 89t-45 81q-37 44 -91 63.5t-116 12t-132 -54t-130 -128.5l-416 -565q-41 -58 -48.5 -123t15.5 -117
q27 -68 90 -105.5t156 -37.5z" />
    <glyph glyph-name="uni0412" unicode="&#x432;" horiz-adv-x="1769" 
d="M1352 983l-172 8q-43 1 -69 -20t-26 -51q0 -24 15 -44t43 -24l223 -35q322 -51 322 -334q0 -151 -86.5 -268.5t-241 -181.5t-352.5 -64q-228 0 -405 60t-287.5 168t-167 253t-56.5 320q0 374 206.5 580t569.5 206h258q295 0 422 -63t127 -221q0 -133 -98 -214t-225 -75z
M518 334l811 6q107 1 168.5 48t61.5 112q0 94 -72 131.5t-201 11.5l-739 -147q-55 -10 -90.5 4t-44.5 45q-23 76 65 129l621 368q64 38 100.5 84.5t43 92.5t-6.5 89t-45 81q-37 44 -91 63.5t-116 12t-132 -54t-130 -128.5l-416 -565q-41 -58 -48.5 -123t15.5 -117
q27 -68 90 -105.5t156 -37.5z" />
    <glyph glyph-name="uni0413" unicode="&#x413;" horiz-adv-x="1361" 
d="M143 289l2 893q0 96 16 162t55 115.5t108 73t172 23.5h526q175 0 242.5 -94.5t40.5 -285.5l-43 -314q-21 -155 -72 -216.5t-146 -61.5q-52 0 -88 28.5t-47 68.5t5.5 85.5t62.5 75.5l180 121q44 30 43 69t-43 60l-696 329q-42 20 -82 15t-64.5 -29.5t-35 -62t7.5 -82.5
l315 -879q48 -135 27 -227t-84 -139.5t-152 -47.5q-127 0 -188.5 71t-61.5 249z" />
    <glyph glyph-name="uni0413" unicode="&#x433;" horiz-adv-x="1361" 
d="M143 289l2 893q0 96 16 162t55 115.5t108 73t172 23.5h526q175 0 242.5 -94.5t40.5 -285.5l-43 -314q-21 -155 -72 -216.5t-146 -61.5q-52 0 -88 28.5t-47 68.5t5.5 85.5t62.5 75.5l180 121q44 30 43 69t-43 60l-696 329q-42 20 -82 15t-64.5 -29.5t-35 -62t7.5 -82.5
l315 -879q48 -135 27 -227t-84 -139.5t-152 -47.5q-127 0 -188.5 71t-61.5 249z" />
    <glyph glyph-name="uni0414" unicode="&#x414;" horiz-adv-x="2162" 
d="M57 -96l-37 522q-8 115 52 181.5t145 66.5q80 0 141 -57.5t68 -163.5l14 -203q4 -49 44.5 -68.5t78 3.5t33.5 77l-66 905q-13 192 74.5 290.5t251.5 98.5h688q93 0 158 -35.5t94.5 -96t27.5 -141.5t-38 -171l-338 -854q-10 -30 -3.5 -56.5t28.5 -41t46.5 -18.5t49 11.5
t37.5 47.5l112 284q31 81 83.5 122.5t117.5 41.5q75 0 128.5 -62.5t53.5 -172.5v-510q0 -172 -59 -243t-176 -71q-64 0 -108.5 38t-56 90.5t13.5 110.5t87 95l178 107q38 23 35.5 67t-37 63.5t-84.5 -1.5l-200 -111q-89 -49 -211 -49h-768q-178 0 -301 68l-160 86
q-45 24 -82.5 -1t-35.5 -64t42 -66l201 -107q61 -32 87.5 -88.5t16.5 -108.5t-57 -90.5t-119 -38.5q-121 0 -179.5 69.5t-70.5 244.5zM1092 1372l-383 -704q-52 -89 -39 -155t100 -120l389 -241q70 -44 131 -14t62 114l16 1059q1 63 -30.5 104.5t-74.5 51.5t-91.5 -14
t-79.5 -81z" />
    <glyph glyph-name="uni0414" unicode="&#x434;" horiz-adv-x="2162" 
d="M57 -96l-37 522q-8 115 52 181.5t145 66.5q80 0 141 -57.5t68 -163.5l14 -203q4 -49 44.5 -68.5t78 3.5t33.5 77l-66 905q-13 192 74.5 290.5t251.5 98.5h688q93 0 158 -35.5t94.5 -96t27.5 -141.5t-38 -171l-338 -854q-10 -30 -3.5 -56.5t28.5 -41t46.5 -18.5t49 11.5
t37.5 47.5l112 284q31 81 83.5 122.5t117.5 41.5q75 0 128.5 -62.5t53.5 -172.5v-510q0 -172 -59 -243t-176 -71q-64 0 -108.5 38t-56 90.5t13.5 110.5t87 95l178 107q38 23 35.5 67t-37 63.5t-84.5 -1.5l-200 -111q-89 -49 -211 -49h-768q-178 0 -301 68l-160 86
q-45 24 -82.5 -1t-35.5 -64t42 -66l201 -107q61 -32 87.5 -88.5t16.5 -108.5t-57 -90.5t-119 -38.5q-121 0 -179.5 69.5t-70.5 244.5zM1092 1372l-383 -704q-52 -89 -39 -155t100 -120l389 -241q70 -44 131 -14t62 114l16 1059q1 63 -30.5 104.5t-74.5 51.5t-91.5 -14
t-79.5 -81z" />
    <glyph glyph-name="uni0415" unicode="&#x415;" horiz-adv-x="1677" 
d="M475 213l901 80q189 17 189 -113q0 -103 -114.5 -158t-377.5 -55q-198 0 -373 39.5t-308.5 112t-211.5 184.5t-78 248q0 92 52.5 154t136 74.5t186.5 -25.5l410 -168q37 -16 59.5 -10t33 21t0 39t-39.5 44l-610 424q-144 103 -144 215q0 74 42 127.5t116.5 83t163.5 42.5
t197 13q202 1 405.5 -28.5t294.5 -71.5q85 -40 124.5 -94.5t35.5 -139.5q-5 -94 -74 -124t-201 14l-837 293q-50 17 -85 1t-53 -43.5t-18 -52.5q0 -43 23 -71.5t90 -50.5l798 -254q209 -66 209 -230q0 -82 -50 -140t-159 -71l-733 -90q-172 -22 -172 -117q0 -47 44.5 -78
t127.5 -24z" />
    <glyph glyph-name="uni0415" unicode="&#x435;" horiz-adv-x="1677" 
d="M475 213l901 80q189 17 189 -113q0 -103 -114.5 -158t-377.5 -55q-198 0 -373 39.5t-308.5 112t-211.5 184.5t-78 248q0 92 52.5 154t136 74.5t186.5 -25.5l410 -168q37 -16 59.5 -10t33 21t0 39t-39.5 44l-610 424q-144 103 -144 215q0 74 42 127.5t116.5 83t163.5 42.5
t197 13q202 1 405.5 -28.5t294.5 -71.5q85 -40 124.5 -94.5t35.5 -139.5q-5 -94 -74 -124t-201 14l-837 293q-50 17 -85 1t-53 -43.5t-18 -52.5q0 -43 23 -71.5t90 -50.5l798 -254q209 -66 209 -230q0 -82 -50 -140t-159 -71l-733 -90q-172 -22 -172 -117q0 -47 44.5 -78
t127.5 -24z" />
    <glyph glyph-name="uni0416" unicode="&#x416;" horiz-adv-x="2613" 
d="M72 199q0 100 43 180.5t135 171.5l475 471q36 37 23 70.5t-58 33.5h-313q-139 0 -212 64.5t-73 173.5q0 97 75.5 160t209.5 63q352 0 457 -446l114 -482q8 -33 32 -49t48.5 -12.5t44 25t19.5 55.5l-2 637q0 272 237 272q106 0 161.5 -57.5t47.5 -142t-74 -162.5l-32 -39
q-105 -124 -60 -189q69 -100 229 45l437 392q99 90 167.5 121.5t155.5 31.5q66 0 116.5 -38t72.5 -96t12 -120q-18 -104 -85 -156t-212 -85l-543 -123q-46 -10 -78.5 -20t-61.5 -23.5t-45 -31.5t-19 -40q-5 -37 12.5 -64t68.5 -55l605 -334q50 -28 87 6.5t23 81.5l-76 248
q-20 66 10.5 106.5t82.5 43.5q59 2 100.5 -41t30.5 -123l-74 -512q-18 -122 -84 -182t-168 -60q-64 0 -114.5 26.5t-88.5 69t-102 130.5l-498 688q-24 33 -56 39.5t-52.5 -11t-29 -46.5t14.5 -66l244 -408q24 -39 37 -64t25 -66t12 -81q0 -88 -64 -149.5t-153 -61.5
q-93 0 -162.5 66.5t-153.5 234.5l-237 482q-25 51 -65.5 65t-71.5 -15t-31 -91v-410q0 -170 -77 -251t-198 -81q-107 0 -174 64t-67 166z" />
    <glyph glyph-name="uni0416" unicode="&#x436;" horiz-adv-x="2613" 
d="M72 199q0 100 43 180.5t135 171.5l475 471q36 37 23 70.5t-58 33.5h-313q-139 0 -212 64.5t-73 173.5q0 97 75.5 160t209.5 63q352 0 457 -446l114 -482q8 -33 32 -49t48.5 -12.5t44 25t19.5 55.5l-2 637q0 272 237 272q106 0 161.5 -57.5t47.5 -142t-74 -162.5l-32 -39
q-105 -124 -60 -189q69 -100 229 45l437 392q99 90 167.5 121.5t155.5 31.5q66 0 116.5 -38t72.5 -96t12 -120q-18 -104 -85 -156t-212 -85l-543 -123q-46 -10 -78.5 -20t-61.5 -23.5t-45 -31.5t-19 -40q-5 -37 12.5 -64t68.5 -55l605 -334q50 -28 87 6.5t23 81.5l-76 248
q-20 66 10.5 106.5t82.5 43.5q59 2 100.5 -41t30.5 -123l-74 -512q-18 -122 -84 -182t-168 -60q-64 0 -114.5 26.5t-88.5 69t-102 130.5l-498 688q-24 33 -56 39.5t-52.5 -11t-29 -46.5t14.5 -66l244 -408q24 -39 37 -64t25 -66t12 -81q0 -88 -64 -149.5t-153 -61.5
q-93 0 -162.5 66.5t-153.5 234.5l-237 482q-25 51 -65.5 65t-71.5 -15t-31 -91v-410q0 -170 -77 -251t-198 -81q-107 0 -174 64t-67 166z" />
    <glyph glyph-name="uni0417" unicode="&#x417;" horiz-adv-x="1722" 
d="M113 453q0 50 9.5 93t31 81t62 60t95.5 22q85 0 134 -58t49 -170v-291q0 -62 45.5 -94t103.5 -4l825 395q86 41 94 122.5t-54 118t-165 -2.5l-368 -180q-58 -29 -112 -38t-95 -0.5t-73.5 30t-51.5 52.5t-25.5 69.5t1 78.5t31.5 81t63 75l438 385q40 36 53 77t2 72.5
t-37 52.5t-59 21q-56 0 -99 -22.5t-108 -79.5l-356 -312q-90 -80 -189 -90t-163 44t-64 147q0 79 63 151t173 126t271 86t347 32q134 0 241 -19t174.5 -50.5t112.5 -73.5t63.5 -85t18.5 -89q0 -103 -87 -170.5t-244 -61.5l-207 8q-46 2 -68 -34.5t-4.5 -75t66.5 -41.5
l366 -25q264 -16 264 -303q0 -115 -64.5 -222t-179.5 -189t-288 -131.5t-375 -49.5q-138 0 -251 28.5t-187.5 75.5t-126 110t-74 130t-22.5 138z" />
    <glyph glyph-name="uni0417" unicode="&#x437;" horiz-adv-x="1722" 
d="M113 453q0 50 9.5 93t31 81t62 60t95.5 22q85 0 134 -58t49 -170v-291q0 -62 45.5 -94t103.5 -4l825 395q86 41 94 122.5t-54 118t-165 -2.5l-368 -180q-58 -29 -112 -38t-95 -0.5t-73.5 30t-51.5 52.5t-25.5 69.5t1 78.5t31.5 81t63 75l438 385q40 36 53 77t2 72.5
t-37 52.5t-59 21q-56 0 -99 -22.5t-108 -79.5l-356 -312q-90 -80 -189 -90t-163 44t-64 147q0 79 63 151t173 126t271 86t347 32q134 0 241 -19t174.5 -50.5t112.5 -73.5t63.5 -85t18.5 -89q0 -103 -87 -170.5t-244 -61.5l-207 8q-46 2 -68 -34.5t-4.5 -75t66.5 -41.5
l366 -25q264 -16 264 -303q0 -115 -64.5 -222t-179.5 -189t-288 -131.5t-375 -49.5q-138 0 -251 28.5t-187.5 75.5t-126 110t-74 130t-22.5 138z" />
    <glyph glyph-name="uni0418" unicode="&#x418;" horiz-adv-x="1785" 
d="M133 260l29 920q13 407 313 407q76 0 131 -31t77 -80.5t20 -104.5t-39 -109.5t-101 -90.5l-244 -135q-55 -30 -64.5 -86t26.5 -125l190 -376q25 -50 67.5 -66.5t81.5 7t54 79.5l207 786q45 174 145.5 253t265.5 79q374 0 359 -457l-31 -856q-3 -84 -27 -145.5t-62.5 -95
t-82 -49t-92.5 -15.5q-77 0 -126 31.5t-68 83t-18 121.5t18.5 141.5t47.5 147.5l306 761q14 39 9 74.5t-28 56.5t-50.5 28.5t-60.5 -9.5t-57 -57l-694 -1164q-74 -124 -140 -169.5t-157 -45.5q-99 0 -154 74t-51 217z" />
    <glyph glyph-name="uni0418" unicode="&#x438;" horiz-adv-x="1785" 
d="M133 260l29 920q13 407 313 407q76 0 131 -31t77 -80.5t20 -104.5t-39 -109.5t-101 -90.5l-244 -135q-55 -30 -64.5 -86t26.5 -125l190 -376q25 -50 67.5 -66.5t81.5 7t54 79.5l207 786q45 174 145.5 253t265.5 79q374 0 359 -457l-31 -856q-3 -84 -27 -145.5t-62.5 -95
t-82 -49t-92.5 -15.5q-77 0 -126 31.5t-68 83t-18 121.5t18.5 141.5t47.5 147.5l306 761q14 39 9 74.5t-28 56.5t-50.5 28.5t-60.5 -9.5t-57 -57l-694 -1164q-74 -124 -140 -169.5t-157 -45.5q-99 0 -154 74t-51 217z" />
    <glyph glyph-name="uni0419" unicode="&#x419;" horiz-adv-x="1785" 
d="M899 1653q-399 -10 -399 235q0 48 31.5 74.5t72.5 26.5q95 0 137 -97q3 -7 12.5 -29t12.5 -28.5t11.5 -25t12.5 -25t13 -20.5t15 -19t16 -14t19 -12t21 -6t25 -3t25 3t21 6t19 12t16 14t15 19t13 20.5t12.5 25t11.5 25t12.5 28.5t12.5 29q42 97 137 97q41 0 72.5 -26.5
t31.5 -74.5q0 -245 -399 -235zM133 260l29 920q13 407 313 407q76 0 131 -31t77 -80.5t20 -104.5t-39 -109.5t-101 -90.5l-244 -135q-55 -30 -64.5 -86t26.5 -125l190 -376q25 -50 67.5 -66.5t81.5 7t54 79.5l207 786q45 174 145.5 253t265.5 79q374 0 359 -457l-31 -856
q-3 -84 -27 -145.5t-62.5 -95t-82 -49t-92.5 -15.5q-77 0 -126 31.5t-68 83t-18 121.5t18.5 141.5t47.5 147.5l306 761q14 39 9 74.5t-28 56.5t-50.5 28.5t-60.5 -9.5t-57 -57l-694 -1164q-74 -124 -140 -169.5t-157 -45.5q-99 0 -154 74t-51 217z" />
    <glyph glyph-name="uni0419" unicode="&#x439;" horiz-adv-x="1785" 
d="M899 1653q-399 -10 -399 235q0 48 31.5 74.5t72.5 26.5q95 0 137 -97q3 -7 12.5 -29t12.5 -28.5t11.5 -25t12.5 -25t13 -20.5t15 -19t16 -14t19 -12t21 -6t25 -3t25 3t21 6t19 12t16 14t15 19t13 20.5t12.5 25t11.5 25t12.5 28.5t12.5 29q42 97 137 97q41 0 72.5 -26.5
t31.5 -74.5q0 -245 -399 -235zM133 260l29 920q13 407 313 407q76 0 131 -31t77 -80.5t20 -104.5t-39 -109.5t-101 -90.5l-244 -135q-55 -30 -64.5 -86t26.5 -125l190 -376q25 -50 67.5 -66.5t81.5 7t54 79.5l207 786q45 174 145.5 253t265.5 79q374 0 359 -457l-31 -856
q-3 -84 -27 -145.5t-62.5 -95t-82 -49t-92.5 -15.5q-77 0 -126 31.5t-68 83t-18 121.5t18.5 141.5t47.5 147.5l306 761q14 39 9 74.5t-28 56.5t-50.5 28.5t-60.5 -9.5t-57 -57l-694 -1164q-74 -124 -140 -169.5t-157 -45.5q-99 0 -154 74t-51 217z" />
    <glyph glyph-name="uni041A" unicode="&#x41a;" horiz-adv-x="1765" 
d="M442 1587q75 0 117 -36t46.5 -91t-19.5 -121t-74 -125l-33 -38q-97 -120 -57 -183q19 -31 42.5 -41.5t53.5 -1t59 27t72 50.5l535 406q110 83 184.5 118t163.5 35q85 0 139 -80t39 -174q-18 -104 -85.5 -156.5t-211.5 -84.5l-641 -140q-9 -2 -31 -6t-33 -6.5t-31 -7
t-31 -8.5t-26 -11t-23.5 -14t-15 -16.5t-8.5 -20.5q-14 -81 78 -125l713 -342q43 -21 77.5 14t20.5 80l-76 248q-20 66 10.5 106.5t82.5 43.5q59 2 100.5 -41t30.5 -123l-74 -512q-18 -123 -90 -182.5t-172 -59.5q-25 0 -47.5 4.5t-40 10.5t-37.5 20t-33 24.5t-34.5 34
t-33 37t-38 46t-41.5 49.5l-561 667q-29 34 -62.5 41t-53.5 -10.5t-26 -46.5t19 -68l256 -391q71 -105 51 -227q-14 -80 -84 -135.5t-174 -55.5q-109 0 -164 74.5t-47 208.5l72 1071q10 136 79.5 200t167.5 64z" />
    <glyph glyph-name="uni041A" unicode="&#x43a;" horiz-adv-x="1765" 
d="M442 1587q75 0 117 -36t46.5 -91t-19.5 -121t-74 -125l-33 -38q-97 -120 -57 -183q19 -31 42.5 -41.5t53.5 -1t59 27t72 50.5l535 406q110 83 184.5 118t163.5 35q85 0 139 -80t39 -174q-18 -104 -85.5 -156.5t-211.5 -84.5l-641 -140q-9 -2 -31 -6t-33 -6.5t-31 -7
t-31 -8.5t-26 -11t-23.5 -14t-15 -16.5t-8.5 -20.5q-14 -81 78 -125l713 -342q43 -21 77.5 14t20.5 80l-76 248q-20 66 10.5 106.5t82.5 43.5q59 2 100.5 -41t30.5 -123l-74 -512q-18 -123 -90 -182.5t-172 -59.5q-25 0 -47.5 4.5t-40 10.5t-37.5 20t-33 24.5t-34.5 34
t-33 37t-38 46t-41.5 49.5l-561 667q-29 34 -62.5 41t-53.5 -10.5t-26 -46.5t19 -68l256 -391q71 -105 51 -227q-14 -80 -84 -135.5t-174 -55.5q-109 0 -164 74.5t-47 208.5l72 1071q10 136 79.5 200t167.5 64z" />
    <glyph glyph-name="uni041B" unicode="&#x41b;" horiz-adv-x="1867" 
d="M31 426v6q0 113 11.5 198.5t29 133.5t41.5 77.5t45.5 38t44.5 7.5q22 -1 42.5 -13.5t36 -37t12.5 -69.5t-28 -101l-125 -279q-16 -39 -13 -71.5t23.5 -48t45.5 -19t51.5 15t42.5 55.5l379 893q32 76 57 124.5t59 94.5t72.5 71t92 39.5t122.5 14.5h336q71 0 124.5 -18.5
t88 -50t56 -80t31 -102.5t11.5 -123l25 -893q8 -320 -252 -320q-69 0 -123 29t-81 77t-31 104.5t26.5 118t91.5 110.5l201 161q33 26 36 59.5t-21 55t-64 18.5l-385 -24q-68 -4 -107.5 40.5t-30.5 102.5t64 90l459 258q66 38 62.5 116t-63.5 113.5t-157 -5.5l-575 -314
q-71 -39 -88 -79t-5 -136l60 -475q24 -190 -64 -305t-278 -115q-183 0 -286 110t-103 347z" />
    <glyph glyph-name="uni041B" unicode="&#x43b;" horiz-adv-x="1867" 
d="M31 426v6q0 113 11.5 198.5t29 133.5t41.5 77.5t45.5 38t44.5 7.5q22 -1 42.5 -13.5t36 -37t12.5 -69.5t-28 -101l-125 -279q-16 -39 -13 -71.5t23.5 -48t45.5 -19t51.5 15t42.5 55.5l379 893q32 76 57 124.5t59 94.5t72.5 71t92 39.5t122.5 14.5h336q71 0 124.5 -18.5
t88 -50t56 -80t31 -102.5t11.5 -123l25 -893q8 -320 -252 -320q-69 0 -123 29t-81 77t-31 104.5t26.5 118t91.5 110.5l201 161q33 26 36 59.5t-21 55t-64 18.5l-385 -24q-68 -4 -107.5 40.5t-30.5 102.5t64 90l459 258q66 38 62.5 116t-63.5 113.5t-157 -5.5l-575 -314
q-71 -39 -88 -79t-5 -136l60 -475q24 -190 -64 -305t-278 -115q-183 0 -286 110t-103 347z" />
    <glyph glyph-name="uni041C" unicode="&#x41c;" horiz-adv-x="2326" 
d="M1409 604l-53 365q-20 140 5 256.5t87.5 195.5t159 122.5t217.5 43.5q100 0 166 -28.5t111.5 -101t65.5 -193.5t21 -308l4 -682q1 -83 -21 -145t-59 -95.5t-79 -49t-88 -15.5q-61 0 -107 22t-71 58.5t-36.5 76t-11.5 81.5q0 31 8.5 75.5t16 72.5t24.5 84.5t19 64.5
l231 817q22 81 -23.5 128t-110.5 26t-91 -107l-324 -1069q-50 -168 -108.5 -249t-155.5 -81q-72 0 -135.5 63.5t-144.5 225.5l-238 471q-50 100 -73.5 228.5t-4.5 248.5l19 117q11 74 -37.5 116t-124.5 42q-84 0 -133 -56.5t-49 -146.5q0 -39 14.5 -97t30.5 -98l282 -694
q33 -80 39.5 -155t-13 -134t-72 -95t-132.5 -36q-65 0 -115 20.5t-82.5 61.5t-53.5 90t-31.5 118t-14.5 132t-4 146v432q0 226 45 365t126 197t204 58q263 0 385 -295l332 -805q41 -100 110 -100q107 0 74 215z" />
    <glyph glyph-name="uni041C" unicode="&#x43c;" horiz-adv-x="2326" 
d="M1409 604l-53 365q-20 140 5 256.5t87.5 195.5t159 122.5t217.5 43.5q100 0 166 -28.5t111.5 -101t65.5 -193.5t21 -308l4 -682q1 -83 -21 -145t-59 -95.5t-79 -49t-88 -15.5q-61 0 -107 22t-71 58.5t-36.5 76t-11.5 81.5q0 31 8.5 75.5t16 72.5t24.5 84.5t19 64.5
l231 817q22 81 -23.5 128t-110.5 26t-91 -107l-324 -1069q-50 -168 -108.5 -249t-155.5 -81q-72 0 -135.5 63.5t-144.5 225.5l-238 471q-50 100 -73.5 228.5t-4.5 248.5l19 117q11 74 -37.5 116t-124.5 42q-84 0 -133 -56.5t-49 -146.5q0 -39 14.5 -97t30.5 -98l282 -694
q33 -80 39.5 -155t-13 -134t-72 -95t-132.5 -36q-65 0 -115 20.5t-82.5 61.5t-53.5 90t-31.5 118t-14.5 132t-4 146v432q0 226 45 365t126 197t204 58q263 0 385 -295l332 -805q41 -100 110 -100q107 0 74 215z" />
    <glyph glyph-name="uni041D" unicode="&#x41d;" horiz-adv-x="1773" 
d="M1436 1587q93 0 158.5 -55t56.5 -143l-123 -1139q-5 -48 -14.5 -86t-30.5 -76t-51 -63t-78.5 -40.5t-112.5 -15.5q-97 0 -154 63.5t-57 147.5q0 126 113 232l190 180q62 56 62 121q0 40 -45.5 50t-98.5 -5l-778 -154q-63 -13 -84.5 -29.5t-21.5 -42.5q0 -17 10.5 -36
t22.5 -31.5t36 -36t37 -37.5q100 -109 100 -211q0 -87 -73.5 -149t-167.5 -62q-98 0 -159.5 65.5t-47.5 201.5l108 1009q5 50 15 93t32 90.5t52.5 81t80.5 55.5t113 22q103 0 161 -51.5t58 -136.5q0 -67 -33.5 -123t-88.5 -88l-234 -133q-43 -25 -57.5 -49t-14.5 -56
q0 -40 32.5 -62t86.5 -22h871q65 0 98.5 18.5t42.5 61.5q6 14 2.5 31t-4.5 25t-11 21t-15.5 19t-18 19t-19.5 20l-88 101q-100 117 -100 202q0 90 61.5 146.5t180.5 56.5z" />
    <glyph glyph-name="uni041D" unicode="&#x43d;" horiz-adv-x="1773" 
d="M1436 1587q93 0 158.5 -55t56.5 -143l-123 -1139q-5 -48 -14.5 -86t-30.5 -76t-51 -63t-78.5 -40.5t-112.5 -15.5q-97 0 -154 63.5t-57 147.5q0 126 113 232l190 180q62 56 62 121q0 40 -45.5 50t-98.5 -5l-778 -154q-63 -13 -84.5 -29.5t-21.5 -42.5q0 -17 10.5 -36
t22.5 -31.5t36 -36t37 -37.5q100 -109 100 -211q0 -87 -73.5 -149t-167.5 -62q-98 0 -159.5 65.5t-47.5 201.5l108 1009q5 50 15 93t32 90.5t52.5 81t80.5 55.5t113 22q103 0 161 -51.5t58 -136.5q0 -67 -33.5 -123t-88.5 -88l-234 -133q-43 -25 -57.5 -49t-14.5 -56
q0 -40 32.5 -62t86.5 -22h871q65 0 98.5 18.5t42.5 61.5q6 14 2.5 31t-4.5 25t-11 21t-15.5 19t-18 19t-19.5 20l-88 101q-100 117 -100 202q0 90 61.5 146.5t180.5 56.5z" />
    <glyph glyph-name="uni041E" unicode="&#x41e;" 
d="M848 -31q-357 0 -541 205.5t-184 607.5q0 401 183.5 603t541.5 202q359 0 543 -202t184 -603q0 -402 -184.5 -607.5t-542.5 -205.5zM883 147l540 654q52 63 38.5 124.5t-87.5 90.5l-776 311q-81 33 -146.5 12t-89 -84t2.5 -161l276 -883q16 -52 59 -84t94.5 -28t88.5 48z
" />
    <glyph glyph-name="uni041E" unicode="&#x43e;" 
d="M848 -31q-357 0 -541 205.5t-184 607.5q0 401 183.5 603t541.5 202q359 0 543 -202t184 -603q0 -402 -184.5 -607.5t-542.5 -205.5zM883 147l540 654q52 63 38.5 124.5t-87.5 90.5l-776 311q-81 33 -146.5 12t-89 -84t2.5 -161l276 -883q16 -52 59 -84t94.5 -28t88.5 48z
" />
    <glyph glyph-name="uni041F" unicode="&#x41f;" horiz-adv-x="1681" 
d="M125 289l55 893q24 374 350 374h746q138 0 214 -90t66 -260l-53 -882q-22 -355 -297 -355q-107 0 -168 58.5t-61 152.5q0 82 31 153t108 165l248 303q43 52 58.5 89t15.5 75q0 52 -33.5 89.5t-118.5 71.5l-704 283q-42 16 -82 16.5t-69.5 -15t-52 -39t-30 -55t-3 -62
t28.5 -62t64 -53.5l432 -242q57 -32 67.5 -89.5t-29 -101t-109.5 -38.5l-451 28q-40 3 -65 -16t-23 -50t35 -57l201 -165q76 -62 99.5 -141.5t0.5 -144t-82.5 -109t-138.5 -44.5q-130 0 -195 72t-55 248z" />
    <glyph glyph-name="uni041F" unicode="&#x43f;" horiz-adv-x="1681" 
d="M125 289l55 893q24 374 350 374h746q138 0 214 -90t66 -260l-53 -882q-22 -355 -297 -355q-107 0 -168 58.5t-61 152.5q0 82 31 153t108 165l248 303q43 52 58.5 89t15.5 75q0 52 -33.5 89.5t-118.5 71.5l-704 283q-42 16 -82 16.5t-69.5 -15t-52 -39t-30 -55t-3 -62
t28.5 -62t64 -53.5l432 -242q57 -32 67.5 -89.5t-29 -101t-109.5 -38.5l-451 28q-40 3 -65 -16t-23 -50t35 -57l201 -165q76 -62 99.5 -141.5t0.5 -144t-82.5 -109t-138.5 -44.5q-130 0 -195 72t-55 248z" />
    <glyph glyph-name="uni0420" unicode="&#x420;" horiz-adv-x="1650" 
d="M524 1556h418q332 0 489.5 -159.5t157.5 -476.5q0 -94 -15.5 -174t-49.5 -148t-85 -116t-124 -74.5t-164 -26.5q-131 0 -231 58t-203 194l-236 309q-39 50 -101 51t-110 -51q-40 -47 -36 -106t45 -105l251 -282q63 -72 91 -136t28 -139q0 -205 -246 -205q-59 0 -103 12
t-84 43t-61.5 94t-21.5 156v883q0 180 99.5 289.5t291.5 109.5zM434 1133q0 -55 72 -93l711 -360q74 -37 135 -36.5t90.5 29t29 79.5t-39.5 106l-312 447q-55 78 -96.5 90.5t-124.5 -21.5l-379 -155q-45 -19 -65.5 -37.5t-20.5 -48.5z" />
    <glyph glyph-name="uni0420" unicode="&#x440;" horiz-adv-x="1650" 
d="M524 1556h418q332 0 489.5 -159.5t157.5 -476.5q0 -94 -15.5 -174t-49.5 -148t-85 -116t-124 -74.5t-164 -26.5q-131 0 -231 58t-203 194l-236 309q-39 50 -101 51t-110 -51q-40 -47 -36 -106t45 -105l251 -282q63 -72 91 -136t28 -139q0 -205 -246 -205q-59 0 -103 12
t-84 43t-61.5 94t-21.5 156v883q0 180 99.5 289.5t291.5 109.5zM434 1133q0 -55 72 -93l711 -360q74 -37 135 -36.5t90.5 29t29 79.5t-39.5 106l-312 447q-55 78 -96.5 90.5t-124.5 -21.5l-379 -155q-45 -19 -65.5 -37.5t-20.5 -48.5z" />
    <glyph glyph-name="uni0421" unicode="&#x421;" horiz-adv-x="1720" 
d="M829 -31q-176 0 -313 60t-222 167t-128 247t-43 307q0 241 101.5 432t284.5 298t415 107q143 0 262.5 -42t197.5 -113t121 -163t43 -192q0 -57 -13.5 -103.5t-43 -85t-84 -56t-129.5 -9.5q-49 5 -83.5 28.5t-50.5 55.5t-22.5 74.5t-4.5 79t9 76.5l35 194q13 73 -23 104
t-106 -8l-661 -401q-61 -37 -61.5 -82.5t63.5 -64.5l368 -103q54 -15 90 -53.5t46 -83.5t-15.5 -94t-87.5 -82l-112 -60q-113 -60 -107 -157q5 -76 76 -133q77 -63 166 -51q71 9 123 69l301 352q57 66 122.5 87.5t116 3.5t84 -62t33.5 -100q0 -67 -63 -145t-164 -144
t-241 -110t-280 -44z" />
    <glyph glyph-name="uni0421" unicode="&#x441;" horiz-adv-x="1720" 
d="M829 -31q-176 0 -313 60t-222 167t-128 247t-43 307q0 241 101.5 432t284.5 298t415 107q143 0 262.5 -42t197.5 -113t121 -163t43 -192q0 -57 -13.5 -103.5t-43 -85t-84 -56t-129.5 -9.5q-49 5 -83.5 28.5t-50.5 55.5t-22.5 74.5t-4.5 79t9 76.5l35 194q13 73 -23 104
t-106 -8l-661 -401q-61 -37 -61.5 -82.5t63.5 -64.5l368 -103q54 -15 90 -53.5t46 -83.5t-15.5 -94t-87.5 -82l-112 -60q-113 -60 -107 -157q5 -76 76 -133q77 -63 166 -51q71 9 123 69l301 352q57 66 122.5 87.5t116 3.5t84 -62t33.5 -100q0 -67 -63 -145t-164 -144
t-241 -110t-280 -44z" />
    <glyph glyph-name="uni0422" unicode="&#x422;" horiz-adv-x="1566" 
d="M780 1309l330 -959q40 -113 39.5 -198t-56.5 -134t-163 -49q-59 0 -100.5 14t-68.5 39t-43 67.5t-22.5 91.5t-7.5 118l-22 1001q-2 97 -20.5 140t-59.5 43q-90 0 -90 -158v-90q0 -219 -55 -317.5t-191 -94.5q-97 3 -163.5 75t-66.5 169q0 217 161 353t435 136h701
q76 0 133 -20.5t87.5 -54.5t45 -72t14.5 -80q0 -57 -23.5 -106.5t-62 -82.5t-90 -50t-104.5 -14t-109.5 30t-101.5 78l-229 256q-29 33 -62 33q-92 0 -35 -164z" />
    <glyph glyph-name="uni0422" unicode="&#x442;" horiz-adv-x="1566" 
d="M780 1309l330 -959q40 -113 39.5 -198t-56.5 -134t-163 -49q-59 0 -100.5 14t-68.5 39t-43 67.5t-22.5 91.5t-7.5 118l-22 1001q-2 97 -20.5 140t-59.5 43q-90 0 -90 -158v-90q0 -219 -55 -317.5t-191 -94.5q-97 3 -163.5 75t-66.5 169q0 217 161 353t435 136h701
q76 0 133 -20.5t87.5 -54.5t45 -72t14.5 -80q0 -57 -23.5 -106.5t-62 -82.5t-90 -50t-104.5 -14t-109.5 30t-101.5 78l-229 256q-29 33 -62 33q-92 0 -35 -164z" />
    <glyph glyph-name="uni0423" unicode="&#x423;" horiz-adv-x="1579" 
d="M1133 834l-17 548q-3 118 93 174q82 48 186 25t150 -104q27 -47 26 -107q-1 -39 -22.5 -93.5t-43 -92.5t-59.5 -99l-502 -823q-178 -293 -348 -293q-86 0 -148 45t-79.5 109.5t-6.5 129.5t71 110t153 45h192q49 0 77.5 10t34.5 26t1.5 32.5t-17.5 33.5l-630 844
q-27 36 -57.5 36.5t-45 -27.5t-0.5 -65l92 -239q55 -144 -55 -182q-24 -8 -56 11t-48 60q-16 42 -24.5 96.5t-7.5 115.5t11 121.5t33.5 115.5t57 97.5t84 67.5t112.5 25q83 0 136 -40.5t126 -145.5l412 -594q28 -39 51.5 -51.5t38 -1.5t22.5 32.5t7 47.5z" />
    <glyph glyph-name="uni0423" unicode="&#x443;" horiz-adv-x="1579" 
d="M1133 834l-17 548q-3 118 93 174q82 48 186 25t150 -104q27 -47 26 -107q-1 -39 -22.5 -93.5t-43 -92.5t-59.5 -99l-502 -823q-178 -293 -348 -293q-86 0 -148 45t-79.5 109.5t-6.5 129.5t71 110t153 45h192q49 0 77.5 10t34.5 26t1.5 32.5t-17.5 33.5l-630 844
q-27 36 -57.5 36.5t-45 -27.5t-0.5 -65l92 -239q55 -144 -55 -182q-24 -8 -56 11t-48 60q-16 42 -24.5 96.5t-7.5 115.5t11 121.5t33.5 115.5t57 97.5t84 67.5t112.5 25q83 0 136 -40.5t126 -145.5l412 -594q28 -39 51.5 -51.5t38 -1.5t22.5 32.5t7 47.5z" />
    <glyph glyph-name="uni0424" unicode="&#x424;" horiz-adv-x="2476" 
d="M113 610l6 348q2 141 36.5 247.5t93 168.5t128.5 92.5t151 30.5q221 0 320 -231l115 -271q11 -25 29 -41t37.5 -19.5t39.5 0t36 16.5t27.5 30t12 40.5t-9.5 49.5l-105 250q-56 133 3.5 205.5t209.5 72.5q115 0 176.5 -46.5t61.5 -112.5q0 -52 -28 -93t-87 -85l-104 -80
q-35 -26 -31.5 -59.5t32 -44t60.5 8.5l342 259q107 82 187.5 116.5t172.5 34.5q152 0 247 -130.5t91 -395.5l-6 -359q-4 -269 -117.5 -406.5t-300.5 -137.5q-122 0 -202 54t-142 163l-153 270q-14 24 -35.5 36t-42 10.5t-40 -11t-30 -28.5t-12 -41.5t13.5 -49.5l134 -233
q40 -78 26.5 -138t-76.5 -96.5t-157 -36.5q-108 0 -161.5 40t-53.5 106q0 51 28 93t82 89l62 53q16 15 20.5 32.5t-2 31t-18.5 23t-29 9.5t-33 -12l-287 -209q-107 -79 -191 -117t-185 -38q-72 0 -133 31.5t-109.5 94.5t-75 169.5t-24.5 246.5zM1415 768l639 -401
q42 -27 87 -21.5t73.5 34.5t40.5 70.5t-12 88.5l-281 563q-70 144 -207 80l-332 -156q-86 -40 -88.5 -123t80.5 -135zM1079 784l-694 359q-44 23 -86.5 16t-65.5 -36t-29 -70.5t23 -87.5l340 -570q96 -162 258 -43l262 195q40 30 54.5 77t-2 92t-60.5 68z" />
    <glyph glyph-name="uni0424" unicode="&#x444;" horiz-adv-x="2476" 
d="M113 610l6 348q2 141 36.5 247.5t93 168.5t128.5 92.5t151 30.5q221 0 320 -231l115 -271q11 -25 29 -41t37.5 -19.5t39.5 0t36 16.5t27.5 30t12 40.5t-9.5 49.5l-105 250q-56 133 3.5 205.5t209.5 72.5q115 0 176.5 -46.5t61.5 -112.5q0 -52 -28 -93t-87 -85l-104 -80
q-35 -26 -31.5 -59.5t32 -44t60.5 8.5l342 259q107 82 187.5 116.5t172.5 34.5q152 0 247 -130.5t91 -395.5l-6 -359q-4 -269 -117.5 -406.5t-300.5 -137.5q-122 0 -202 54t-142 163l-153 270q-14 24 -35.5 36t-42 10.5t-40 -11t-30 -28.5t-12 -41.5t13.5 -49.5l134 -233
q40 -78 26.5 -138t-76.5 -96.5t-157 -36.5q-108 0 -161.5 40t-53.5 106q0 51 28 93t82 89l62 53q16 15 20.5 32.5t-2 31t-18.5 23t-29 9.5t-33 -12l-287 -209q-107 -79 -191 -117t-185 -38q-72 0 -133 31.5t-109.5 94.5t-75 169.5t-24.5 246.5zM1415 768l639 -401
q42 -27 87 -21.5t73.5 34.5t40.5 70.5t-12 88.5l-281 563q-70 144 -207 80l-332 -156q-86 -40 -88.5 -123t80.5 -135zM1079 784l-694 359q-44 23 -86.5 16t-65.5 -36t-29 -70.5t23 -87.5l340 -570q96 -162 258 -43l262 195q40 30 54.5 77t-2 92t-60.5 68z" />
    </font>
</defs>
</svg>
